CommissionerLoud-ExtraBoldItalic.ufo
<glyph name="numbersign" format="2">
  <advance width="706.078947368421"/>
  <unicode hex="0023"/>
  <outline>
    <contour>
      <point x="-17.210526315789473" y="112.71052631578948" type="line"/>
      <point x="55.47368421052632" y="115.3421052631579"/>
      <point x="129.8157894736842" y="117.97368421052632"/>
      <point x="183.57894736842104" y="119.60526315789474" type="curve"/>
      <point x="420.52631578947364" y="119.60526315789474" type="line"/>
      <point x="472.6578947368421" y="117.97368421052632"/>
      <point x="547.0" y="115.3421052631579"/>
      <point x="618.0526315789473" y="112.71052631578948" type="curve"/>
      <point x="649.3421052631578" y="262.1842105263158" type="line"/>
      <point x="577.4736842105262" y="259.5526315789474"/>
      <point x="502.3157894736842" y="256.92105263157896"/>
      <point x="449.36842105263156" y="255.28947368421052" type="curve"/>
      <point x="212.42105263157896" y="255.28947368421052" type="line"/>
      <point x="159.47368421052633" y="256.92105263157896"/>
      <point x="85.94736842105263" y="259.5526315789474"/>
      <point x="14.078947368421053" y="262.1842105263158" type="curve"/>
    </contour>
    <contour>
      <point x="30.131578947368425" y="0.0" type="curve"/>
      <point x="200.10526315789474" y="0.0" type="line"/>
      <point x="222.39473684210526" y="68.63157894736841"/>
      <point x="242.3157894736842" y="132.3421052631579"/>
      <point x="269.97368421052636" y="217.1578947368421" type="curve"/>
      <point x="358.8157894736842" y="450.05263157894734" type="line"/>
      <point x="397.6315789473684" y="541.9473684210526"/>
      <point x="420.1842105263158" y="595.0526315789473"/>
      <point x="451.99999999999994" y="669.3157894736842" type="curve"/>
      <point x="286.10526315789474" y="669.3157894736842" type="line"/>
      <point x="261.36842105263156" y="593.1578947368421"/>
      <point x="243.71052631578945" y="538.8684210526316"/>
      <point x="215.6842105263158" y="450.0526315789474" type="curve"/>
      <point x="126.8421052631579" y="217.1578947368421" type="line"/>
      <point x="88.39473684210526" y="130.89473684210526"/>
      <point x="59.13157894736841" y="65.36842105263158"/>
    </contour>
    <contour>
      <point x="91.36842105263158" y="404.13157894736844" type="line"/>
      <point x="164.05263157894734" y="406.7631578947368"/>
      <point x="239.21052631578948" y="409.39473684210526"/>
      <point x="292.15789473684214" y="411.0263157894737" type="curve"/>
      <point x="529.1052631578947" y="411.0263157894737" type="line"/>
      <point x="582.0526315789473" y="409.39473684210526"/>
      <point x="655.578947368421" y="406.7631578947368"/>
      <point x="726.6315789473683" y="404.13157894736844" type="curve"/>
      <point x="758.7368421052631" y="553.6052631578948" type="line"/>
      <point x="686.0526315789473" y="550.9736842105262"/>
      <point x="611.7105263157894" y="548.3421052631579"/>
      <point x="557.9473684210526" y="546.7105263157895" type="curve"/>
      <point x="321.0" y="546.7105263157895" type="line"/>
      <point x="268.86842105263156" y="548.3421052631579"/>
      <point x="194.5263157894737" y="550.9736842105262"/>
      <point x="123.47368421052632" y="553.6052631578948" type="curve"/>
    </contour>
    <contour>
      <point x="284.6052631578947" y="0.0" type="curve"/>
      <point x="454.5789473684211" y="0.0" type="line"/>
      <point x="476.8684210526316" y="68.63157894736841"/>
      <point x="496.7894736842106" y="132.3421052631579"/>
      <point x="524.4473684210526" y="217.1578947368421" type="curve"/>
      <point x="613.2894736842105" y="450.05263157894734" type="line"/>
      <point x="652.1052631578949" y="541.9473684210526"/>
      <point x="674.6578947368421" y="595.0526315789473"/>
      <point x="706.4736842105264" y="669.3157894736842" type="curve"/>
      <point x="540.578947368421" y="669.3157894736842" type="line"/>
      <point x="515.8421052631579" y="593.1578947368421"/>
      <point x="498.1842105263158" y="538.8684210526316"/>
      <point x="470.15789473684214" y="450.0526315789474" type="curve"/>
      <point x="381.3157894736842" y="217.1578947368421" type="line"/>
      <point x="342.86842105263156" y="130.89473684210526"/>
      <point x="313.60526315789474" y="65.36842105263158"/>
    </contour>
  </outline>
</glyph>
<glyph name="dollar" format="2">
  <advance width="581.3684210526316"/>
  <unicode hex="0024"/>
  <outline>
    <contour>
      <point x="260.89473684210526" y="-13.894736842105264" type="curve" smooth="yes"/>
      <point x="435.60526315789474" y="-13.894736842105264"/>
      <point x="513.9473684210526" y="40.76315789473685"/>
      <point x="542.2894736842105" y="174.39473684210526" type="curve" smooth="yes"/>
      <point x="565.1842105263157" y="282.4210526315789"/>
      <point x="523.1052631578947" y="341.9736842105263"/>
      <point x="381.89473684210526" y="400.44736842105266" type="curve" smooth="yes"/>
      <point x="309.44736842105266" y="430.52631578947364"/>
      <point x="282.57894736842104" y="457.9210526315789"/>
      <point x="289.9736842105263" y="493.7894736842105" type="curve" smooth="yes"/>
      <point x="297.7368421052631" y="530.2368421052632"/>
      <point x="332.44736842105266" y="542.4473684210526"/>
      <point x="373.84210526315786" y="542.4473684210526" type="curve"/>
      <point x="390.9473684210526" y="542.4473684210526"/>
      <point x="475.39473684210526" y="512.8157894736842"/>
      <point x="554.4736842105264" y="479.18421052631584" type="curve"/>
      <point x="605.1842105263157" y="642.5263157894736" type="line"/>
      <point x="528.078947368421" y="664.7894736842104"/>
      <point x="407.94736842105266" y="699.2631578947369"/>
      <point x="347.7368421052632" y="699.2631578947369" type="curve" smooth="yes"/>
      <point x="190.1842105263158" y="699.2631578947369"/>
      <point x="112.55263157894737" y="640.3684210526316"/>
      <point x="87.02631578947368" y="516.921052631579" type="curve" smooth="yes"/>
      <point x="60.94736842105263" y="391.2631578947368"/>
      <point x="122.84210526315789" y="332.2894736842105"/>
      <point x="233.36842105263156" y="287.1578947368421" type="curve" smooth="yes"/>
      <point x="305.9473684210526" y="257.55263157894734"/>
      <point x="346.7368421052631" y="230.68421052631578"/>
      <point x="339.34210526315786" y="193.44736842105263" type="curve" smooth="yes"/>
      <point x="330.84210526315786" y="153.50000000000003"/>
      <point x="304.10526315789474" y="139.6578947368421"/>
      <point x="252.73684210526318" y="139.6578947368421" type="curve"/>
      <point x="230.02631578947367" y="139.6578947368421"/>
      <point x="137.8947368421053" y="172.92105263157896"/>
      <point x="47.631578947368425" y="211.28947368421052" type="curve"/>
      <point x="-2.0789473684210504" y="41.23684210526316" type="line"/>
      <point x="92.78947368421053" y="13.578947368421053"/>
      <point x="209.26315789473685" y="-13.894736842105264"/>
    </contour>
    <contour>
      <point x="138.76315789473685" y="-137.0" type="curve"/>
      <point x="294.3157894736842" y="-137.0" type="line"/>
      <point x="307.57894736842104" y="-63.526315789473685"/>
      <point x="321.84210526315786" y="15.026315789473683"/>
      <point x="332.4736842105263" y="77.52631578947368" type="curve"/>
      <point x="191.15789473684208" y="77.52631578947368" type="line"/>
      <point x="176.26315789473682" y="15.842105263157894"/>
      <point x="157.10526315789474" y="-62.71052631578947"/>
    </contour>
    <contour>
      <point x="305.4210526315789" y="617.078947368421" type="curve"/>
      <point x="448.36842105263156" y="617.078947368421" type="line"/>
      <point x="461.4473684210526" y="672.1315789473684"/>
      <point x="477.9736842105263" y="739.6052631578947"/>
      <point x="493.5" y="803.0" type="curve"/>
      <point x="338.7631578947368" y="803.0" type="line"/>
      <point x="327.3157894736842" y="739.6052631578947"/>
      <point x="315.8684210526316" y="673.7631578947369"/>
    </contour>
  </outline>
</glyph>
<glyph name="ampersand" format="2">
  <advance width="788.9902912621359"/>
  <unicode hex="0026"/>
  <outline>
    <contour>
      <point x="492.7864077669903" y="0.0" type="curve"/>
      <point x="739.2135922330098" y="0.0" type="line"/>
      <point x="677.9320388349515" y="78.24271844660194"/>
      <point x="618.6699029126213" y="153.4660194174757"/>
      <point x="559.0679611650485" y="229.6893203883495" type="curve"/>
      <point x="402.252427184466" y="448.0873786407767" type="line" smooth="yes"/>
      <point x="371.1553398058252" y="490.8640776699029"/>
      <point x="363.7766990291262" y="525.9417475728155"/>
      <point x="372.13592233009706" y="562.7378640776699" type="curve" smooth="yes"/>
      <point x="379.17475728155335" y="593.5728155339807"/>
      <point x="400.61165048543694" y="609.9320388349514"/>
      <point x="432.1067961165049" y="611.9320388349514" type="curve"/>
      <point x="464.9417475728156" y="608.2718446601941"/>
      <point x="486.7378640776699" y="580.9126213592233"/>
      <point x="480.6990291262136" y="547.3980582524272" type="curve" smooth="yes"/>
      <point x="476.66019417475735" y="526.2233009708738"/>
      <point x="434.1067961165049" y="488.18446601941747"/>
      <point x="388.252427184466" y="454.7669902912622" type="curve"/>
      <point x="455.79611650485435" y="361.980582524272" type="line"/>
      <point x="523.8737864077672" y="413.3203883495146"/>
      <point x="617.611650485437" y="478.621359223301"/>
      <point x="629.9514563106796" y="538.0194174757282" type="curve" smooth="yes"/>
      <point x="652.9320388349515" y="645.9611650485438"/>
      <point x="559.3689320388349" y="728.3203883495146"/>
      <point x="423.5242718446601" y="728.3203883495146" type="curve" smooth="yes"/>
      <point x="315.9611650485437" y="728.3203883495146"/>
      <point x="220.0388349514563" y="689.2621359223301"/>
      <point x="196.73786407766988" y="577.0388349514564" type="curve" smooth="yes"/>
      <point x="181.39805825242718" y="503.32038834951453"/>
      <point x="204.79611650485435" y="426.0388349514563"/>
      <point x="244.85436893203885" y="369.6601941747573" type="curve" smooth="yes"/>
      <point x="409.9902912621359" y="136.0" type="line"/>
      <point x="437.02912621359224" y="91.33980582524272"/>
      <point x="465.747572815534" y="44.66019417475728"/>
    </contour>
    <contour>
      <point x="221.47572815533985" y="-12.980582524271846" type="curve" smooth="yes"/>
      <point x="271.61165048543694" y="-12.980582524271846"/>
      <point x="349.990291262136" y="28.49514563106797"/>
      <point x="435.9126213592233" y="72.23300970873787" type="curve"/>
      <point x="451.8932038834952" y="72.23300970873787" type="line"/>
      <point x="449.8543689320388" y="101.81553398058252" type="line"/>
      <point x="383.3495145631068" y="188.96116504854368" type="line"/>
      <point x="338.55339805825247" y="159.48543689320388"/>
      <point x="287.8640776699029" y="131.57281553398056"/>
      <point x="273.7864077669903" y="131.57281553398056" type="curve"/>
      <point x="215.19417475728153" y="135.23300970873785"/>
      <point x="193.09708737864077" y="178.3495145631068"/>
      <point x="203.13592233009706" y="221.24271844660194" type="curve" smooth="yes"/>
      <point x="212.51456310679612" y="261.1747572815534"/>
      <point x="239.74757281553394" y="290.9126213592233"/>
      <point x="290.33980582524276" y="316.29126213592235" type="curve"/>
      <point x="230.17475728155338" y="417.0194174757282" type="line"/>
      <point x="133.8155339805825" y="382.69902912621365"/>
      <point x="45.13592233009709" y="326.3592233009708"/>
      <point x="21.79611650485437" y="215.64077669902912" type="curve" smooth="yes"/>
      <point x="-3.184466019417473" y="98.03883495145631"/>
      <point x="62.87378640776698" y="-12.980582524271846"/>
    </contour>
    <contour>
      <point x="581.6504854368932" y="161.77669902912623" type="line"/>
      <point x="648.5922330097087" y="217.47572815533982"/>
      <point x="715.2135922330095" y="273.1747572815534"/>
      <point x="782.8155339805824" y="329.5339805825242" type="curve"/>
      <point x="635.9223300970873" y="441.48543689320394" type="line"/>
      <point x="590.9029126213594" y="382.80582524271847"/>
      <point x="546.5631067961166" y="325.1456310679612"/>
      <point x="500.5242718446602" y="265.1067961165049" type="curve"/>
    </contour>
  </outline>
</glyph>
<glyph name="quotesingle" format="2">
  <advance width="239.28947368421052"/>
  <unicode hex="0027"/>
  <outline>
    <contour>
      <point x="71.21052631578948" y="378.7105263157895" type="curve"/>
      <point x="206.71052631578948" y="379.7105263157895" type="line"/>
      <point x="242.21052631578945" y="502.89473684210526"/>
      <point x="279.44736842105266" y="623.6315789473684"/>
      <point x="316.05263157894734" y="744.8157894736842" type="curve"/>
      <point x="119.47368421052632" y="740.5526315789474" type="line"/>
      <point x="104.21052631578948" y="621.8157894736842"/>
      <point x="88.76315789473684" y="502.89473684210526"/>
    </contour>
  </outline>
</glyph>
<glyph name="parenleft" format="2">
  <advance width="426.8157894736842"/>
  <unicode hex="0028"/>
  <outline>
    <contour>
      <point x="193.86842105263156" y="-139.73684210526318" type="curve"/>
      <point x="342.4473684210526" y="-87.94736842105263" type="line"/>
      <point x="270.34210526315786" y="59.63157894736842"/>
      <point x="213.6315789473684" y="181.00000000000003"/>
      <point x="244.3684210526316" y="331.2105263157895" type="curve" smooth="yes"/>
      <point x="275.10526315789474" y="482.2368421052631"/>
      <point x="387.7368421052631" y="592.3947368421052"/>
      <point x="515.0" y="729.9473684210526" type="curve"/>
      <point x="370.86842105263156" y="786.1052631578947" type="line"/>
      <point x="258.8421052631579" y="680.4473684210526"/>
      <point x="100.07894736842105" y="555.2368421052631"/>
      <point x="59.184210526315795" y="353.7894736842105" type="curve" smooth="yes"/>
      <point x="18.289473684210527" y="152.52631578947367"/>
      <point x="128.39473684210526" y="-17.710526315789473"/>
    </contour>
  </outline>
</glyph>
<glyph name="asterisk" format="2">
  <advance width="502.86842105263156"/>
  <unicode hex="002A"/>
  <outline>
    <contour>
      <point x="436.8157894736842" y="313.10526315789474" type="curve"/>
      <point x="521.3684210526317" y="406.0" type="line"/>
      <point x="458.2105263157895" y="451.10526315789474"/>
      <point x="393.2368421052631" y="495.5789473684211"/>
      <point x="330.0789473684211" y="540.6842105263157" type="curve"/>
      <point x="278.8947368421052" y="599.7631578947368"/>
      <point x="228.1578947368421" y="660.1052631578947"/>
      <point x="177.78947368421055" y="718.815789473684" type="curve"/>
      <point x="93.42105263157895" y="625.1052631578947" type="line"/>
      <point x="156.39473684210523" y="579.1842105263158"/>
      <point x="219.73684210526315" y="535.5263157894738"/>
      <point x="284.5263157894737" y="489.42105263157896" type="curve"/>
      <point x="335.07894736842104" y="430.7105263157894"/>
      <point x="386.44736842105266" y="371.0"/>
    </contour>
    <contour>
      <point x="106.47368421052632" y="382.57894736842104" type="line"/>
      <point x="177.1052631578947" y="416.10526315789474"/>
      <point x="247.10526315789474" y="449.6315789473684"/>
      <point x="317.92105263157896" y="483.34210526315786" type="curve"/>
      <point x="393.81578947368416" y="498.3684210526316"/>
      <point x="470.5263157894737" y="514.0263157894738"/>
      <point x="546.4210526315792" y="529.0526315789473" type="curve"/>
      <point x="507.3157894736842" y="649.3421052631577" type="line"/>
      <point x="437.5" y="615.8157894736843"/>
      <point x="367.5" y="582.2894736842105"/>
      <point x="296.8684210526316" y="548.7631578947368" type="curve"/>
      <point x="220.78947368421052" y="532.7368421052631"/>
      <point x="143.26315789473682" y="517.8947368421052"/>
      <point x="67.36842105263158" y="502.8684210526316" type="curve"/>
    </contour>
    <contour>
      <point x="196.71052631578948" y="302.0" type="curve"/>
      <point x="320.63157894736844" y="275.2368421052632" type="line"/>
      <point x="328.1052631578948" y="353.3157894736842"/>
      <point x="333.94736842105266" y="430.57894736842104"/>
      <point x="341.2368421052631" y="508.8421052631579" type="curve"/>
      <point x="366.57894736842104" y="582.4736842105264"/>
      <point x="391.7368421052632" y="656.1052631578948"/>
      <point x="417.07894736842104" y="729.9210526315788" type="curve"/>
      <point x="293.9736842105263" y="755.8684210526316" type="line"/>
      <point x="286.49999999999994" y="678.6052631578948"/>
      <point x="280.6578947368421" y="600.5263157894736"/>
      <point x="273.36842105263156" y="522.8157894736842" type="curve"/>
      <point x="248.0263157894737" y="448.8157894736842"/>
      <point x="222.05263157894737" y="375.8157894736842"/>
    </contour>
  </outline>
</glyph>
<glyph name="plus" format="2">
  <advance width="604.4736842105264"/>
  <unicode hex="002B"/>
  <outline>
    <contour>
      <point x="168.73684210526318" y="47.868421052631575" type="curve"/>
      <point x="349.7631578947368" y="47.868421052631575" type="line"/>
      <point x="362.57894736842104" y="120.10526315789474"/>
      <point x="375.57894736842104" y="194.07894736842104"/>
      <point x="385.02631578947364" y="247.0263157894737" type="curve"/>
      <point x="410.1315789473684" y="365.8157894736842" type="line"/>
      <point x="423.84210526315786" y="420.39473684210526"/>
      <point x="442.10526315789474" y="493.10526315789474"/>
      <point x="459.99999999999994" y="564.9736842105264" type="curve"/>
      <point x="278.9736842105263" y="564.9736842105264" type="line"/>
      <point x="266.34210526315786" y="494.92105263157896"/>
      <point x="252.34210526315792" y="417.7631578947368"/>
      <point x="242.89473684210526" y="365.8157894736842" type="curve"/>
      <point x="217.78947368421052" y="247.0263157894737" type="line"/>
      <point x="205.07894736842107" y="194.26315789473685"/>
      <point x="186.8157894736842" y="119.92105263157895"/>
    </contour>
    <contour>
      <point x="38.65789473684211" y="219.26315789473685" type="line"/>
      <point x="111.3421052631579" y="221.89473684210526"/>
      <point x="186.5" y="224.5263157894737"/>
      <point x="239.44736842105263" y="226.1578947368421" type="curve"/>
      <point x="354.55263157894734" y="226.1578947368421" type="line"/>
      <point x="407.5" y="224.5263157894737"/>
      <point x="481.02631578947364" y="221.89473684210526"/>
      <point x="552.078947368421" y="219.26315789473685" type="curve"/>
      <point x="589.2631578947368" y="393.57894736842104" type="line"/>
      <point x="517.3947368421052" y="390.94736842105266"/>
      <point x="442.0526315789474" y="388.3157894736842"/>
      <point x="389.10526315789474" y="386.6842105263158" type="curve"/>
      <point x="274.0" y="386.6842105263158" type="line"/>
      <point x="221.05263157894737" y="388.3157894736842"/>
      <point x="147.71052631578948" y="390.94736842105266"/>
      <point x="75.84210526315789" y="393.57894736842104" type="curve"/>
    </contour>
  </outline>
</glyph>
<glyph name="comma" format="2">
  <advance width="263.7631578947369"/>
  <unicode hex="002C"/>
  <outline>
    <contour>
      <point x="-66.97368421052632" y="-157.0" type="curve"/>
      <point x="28.184210526315788" y="-155.18421052631578" type="line"/>
      <point x="71.8157894736842" y="-108.94736842105264"/>
      <point x="181.94736842105263" y="10.710526315789473"/>
      <point x="193.02631578947367" y="68.55263157894737" type="curve" smooth="yes"/>
      <point x="204.55263157894737" y="130.26315789473685"/>
      <point x="190.02631578947367" y="180.71052631578945"/>
      <point x="127.23684210526315" y="195.31578947368422" type="curve"/>
      <point x="28.0" y="187.78947368421052" type="line"/>
      <point x="24.000000000000007" y="138.5"/>
      <point x="19.368421052631586" y="89.21052631578948"/>
      <point x="14.552631578947372" y="44.815789473684205" type="curve"/>
      <point x="-8.631578947368416" y="-17.078947368421055"/>
      <point x="-42.42105263157895" y="-98.8157894736842"/>
    </contour>
  </outline>
</glyph>
<glyph name="hyphen" format="2">
  <advance width="428.1578947368421"/>
  <unicode hex="002D"/>
  <outline>
    <contour>
      <point x="37.8421052631579" y="215.18421052631578" type="line"/>
      <point x="98.63157894736842" y="217.8157894736842"/>
      <point x="162.3421052631579" y="220.44736842105263"/>
      <point x="207.21052631578945" y="222.07894736842104" type="curve"/>
      <point x="252.078947368421" y="220.44736842105263"/>
      <point x="314.15789473684214" y="217.8157894736842"/>
      <point x="374.94736842105266" y="215.18421052631578" type="curve"/>
      <point x="411.3157894736842" y="389.5" type="line"/>
      <point x="349.7105263157895" y="386.8684210526316"/>
      <point x="286.6315789473684" y="384.2368421052632"/>
      <point x="240.94736842105263" y="382.60526315789474" type="curve"/>
      <point x="196.8947368421053" y="384.2368421052632"/>
      <point x="134.18421052631578" y="386.8684210526316"/>
      <point x="74.21052631578947" y="389.5" type="curve"/>
    </contour>
  </outline>
</glyph>
<glyph name="period" format="2">
  <advance width="280.07894736842104"/>
  <unicode hex="002E"/>
  <outline>
    <contour>
      <point x="98.1578947368421" y="-14.710526315789473" type="curve" smooth="yes"/>
      <point x="165.94736842105263" y="-14.710526315789473"/>
      <point x="201.34210526315786" y="17.5"/>
      <point x="214.05263157894734" y="80.68421052631581" type="curve" smooth="yes"/>
      <point x="224.76315789473682" y="138.23684210526318"/>
      <point x="192.89473684210526" y="193.57894736842104"/>
      <point x="114.94736842105263" y="193.57894736842104" type="curve" smooth="yes"/>
      <point x="39.18421052631579" y="193.57894736842104"/>
      <point x="11.763157894736842" y="162.36842105263156"/>
      <point x="1.8684210526315805" y="111.89473684210527" type="curve" smooth="yes"/>
      <point x="-11.657894736842104" y="44.00000000000001"/>
      <point x="22.47368421052632" y="-14.710526315789473"/>
    </contour>
  </outline>
</glyph>
<glyph name="slash" format="2">
  <advance width="476.3421052631579"/>
  <unicode hex="002F"/>
  <outline>
    <contour>
      <point x="-49.07894736842105" y="0.0" type="curve"/>
      <point x="165.5" y="0.0" type="line"/>
      <point x="203.71052631578945" y="74.0"/>
      <point x="234.9210526315789" y="136.0"/>
      <point x="281.86842105263156" y="228.0" type="curve"/>
      <point x="421.2105263157895" y="474.0" type="line"/>
      <point x="479.31578947368416" y="568.1842105263158"/>
      <point x="519.0526315789474" y="632.1842105263158"/>
      <point x="569.7894736842106" y="713.0" type="curve"/>
      <point x="356.02631578947364" y="713.0" type="line"/>
      <point x="316.6315789473684" y="636.1842105263158"/>
      <point x="284.42105263157896" y="572.0"/>
      <point x="235.28947368421052" y="476.8157894736842" type="curve"/>
      <point x="94.13157894736842" y="228.0" type="line"/>
      <point x="37.026315789473685" y="138.44736842105263"/>
      <point x="-1.710526315789477" y="75.44736842105263"/>
    </contour>
  </outline>
</glyph>
<glyph name="one" format="2">
  <advance width="474.89473684210526"/>
  <unicode hex="0031"/>
  <outline>
    <contour>
      <point x="95.13157894736842" y="395.55263157894734" type="line"/>
      <point x="180.3947368421053" y="434.47368421052624"/>
      <point x="265.2894736842105" y="473.2105263157895"/>
      <point x="352.18421052631584" y="512.9473684210526" type="curve"/>
      <point x="395.89473684210526" y="694.1578947368421" type="line"/>
      <point x="289.6842105263158" y="653.6052631578947"/>
      <point x="185.92105263157893" y="614.0526315789474"/>
      <point x="80.52631578947368" y="573.5" type="curve"/>
    </contour>
    <contour>
      <point x="133.55263157894737" y="0.0" type="curve"/>
      <point x="357.0" y="0.0" type="line"/>
      <point x="367.1052631578947" y="70.10526315789474"/>
      <point x="375.3947368421052" y="131.0263157894737"/>
      <point x="387.31578947368416" y="214.47368421052633" type="curve"/>
      <point x="436.9473684210526" y="448.63157894736844" type="line"/>
      <point x="458.3947368421052" y="528.7368421052631"/>
      <point x="480.4736842105263" y="607.921052631579"/>
      <point x="502.1842105263158" y="688.8947368421053" type="curve"/>
      <point x="395.89473684210526" y="694.1578947368421" type="line"/>
      <point x="269.2105263157895" y="610.078947368421" type="line"/>
      <point x="257.4736842105263" y="542.6052631578948"/>
      <point x="246.18421052631578" y="474.1052631578947"/>
      <point x="234.81578947368422" y="408.6578947368421" type="curve"/>
      <point x="194.1578947368421" y="214.47368421052633" type="line"/>
      <point x="170.26315789473685" y="131.0263157894737"/>
      <point x="153.81578947368422" y="70.10526315789474"/>
    </contour>
  </outline>
</glyph>
<glyph name="two" format="2">
  <advance width="577.2631578947369"/>
  <unicode hex="0032"/>
  <outline>
    <contour>
      <point x="-12.05263157894737" y="0.0" type="line"/>
      <point x="485.6578947368421" y="0.0" type="line"/>
      <point x="524.4736842105262" y="182.28947368421052" type="line"/>
      <point x="460.421052631579" y="176.39473684210526"/>
      <point x="397.8157894736843" y="170.5"/>
      <point x="330.3157894736842" y="163.78947368421052" type="curve"/>
      <point x="214.39473684210526" y="163.78947368421052" type="line"/>
      <point x="233.6315789473684" y="122.60526315789473" type="line"/>
      <point x="339.10526315789474" y="190.4473684210526" type="line"/>
      <point x="488.0526315789474" y="285.6842105263158"/>
      <point x="557.078947368421" y="358.92105263157896"/>
      <point x="578.8157894736842" y="461.9736842105263" type="curve" smooth="yes"/>
      <point x="608.3421052631578" y="601.078947368421"/>
      <point x="523.7105263157895" y="704.1578947368421"/>
      <point x="351.4473684210526" y="704.1578947368421" type="curve" smooth="yes"/>
      <point x="305.6315789473684" y="704.1578947368421"/>
      <point x="194.60526315789474" y="676.0263157894736"/>
      <point x="121.21052631578947" y="657.8421052631578" type="curve"/>
      <point x="98.99999999999999" y="464.4736842105263" type="line"/>
      <point x="170.1578947368421" y="495.7631578947368"/>
      <point x="286.92105263157896" y="543.2631578947369"/>
      <point x="302.5" y="543.2631578947369" type="curve"/>
      <point x="361.39473684210526" y="540.6315789473684"/>
      <point x="389.5263157894737" y="508.421052631579"/>
      <point x="378.3157894736842" y="457.55263157894734" type="curve" smooth="yes"/>
      <point x="361.65789473684214" y="379.89473684210526"/>
      <point x="270.05263157894734" y="310.92105263157896"/>
      <point x="133.1842105263158" y="212.71052631578948" type="curve"/>
      <point x="94.23684210526315" y="188.57894736842107"/>
      <point x="56.55263157894738" y="165.07894736842104"/>
      <point x="17.605263157894736" y="140.94736842105263" type="curve"/>
    </contour>
  </outline>
</glyph>
<glyph name="three" format="2">
  <advance width="589.8834951456311"/>
  <unicode hex="0033"/>
  <outline>
    <contour>
      <point x="244.32038834951456" y="-14.640776699029125" type="curve" smooth="yes"/>
      <point x="432.80582524271847" y="-14.640776699029125"/>
      <point x="513.7864077669904" y="45.69902912621359"/>
      <point x="539.1067961165048" y="166.62135922330097" type="curve" smooth="yes"/>
      <point x="561.4466019417475" y="271.66019417475735"/>
      <point x="499.02912621359224" y="331.378640776699"/>
      <point x="438.0291262135922" y="350.3592233009708" type="curve"/>
      <point x="440.68932038834953" y="364.6601941747573" type="line"/>
      <point x="512.0679611650486" y="378.0"/>
      <point x="571.4271844660194" y="409.0582524271844"/>
      <point x="589.4271844660194" y="494.71844660194176" type="curve" smooth="yes"/>
      <point x="613.0873786407766" y="606.6990291262136"/>
      <point x="523.1456310679612" y="704.3009708737865"/>
      <point x="356.6796116504854" y="704.3009708737865" type="curve" smooth="yes"/>
      <point x="311.3592233009709" y="704.3009708737865"/>
      <point x="201.00000000000003" y="675.9029126213592"/>
      <point x="127.75728155339807" y="657.9029126213593" type="curve"/>
      <point x="104.85436893203884" y="466.88349514563106" type="line"/>
      <point x="176.27184466019415" y="497.2427184466019"/>
      <point x="294.83495145631065" y="543.1844660194175"/>
      <point x="310.2135922330097" y="543.1844660194175" type="curve"/>
      <point x="367.40776699029124" y="539.8640776699029"/>
      <point x="394.22330097087377" y="514.4077669902914"/>
      <point x="384.84466019417476" y="469.21359223300976" type="curve" smooth="yes"/>
      <point x="375.80582524271847" y="427.378640776699"/>
      <point x="341.97087378640776" y="413.9029126213592"/>
      <point x="272.94174757281553" y="411.24271844660194" type="curve"/>
      <point x="244.66019417475727" y="413.9029126213592"/>
      <point x="217.35922330097088" y="416.5631067961165"/>
      <point x="190.41747572815535" y="418.88349514563106" type="curve"/>
      <point x="159.49514563106797" y="272.9320388349514" type="line"/>
      <point x="191.75728155339806" y="275.25242718446606"/>
      <point x="220.05825242718447" y="277.25242718446606"/>
      <point x="252.32038834951453" y="279.5728155339806" type="curve"/>
      <point x="321.6893203883495" y="277.25242718446606"/>
      <point x="356.5242718446602" y="251.378640776699"/>
      <point x="347.126213592233" y="205.7864077669903" type="curve" smooth="yes"/>
      <point x="338.747572815534" y="166.252427184466"/>
      <point x="308.9514563106796" y="148.79611650485433"/>
      <point x="246.64077669902906" y="146.13592233009706" type="curve"/>
      <point x="226.84466019417474" y="146.13592233009706"/>
      <point x="109.67961165048544" y="189.4174757281553"/>
      <point x="38.94174757281553" y="218.1359223300971" type="curve"/>
      <point x="-10.242718446601932" y="42.73786407766991" type="line"/>
      <point x="60.81553398058253" y="22.019417475728154"/>
      <point x="201.28155339805826" y="-14.640776699029125"/>
    </contour>
  </outline>
</glyph>
<glyph name="five" format="2">
  <advance width="588.5825242718446"/>
  <unicode hex="0035"/>
  <outline>
    <contour>
      <point x="239.3203883495146" y="-14.640776699029125" type="curve" smooth="yes"/>
      <point x="427.7864077669903" y="-14.640776699029125"/>
      <point x="514.8058252427185" y="61.32038834951455"/>
      <point x="542.1650485436893" y="193.7572815533981" type="curve" smooth="yes"/>
      <point x="571.8446601941748" y="339.11650485436894"/>
      <point x="489.44660194174753" y="436.7766990291262"/>
      <point x="378.7281553398058" y="436.7766990291262" type="curve" smooth="yes"/>
      <point x="355.31067961165047" y="436.7766990291262"/>
      <point x="316.95145631067953" y="426.4174757281554"/>
      <point x="284.9320388349514" y="413.0776699029126" type="curve"/>
      <point x="270.9708737864077" y="413.0776699029126" type="line"/>
      <point x="277.6504854368931" y="443.4757281553398" type="line"/>
      <point x="292.9708737864077" y="491.53398058252424"/>
      <point x="306.631067961165" y="537.2912621359224"/>
      <point x="321.2912621359223" y="585.0291262135922" type="curve"/>
      <point x="247.4660194174757" y="525.2233009708738" type="line"/>
      <point x="345.82524271844665" y="525.2233009708738" type="line"/>
      <point x="420.8446601941747" y="519.242718446602"/>
      <point x="499.86407766990294" y="513.26213592233"/>
      <point x="575.2233009708738" y="507.28155339805824" type="curve"/>
      <point x="613.0873786407767" y="688.9805825242718" type="line"/>
      <point x="146.83495145631068" y="688.9805825242718" type="line"/>
      <point x="133.83495145631062" y="604.0388349514562"/>
      <point x="117.83495145631066" y="509.0970873786408"/>
      <point x="101.49514563106796" y="408.49514563106794" type="curve"/>
      <point x="76.5145631067961" y="288.9126213592233" type="line"/>
      <point x="157.5631067961165" y="282.93203883495147" type="line"/>
      <point x="186.05825242718444" y="296.0291262135923"/>
      <point x="231.4951456310679" y="308.0679611650486"/>
      <point x="263.87378640776694" y="308.0679611650486" type="curve"/>
      <point x="326.04854368932035" y="305.4077669902913"/>
      <point x="358.92233009708735" y="275.25242718446606"/>
      <point x="348.1844660194174" y="220.90291262135923" type="curve" smooth="yes"/>
      <point x="337.7864077669903" y="167.93203883495144"/>
      <point x="299.6116504854368" y="148.79611650485433"/>
      <point x="239.98058252427182" y="146.13592233009706" type="curve"/>
      <point x="220.1844660194175" y="146.13592233009706"/>
      <point x="107.67961165048546" y="189.4174757281553"/>
      <point x="38.94174757281553" y="218.1359223300971" type="curve"/>
      <point x="-10.242718446601932" y="42.73786407766991" type="line"/>
      <point x="59.47572815533981" y="22.019417475728154"/>
      <point x="197.28155339805824" y="-14.640776699029125"/>
    </contour>
  </outline>
</glyph>
<glyph name="seven" format="2">
  <advance width="561.578947368421"/>
  <unicode hex="0037"/>
  <outline>
    <contour>
      <point x="20.868421052631586" y="0.0" type="curve"/>
      <point x="266.81578947368416" y="0.0" type="line"/>
      <point x="306.6842105263158" y="73.76315789473685"/>
      <point x="344.10526315789474" y="146.07894736842104"/>
      <point x="383.7894736842106" y="219.47368421052633" type="curve"/>
      <point x="462.39473684210526" y="344.2631578947368" type="line"/>
      <point x="507.7105263157895" y="412.86842105263156"/>
      <point x="549.6578947368422" y="475.92105263157896"/>
      <point x="594.4210526315788" y="543.7894736842105" type="curve"/>
      <point x="624.8947368421052" y="688.8947368421053" type="line"/>
      <point x="117.0" y="688.8947368421053" type="line"/>
      <point x="78.1842105263158" y="504.1578947368422" type="line"/>
      <point x="152.5" y="510.86842105263156"/>
      <point x="227.6315789473684" y="518.3947368421053"/>
      <point x="301.9473684210526" y="525.1052631578948" type="curve"/>
      <point x="424.84210526315786" y="525.1052631578948" type="line"/>
      <point x="373.6052631578948" y="562.0263157894736" type="line"/>
      <point x="348.84210526315786" y="517.0"/>
      <point x="323.63157894736844" y="471.3421052631579"/>
      <point x="299.2368421052631" y="426.3157894736842" type="curve"/>
      <point x="181.42105263157896" y="242.39473684210526" type="line"/>
      <point x="128.8421052631579" y="162.44736842105263"/>
      <point x="74.44736842105264" y="81.13157894736841"/>
    </contour>
  </outline>
</glyph>
<glyph name="eight" format="2">
  <advance width="624.8834951456311"/>
  <unicode hex="0038"/>
  <outline>
    <contour>
      <point x="292.26213592233006" y="-14.640776699029125" type="curve" smooth="yes"/>
      <point x="467.78640776699024" y="-14.640776699029125"/>
      <point x="550.4466019417475" y="51.6990291262136"/>
      <point x="575.1067961165048" y="166.0" type="curve" smooth="yes"/>
      <point x="599.4466019417475" y="278.3592233009708"/>
      <point x="537.7087378640778" y="334.7378640776699"/>
      <point x="477.40776699029135" y="356.378640776699" type="curve"/>
      <point x="480.0679611650486" y="370.3398058252427" type="line"/>
      <point x="555.6893203883495" y="381.0194174757282"/>
      <point x="611.0679611650486" y="417.71844660194176"/>
      <point x="627.0679611650486" y="495.0582524271844" type="curve" smooth="yes"/>
      <point x="650.7281553398059" y="609.0194174757282"/>
      <point x="559.7864077669902" y="704.3009708737865"/>
      <point x="377.6407766990291" y="704.3009708737865" type="curve" smooth="yes"/>
      <point x="237.0970873786408" y="704.3009708737865"/>
      <point x="135.4757281553398" y="653.9805825242719"/>
      <point x="113.81553398058253" y="550.019417475728" type="curve" smooth="yes"/>
      <point x="95.81553398058253" y="464.6796116504854"/>
      <point x="142.1747572815534" y="405.32038834951453"/>
      <point x="199.4757281553398" y="387.9805825242718" type="curve"/>
      <point x="196.81553398058253" y="374.0194174757281" type="line"/>
      <point x="127.19417475728154" y="362.3592233009708"/>
      <point x="49.11650485436893" y="329.3398058252427"/>
      <point x="26.776699029126213" y="224.64077669902912" type="curve" smooth="yes"/>
      <point x="0.4563106796116503" y="102.01941747572818"/>
      <point x="75.41747572815535" y="-14.640776699029125"/>
    </contour>
    <contour>
      <point x="299.5631067961165" y="142.51456310679612" type="curve"/>
      <point x="236.45631067961162" y="145.51456310679612"/>
      <point x="210.37864077669903" y="183.3883495145631"/>
      <point x="219.75728155339806" y="225.28155339805826" type="curve" smooth="yes"/>
      <point x="229.8155339805825" y="270.57281553398053"/>
      <point x="266.7087378640777" y="284.9514563106796"/>
      <point x="314.6796116504855" y="288.6116504854369" type="curve"/>
      <point x="365.97087378640776" y="284.2912621359223"/>
      <point x="401.1650485436893" y="255.13592233009706"/>
      <point x="391.7669902912621" y="207.50485436893203" type="curve" smooth="yes"/>
      <point x="383.38834951456306" y="166.29126213592232"/>
      <point x="353.8932038834951" y="145.51456310679612"/>
    </contour>
    <contour>
      <point x="356.24271844660194" y="419.58252427184465" type="curve"/>
      <point x="308.9320388349514" y="422.9029126213593"/>
      <point x="281.15533980582524" y="455.71844660194176"/>
      <point x="290.1941747572816" y="496.2330097087379" type="curve" smooth="yes"/>
      <point x="299.8932038834952" y="539.7087378640778"/>
      <point x="332.72815533980577" y="551.1067961165049"/>
      <point x="371.32038834951453" y="555.4271844660194" type="curve"/>
      <point x="417.9708737864078" y="551.1067961165049"/>
      <point x="447.7864077669903" y="525.990291262136"/>
      <point x="438.747572815534" y="480.47572815533977" type="curve" smooth="yes"/>
      <point x="431.0485436893204" y="441.0"/>
      <point x="399.5533980582524" y="422.9029126213593"/>
    </contour>
  </outline>
</glyph>
<glyph name="less" format="2">
  <advance width="584.4736842105264"/>
  <unicode hex="003C"/>
  <outline>
    <contour>
      <point x="493.52631578947364" y="34.60526315789474" type="curve"/>
      <point x="531.7105263157894" y="212.55263157894734" type="line"/>
      <point x="481.9210526315789" y="228.60526315789474"/>
      <point x="431.2894736842105" y="245.39473684210526"/>
      <point x="381.13157894736844" y="261.63157894736844" type="curve"/>
      <point x="302.92105263157896" y="292.07894736842104" type="line"/>
      <point x="305.7368421052632" y="306.2368421052632" type="line"/>
      <point x="395.7105263157895" y="335.0526315789474" type="line"/>
      <point x="452.7105263157895" y="350.4736842105263"/>
      <point x="511.1842105263158" y="367.2631578947369"/>
      <point x="567.8157894736843" y="382.5" type="curve"/>
      <point x="608.4473684210526" y="577.8684210526316" type="line"/>
      <point x="529.1315789473686" y="547.6052631578948"/>
      <point x="456.7105263157895" y="519.9736842105264"/>
      <point x="392.2894736842105" y="495.5263157894737" type="curve"/>
      <point x="289.8157894736842" y="460.3157894736842" type="line"/>
      <point x="226.57894736842104" y="440.94736842105266"/>
      <point x="153.3421052631579" y="418.39473684210526"/>
      <point x="76.6578947368421" y="395.2105263157895" type="curve"/>
      <point x="38.473684210526315" y="217.26315789473685" type="line"/>
      <point x="105.15789473684211" y="194.07894736842104"/>
      <point x="169.21052631578948" y="171.52631578947367"/>
      <point x="224.07894736842104" y="152.1578947368421" type="curve"/>
      <point x="311.8157894736842" y="116.94736842105263" type="line"/>
      <point x="365.42105263157896" y="92.5"/>
      <point x="426.2105263157894" y="64.6842105263158"/>
    </contour>
  </outline>
</glyph>
<glyph name="equal" format="2">
  <advance width="584.4736842105264"/>
  <unicode hex="003D"/>
  <outline>
    <contour>
      <point x="20.736842105263165" y="93.86842105263159" type="line"/>
      <point x="93.42105263157893" y="96.50000000000001"/>
      <point x="168.57894736842107" y="99.13157894736842"/>
      <point x="221.5263157894737" y="100.76315789473685" type="curve"/>
      <point x="300.3157894736842" y="100.76315789473685" type="line"/>
      <point x="353.2631578947368" y="99.13157894736842"/>
      <point x="426.7894736842105" y="96.50000000000001"/>
      <point x="497.84210526315786" y="93.86842105263159" type="curve"/>
      <point x="535.0263157894736" y="268.1842105263158" type="line"/>
      <point x="463.15789473684214" y="265.5526315789474"/>
      <point x="387.8157894736842" y="262.92105263157896"/>
      <point x="334.8684210526316" y="261.2894736842105" type="curve"/>
      <point x="256.07894736842104" y="261.2894736842105" type="line"/>
      <point x="203.13157894736844" y="262.92105263157896"/>
      <point x="129.78947368421052" y="265.5526315789474"/>
      <point x="57.92105263157895" y="268.1842105263158" type="curve"/>
    </contour>
    <contour>
      <point x="73.5263157894737" y="344.65789473684214" type="line"/>
      <point x="146.21052631578948" y="347.2894736842105"/>
      <point x="221.3684210526316" y="349.92105263157896"/>
      <point x="274.3157894736842" y="351.5526315789474" type="curve"/>
      <point x="353.10526315789474" y="351.5526315789474" type="line"/>
      <point x="406.05263157894734" y="349.92105263157896"/>
      <point x="479.57894736842104" y="347.2894736842105"/>
      <point x="550.6315789473684" y="344.65789473684214" type="curve"/>
      <point x="587.8157894736842" y="518.9736842105264" type="line"/>
      <point x="515.9473684210526" y="516.3421052631578"/>
      <point x="440.60526315789474" y="513.7105263157895"/>
      <point x="387.65789473684214" y="512.078947368421" type="curve"/>
      <point x="308.8684210526316" y="512.078947368421" type="line"/>
      <point x="255.92105263157896" y="513.7105263157895"/>
      <point x="182.57894736842107" y="516.3421052631578"/>
      <point x="110.71052631578947" y="518.9736842105264" type="curve"/>
    </contour>
  </outline>
</glyph>
<glyph name="greater" format="2">
  <advance width="584.4736842105264"/>
  <unicode hex="003E"/>
  <outline>
    <contour>
      <point x="0.10526315789473828" y="34.60526315789474" type="line"/>
      <point x="79.42105263157895" y="64.86842105263158"/>
      <point x="151.8421052631579" y="92.5"/>
      <point x="216.26315789473685" y="116.94736842105263" type="curve"/>
      <point x="318.7368421052631" y="152.1578947368421" type="line"/>
      <point x="381.9736842105263" y="171.52631578947367"/>
      <point x="455.2105263157894" y="194.07894736842104"/>
      <point x="531.8947368421053" y="217.26315789473685" type="curve"/>
      <point x="570.0789473684209" y="395.2105263157895" type="line"/>
      <point x="503.39473684210526" y="418.39473684210526"/>
      <point x="439.3421052631579" y="440.94736842105266"/>
      <point x="384.4736842105263" y="460.3157894736842" type="curve"/>
      <point x="296.7368421052631" y="495.5263157894737" type="line"/>
      <point x="243.1315789473684" y="519.9736842105262"/>
      <point x="182.34210526315792" y="547.7894736842106"/>
      <point x="115.02631578947368" y="577.8684210526316" type="curve"/>
      <point x="76.8421052631579" y="399.92105263157896" type="line"/>
      <point x="126.63157894736841" y="383.8684210526316"/>
      <point x="177.26315789473685" y="367.07894736842104"/>
      <point x="227.42105263157896" y="350.8421052631579" type="curve"/>
      <point x="305.63157894736844" y="320.39473684210526" type="line"/>
      <point x="302.8157894736842" y="306.2368421052631" type="line"/>
      <point x="212.8421052631579" y="277.42105263157896" type="line"/>
      <point x="155.8421052631579" y="262.0"/>
      <point x="97.36842105263158" y="245.21052631578948"/>
      <point x="40.73684210526316" y="229.97368421052627" type="curve"/>
    </contour>
  </outline>
</glyph>
<glyph name="at" format="2">
  <advance width="897.0263157894736"/>
  <unicode hex="0040"/>
  <outline>
    <contour>
      <point x="488.31578947368416" y="-150.55263157894737" type="curve" smooth="yes"/>
      <point x="553.9473684210526" y="-150.55263157894737"/>
      <point x="678.4999999999999" y="-111.26315789473686"/>
      <point x="771.9473684210526" y="-85.9736842105263" type="curve"/>
      <point x="771.9473684210526" y="35.05263157894737" type="line"/>
      <point x="651.1578947368421" y="-11.026315789473685"/>
      <point x="526.2631578947369" y="-44.131578947368425"/>
      <point x="488.31578947368416" y="-46.94736842105263" type="curve"/>
      <point x="230.68421052631578" y="-42.31578947368421"/>
      <point x="114.10526315789474" y="118.63157894736842"/>
      <point x="162.3684210526316" y="337.07894736842104" type="curve" smooth="yes"/>
      <point x="196.57894736842107" y="493.2368421052631"/>
      <point x="301.1578947368421" y="598.2631578947369"/>
      <point x="483.31578947368416" y="602.8947368421053" type="curve"/>
      <point x="680.5789473684209" y="598.2631578947369"/>
      <point x="791.8947368421052" y="478.6578947368421"/>
      <point x="756.1578947368421" y="279.8157894736842" type="curve" smooth="yes"/>
      <point x="752.2368421052631" y="258.2105263157895"/>
      <point x="693.2105263157895" y="180.28947368421052"/>
      <point x="662.4736842105264" y="168.8684210526316" type="curve"/>
      <point x="625.2368421052632" y="172.68421052631578"/>
      <point x="613.4736842105262" y="195.9736842105263"/>
      <point x="630.5526315789474" y="277.2894736842105" type="curve"/>
      <point x="643.1578947368421" y="336.7631578947368" type="line"/>
      <point x="659.6842105263157" y="387.6315789473685"/>
      <point x="676.7631578947369" y="439.7105263157894"/>
      <point x="693.6578947368421" y="487.7894736842105" type="curve"/>
      <point x="549.078947368421" y="480.7105263157895" type="line"/>
      <point x="531.6315789473684" y="432.6842105263158" type="line"/>
      <point x="520.1052631578948" y="432.6842105263158" type="line"/>
      <point x="485.9210526315789" y="468.2105263157895"/>
      <point x="442.6842105263157" y="492.9736842105263"/>
      <point x="414.81578947368416" y="492.9736842105263" type="curve" smooth="yes"/>
      <point x="322.4473684210526" y="492.9736842105263"/>
      <point x="259.05263157894734" y="410.10526315789474"/>
      <point x="239.1315789473684" y="311.42105263157896" type="curve" smooth="yes"/>
      <point x="213.31578947368422" y="182.81578947368422"/>
      <point x="269.10526315789474" y="68.10526315789474"/>
      <point x="378.6842105263158" y="68.10526315789474" type="curve" smooth="yes"/>
      <point x="401.2631578947368" y="68.10526315789474"/>
      <point x="445.3947368421052" y="94.39473684210527"/>
      <point x="492.84210526315786" y="128.68421052631578" type="curve"/>
      <point x="503.55263157894734" y="128.68421052631578" type="line"/>
      <point x="525.2368421052631" y="91.76315789473685"/>
      <point x="582.2368421052631" y="59.73684210526316"/>
      <point x="669.4736842105262" y="59.73684210526316" type="curve" smooth="yes"/>
      <point x="713.4473684210526" y="59.73684210526316"/>
      <point x="850.0263157894738" y="175.5526315789474"/>
      <point x="866.1052631578947" y="257.5" type="curve" smooth="yes"/>
      <point x="914.8157894736842" y="506.5263157894737"/>
      <point x="750.0526315789473" y="706.5"/>
      <point x="485.1315789473684" y="706.5" type="curve" smooth="yes"/>
      <point x="288.60526315789474" y="706.5"/>
      <point x="103.76315789473685" y="600.6052631578947"/>
      <point x="53.05263157894736" y="361.4736842105263" type="curve" smooth="yes"/>
      <point x="-5.3684210526315805" y="87.42105263157895"/>
      <point x="158.0263157894737" y="-150.55263157894737"/>
    </contour>
    <contour>
      <point x="424.2894736842105" y="196.81578947368422" type="curve"/>
      <point x="388.55263157894734" y="198.81578947368422"/>
      <point x="372.7631578947368" y="240.21052631578948"/>
      <point x="381.8947368421052" y="284.7631578947368" type="curve" smooth="yes"/>
      <point x="391.1052631578947" y="328.89473684210526"/>
      <point x="416.36842105263156" y="358.8157894736842"/>
      <point x="453.52631578947364" y="361.63157894736844" type="curve"/>
      <point x="470.31578947368416" y="359.0"/>
      <point x="486.5263157894737" y="350.02631578947364"/>
      <point x="497.9736842105263" y="339.0526315789474" type="curve"/>
      <point x="474.7368421052631" y="230.71052631578948" type="line"/>
      <point x="458.7368421052631" y="210.1578947368421"/>
      <point x="440.7894736842105" y="201.26315789473685"/>
    </contour>
  </outline>
</glyph>
<glyph name="A" format="2">
  <advance width="737.3421052631579"/>
  <unicode hex="0041"/>
  <anchor x="316.2631578947368" y="0.0" name="bottom"/>
  <anchor x="678.4473684210527" y="0.0" name="ogonek"/>
  <anchor x="464.6315789473684" y="713.0" name="top"/>
  <outline>
    <contour>
      <point x="-50.36842105263158" y="0.0" type="curve"/>
      <point x="200.21052631578948" y="0.0" type="line"/>
      <point x="226.2894736842105" y="70.60526315789474"/>
      <point x="255.36842105263156" y="149.28947368421052"/>
      <point x="281.2631578947368" y="219.52631578947367" type="curve"/>
      <point x="425.8157894736842" y="540.7631578947369" type="line"/>
      <point x="439.9736842105263" y="540.7631578947369" type="line"/>
      <point x="454.3157894736842" y="217.71052631578948" type="line"/>
      <point x="452.0" y="148.6578947368421"/>
      <point x="449.2368421052631" y="69.86842105263158"/>
      <point x="446.9210526315789" y="0.0" type="curve"/>
      <point x="683.3421052631579" y="0.0" type="line"/>
      <point x="670.9736842105264" y="73.36842105263158"/>
      <point x="655.7894736842105" y="164.44736842105263"/>
      <point x="643.2368421052631" y="238.92105263157896" type="curve"/>
      <point x="619.1842105263158" y="487.0" type="line"/>
      <point x="617.6052631578948" y="572.6315789473684"/>
      <point x="616.3947368421053" y="638.7368421052632"/>
      <point x="615.1842105263158" y="713.0" type="curve"/>
      <point x="317.07894736842104" y="713.0" type="line"/>
      <point x="283.86842105263156" y="639.0"/>
      <point x="253.84210526315792" y="571.1842105263158"/>
      <point x="216.26315789473685" y="487.1842105263158" type="curve"/>
      <point x="89.84210526315789" y="243.0" type="line"/>
      <point x="45.289473684210535" y="166.1842105263158"/>
      <point x="-5.631578947368423" y="77.1842105263158"/>
    </contour>
    <contour>
      <point x="185.92105263157896" y="132.0263157894737" type="line"/>
      <point x="522.1842105263158" y="132.0263157894737" type="line"/>
      <point x="534.7105263157895" y="284.39473684210526" type="line"/>
      <point x="240.05263157894734" y="284.39473684210526" type="line"/>
    </contour>
  </outline>
</glyph>
<glyph name="B" format="2">
  <advance width="676.4854368932038"/>
  <unicode hex="0042"/>
  <outline>
    <contour>
      <point x="300.5631067961165" y="-7.640776699029126" type="curve"/>
      <point x="551.0291262135923" y="-7.640776699029126"/>
      <point x="611.7281553398058" y="66.01941747572816"/>
      <point x="637.0485436893204" y="185.6019417475728" type="curve" smooth="yes"/>
      <point x="658.3883495145631" y="286.9805825242719"/>
      <point x="605.6699029126213" y="350.9417475728156"/>
      <point x="528.0873786407766" y="372.9417475728155" type="curve"/>
      <point x="531.4077669902912" y="387.2427184466019" type="line"/>
      <point x="611.3883495145631" y="402.28155339805824"/>
      <point x="672.0291262135921" y="431.67961165048547"/>
      <point x="691.6893203883494" y="522.6601941747573" type="curve" smooth="yes"/>
      <point x="712.0291262135921" y="618.3980582524272"/>
      <point x="672.9126213592235" y="718.9805825242718"/>
      <point x="437.32038834951453" y="718.9805825242718" type="curve"/>
      <point x="333.05825242718447" y="718.9805825242718"/>
      <point x="224.89320388349518" y="713.0"/>
      <point x="143.27184466019415" y="713.0" type="curve"/>
      <point x="131.91262135922332" y="635.6601941747573"/>
      <point x="122.89320388349515" y="570.9611650485436"/>
      <point x="109.21359223300972" y="473.6601941747573" type="curve"/>
      <point x="57.55339805825243" y="230.6990291262136" type="line"/>
      <point x="31.912621359223298" y="139.71844660194174"/>
      <point x="14.59223300970874" y="75.69902912621359"/>
      <point x="-6.728155339805824" y="0.0" type="curve"/>
      <point x="68.41747572815535" y="0.0"/>
      <point x="173.6990291262136" y="-7.640776699029126"/>
    </contour>
    <contour>
      <point x="246.71844660194174" y="145.93203883495144" type="line"/>
      <point x="253.7378640776699" y="184.0291262135922"/>
      <point x="260.09708737864077" y="220.46601941747574"/>
      <point x="270.1165048543689" y="275.20388349514565" type="curve"/>
      <point x="302.5145631067961" y="430.15533980582524" type="line"/>
      <point x="316.8543689320388" y="488.19417475728153"/>
      <point x="326.53398058252424" y="527.9320388349515"/>
      <point x="336.8932038834951" y="569.7087378640776" type="curve"/>
      <point x="411.757281553398" y="569.7087378640776" type="line" smooth="yes"/>
      <point x="461.38834951456306" y="569.7087378640776"/>
      <point x="483.5242718446602" y="540.3106796116505"/>
      <point x="473.8252427184466" y="495.13592233009706" type="curve" smooth="yes"/>
      <point x="463.80582524271847" y="449.0194174757282"/>
      <point x="431.29126213592235" y="424.5242718446602"/>
      <point x="378.58252427184465" y="424.5242718446602" type="curve" smooth="yes"/>
      <point x="251.63106796116503" y="424.5242718446602" type="line"/>
      <point x="224.0291262135922" y="291.8349514563107" type="line"/>
      <point x="358.30097087378635" y="291.8349514563107" type="line" smooth="yes"/>
      <point x="413.33009708737865" y="291.8349514563107"/>
      <point x="439.18446601941747" y="262.05825242718447"/>
      <point x="429.4660194174757" y="215.16504854368932" type="curve" smooth="yes"/>
      <point x="419.4271844660194" y="165.66990291262135"/>
      <point x="386.27184466019423" y="145.93203883495144"/>
      <point x="327.7669902912622" y="145.93203883495144" type="curve" smooth="yes"/>
    </contour>
  </outline>
</glyph>
<glyph name="D" format="2">
  <advance width="735.7368421052631"/>
  <unicode hex="0044"/>
  <anchor x="301.2631578947368" y="0.0" name="bottom"/>
  <anchor x="391.05600000000004" y="357.0" name="center"/>
  <anchor x="451.2631578947368" y="713.0" name="top"/>
  <outline>
    <contour>
      <point x="-6.815789473684209" y="0.0" type="curve"/>
      <point x="80.0" y="0.0"/>
      <point x="172.44736842105263" y="-7.526315789473685"/>
      <point x="287.36842105263156" y="-7.526315789473684" type="curve"/>
      <point x="571.2105263157895" y="-7.526315789473684"/>
      <point x="681.2894736842105" y="129.81578947368422"/>
      <point x="722.6578947368421" y="331.36842105263156" type="curve" smooth="yes"/>
      <point x="765.4736842105262" y="541.3421052631579"/>
      <point x="659.2105263157895" y="718.8947368421053"/>
      <point x="435.89473684210526" y="718.8947368421053" type="curve"/>
      <point x="329.84210526315786" y="718.8947368421053"/>
      <point x="220.92105263157896" y="713.0"/>
      <point x="143.18421052631578" y="713.0" type="curve"/>
      <point x="132.07894736842107" y="635.6315789473684"/>
      <point x="122.97368421052629" y="570.9736842105262"/>
      <point x="109.05263157894737" y="473.8157894736842" type="curve"/>
      <point x="57.42105263157895" y="230.6578947368421" type="line"/>
      <point x="31.89473684210527" y="139.57894736842104"/>
      <point x="14.447368421052634" y="75.65789473684211"/>
    </contour>
    <contour>
      <point x="253.99999999999997" y="163.1578947368421" type="line"/>
      <point x="259.6578947368421" y="196.89473684210526"/>
      <point x="266.9473684210526" y="235.42105263157896"/>
      <point x="275.4210526315789" y="284.5" type="curve"/>
      <point x="305.02631578947364" y="424.42105263157896" type="line"/>
      <point x="317.9473684210526" y="475.9473684210526"/>
      <point x="327.05263157894734" y="512.0263157894738"/>
      <point x="337.15789473684214" y="549.8421052631579" type="curve"/>
      <point x="387.10526315789474" y="549.8421052631579" type="line"/>
      <point x="501.81578947368416" y="544.3947368421053"/>
      <point x="534.6842105263158" y="459.0"/>
      <point x="511.1842105263158" y="348.9736842105263" type="curve" smooth="yes"/>
      <point x="488.3157894736842" y="240.36842105263156"/>
      <point x="443.7368421052632" y="169.42105263157896"/>
      <point x="306.3157894736842" y="163.1578947368421" type="curve"/>
    </contour>
  </outline>
</glyph>
<glyph name="E" format="2">
  <advance width="602.2815533980581"/>
  <unicode hex="0045"/>
  <anchor x="256.6990291262136" y="0.0" name="bottom"/>
  <anchor x="500.5631067961166" y="0.0" name="ogonek"/>
  <anchor x="406.6990291262136" y="713.0" name="top"/>
  <anchor x="135.0" y="713.0" name="topleft"/>
  <outline>
    <contour>
      <point x="-6.728155339805823" y="0.0" type="curve"/>
      <point x="226.75728155339803" y="0.0" type="line"/>
      <point x="234.39805825242715" y="33.20388349514563" type="line"/>
      <point x="244.75728155339803" y="108.22330097087378"/>
      <point x="253.77669902912618" y="173.92233009708738"/>
      <point x="266.7961165048543" y="263.90291262135923" type="curve"/>
      <point x="303.51456310679606" y="441.13592233009706" type="line"/>
      <point x="329.81553398058253" y="534.7766990291261"/>
      <point x="348.13592233009706" y="602.1165048543689"/>
      <point x="370.11650485436894" y="679.7961165048544" type="curve"/>
      <point x="376.757281553398" y="713.0" type="line"/>
      <point x="143.27184466019415" y="713.0" type="line"/>
      <point x="131.91262135922332" y="635.6601941747573"/>
      <point x="122.89320388349515" y="570.9611650485436"/>
      <point x="109.21359223300972" y="473.6601941747573" type="curve"/>
      <point x="57.55339805825243" y="230.6990291262136" type="line"/>
      <point x="31.912621359223298" y="139.71844660194174"/>
      <point x="14.59223300970874" y="75.69902912621359"/>
    </contour>
    <contour>
      <point x="188.55339805825238" y="0.0" type="line"/>
      <point x="505.2038834951457" y="0.0" type="line"/>
      <point x="543.747572815534" y="180.07766990291262" type="line"/>
      <point x="480.0291262135922" y="175.09708737864074"/>
      <point x="412.2912621359223" y="169.7766990291262"/>
      <point x="336.5533980582524" y="164.45631067961165" type="curve"/>
      <point x="223.43689320388347" y="164.45631067961165" type="line"/>
    </contour>
    <contour>
      <point x="222.70873786407765" y="283.5728155339806" type="line"/>
      <point x="348.7864077669903" y="283.5728155339806" type="line"/>
      <point x="429.84466019417476" y="279.59223300970876"/>
      <point x="485.54368932038835" y="276.93203883495147"/>
      <point x="544.5825242718446" y="274.6116504854369" type="curve"/>
      <point x="580.1456310679612" y="443.1067961165049" type="line"/>
      <point x="522.4466019417475" y="440.4466019417476"/>
      <point x="465.40776699029124" y="437.126213592233"/>
      <point x="380.36893203883494" y="432.80582524271847" type="curve"/>
      <point x="253.95145631067962" y="432.80582524271847" type="line"/>
    </contour>
    <contour>
      <point x="291.0485436893204" y="548.5436893203884" type="line"/>
      <point x="403.4854368932039" y="548.5436893203884" type="line"/>
      <point x="491.90291262135906" y="541.9029126213593"/>
      <point x="552.6407766990291" y="537.2427184466021"/>
      <point x="612.3592233009707" y="532.9223300970873" type="curve"/>
      <point x="649.9029126213591" y="713.0" type="line"/>
      <point x="325.2718446601942" y="713.0" type="line"/>
    </contour>
  </outline>
</glyph>
<glyph name="F" format="2">
  <advance width="583.2368421052631"/>
  <unicode hex="0046"/>
  <outline>
    <contour>
      <point x="-6.815789473684209" y="0.0" type="curve"/>
      <point x="226.78947368421052" y="0.0" type="line"/>
      <point x="237.89473684210526" y="75.28947368421052"/>
      <point x="245.99999999999997" y="139.84210526315792"/>
      <point x="259.10526315789474" y="230.6578947368421" type="curve"/>
      <point x="303.39473684210526" y="441.0" type="line"/>
      <point x="328.9210526315789" y="534.7105263157895"/>
      <point x="348.99999999999994" y="602.078947368421"/>
      <point x="370.2631578947368" y="679.8157894736842" type="curve"/>
      <point x="376.7894736842105" y="713.0" type="line"/>
      <point x="143.18421052631578" y="713.0" type="line"/>
      <point x="132.07894736842107" y="635.6315789473684"/>
      <point x="122.97368421052629" y="570.9736842105262"/>
      <point x="109.05263157894737" y="473.8157894736842" type="curve"/>
      <point x="57.42105263157895" y="230.6578947368421" type="line"/>
      <point x="31.89473684210527" y="139.57894736842104"/>
      <point x="14.447368421052634" y="75.65789473684211"/>
    </contour>
    <contour>
      <point x="214.1052631578947" y="263.7894736842105" type="line"/>
      <point x="338.31578947368416" y="263.7894736842105" type="line"/>
      <point x="419.2631578947368" y="259.7105263157895"/>
      <point x="474.1052631578947" y="257.07894736842104"/>
      <point x="533.3157894736843" y="254.6315789473684" type="curve"/>
      <point x="572.1315789473684" y="437.2894736842105" type="line"/>
      <point x="514.4736842105262" y="434.6578947368421"/>
      <point x="457.6315789473684" y="431.2105263157894"/>
      <point x="372.4210526315789" y="426.9473684210526" type="curve"/>
      <point x="248.02631578947364" y="426.9473684210526" type="line"/>
    </contour>
    <contour>
      <point x="285.7368421052632" y="542.5" type="line"/>
      <point x="396.2368421052632" y="542.5" type="line"/>
      <point x="485.02631578947364" y="535.7894736842105"/>
      <point x="545.5263157894736" y="531.3421052631579"/>
      <point x="605.1052631578947" y="527.078947368421" type="curve"/>
      <point x="643.921052631579" y="713.0" type="line"/>
      <point x="321.2894736842105" y="713.0" type="line"/>
    </contour>
  </outline>
</glyph>
<glyph name="G" format="2">
  <advance width="724.7631578947368"/>
  <unicode hex="0047"/>
  <anchor x="341.6578947368421" y="0.0" name="bottom"/>
  <anchor x="491.6578947368421" y="713.0" name="top"/>
  <outline>
    <contour>
      <point x="402.8947368421053" y="-13.894736842105264" type="curve" smooth="yes"/>
      <point x="458.6052631578947" y="-13.894736842105264"/>
      <point x="565.8684210526316" y="5.394736842105265"/>
      <point x="635.578947368421" y="17.236842105263158" type="curve"/>
      <point x="639.2894736842105" y="202.26315789473682" type="line"/>
      <point x="561.4736842105264" y="178.78947368421052"/>
      <point x="446.86842105263156" y="148.81578947368422"/>
      <point x="416.13157894736844" y="148.81578947368422" type="curve"/>
      <point x="289.7894736842105" y="152.63157894736844"/>
      <point x="243.3421052631579" y="261.10526315789474"/>
      <point x="267.8421052631579" y="376.6842105263158" type="curve" smooth="yes"/>
      <point x="296.3421052631579" y="511.7105263157894"/>
      <point x="395.8947368421052" y="551.9473684210526"/>
      <point x="468.5" y="554.9473684210526" type="curve"/>
      <point x="489.5263157894736" y="554.9473684210526"/>
      <point x="598.4210526315791" y="523.7631578947368"/>
      <point x="698.421052631579" y="485.21052631578954" type="curve"/>
      <point x="753.6578947368422" y="675.3947368421052" type="line"/>
      <point x="658.8421052631579" y="700.0263157894736"/>
      <point x="520.1315789473683" y="728.2631578947369"/>
      <point x="473.2105263157895" y="728.2631578947369" type="curve" smooth="yes"/>
      <point x="248.63157894736844" y="728.2631578947369"/>
      <point x="107.07894736842105" y="621.421052631579"/>
      <point x="61.26315789473684" y="402.2631578947369" type="curve" smooth="yes"/>
      <point x="15.447368421052632" y="183.73684210526318"/>
      <point x="119.34210526315789" y="-13.894736842105264"/>
    </contour>
    <contour>
      <point x="425.8157894736842" y="17.236842105263158" type="curve"/>
      <point x="635.578947368421" y="17.236842105263158" type="line"/>
      <point x="647.7631578947369" y="91.39473684210526"/>
      <point x="655.9473684210526" y="147.55263157894737"/>
      <point x="665.9473684210526" y="205.71052631578948" type="curve"/>
      <point x="685.6578947368422" y="272.2368421052631"/>
      <point x="701.3684210526318" y="320.7631578947368"/>
      <point x="717.2631578947369" y="375.10526315789474" type="curve"/>
      <point x="492.2631578947369" y="375.10526315789474" type="line"/>
      <point x="486.5263157894737" y="320.7631578947368"/>
      <point x="480.97368421052636" y="272.2368421052631"/>
      <point x="473.2368421052632" y="205.71052631578948" type="curve"/>
      <point x="458.1578947368421" y="147.55263157894737"/>
      <point x="443.8947368421052" y="91.65789473684211"/>
    </contour>
  </outline>
</glyph>
<glyph name="H" format="2">
  <advance width="758.9736842105264"/>
  <unicode hex="0048"/>
  <anchor x="327.07894736842104" y="0.0" name="bottom"/>
  <anchor x="402.07894736842104" y="357.0" name="center"/>
  <anchor x="477.07894736842104" y="713.0" name="top"/>
  <anchor x="138.89473684210523" y="713.0" name="topleft"/>
  <outline>
    <contour>
      <point x="421.65789473684214" y="0.0" type="curve"/>
      <point x="660.1578947368422" y="0.0" type="line"/>
      <point x="670.4473684210527" y="73.6578947368421"/>
      <point x="679.3684210526316" y="138.21052631578948"/>
      <point x="692.4736842105264" y="230.6578947368421" type="curve"/>
      <point x="744.1052631578948" y="473.8157894736842" type="line"/>
      <point x="770.6315789473684" y="570.3421052631579"/>
      <point x="788.8947368421053" y="635.2631578947369"/>
      <point x="810.1578947368422" y="713.0" type="curve"/>
      <point x="571.6578947368422" y="713.0" type="line"/>
      <point x="560.5526315789474" y="635.6315789473684"/>
      <point x="551.4473684210526" y="570.9736842105262"/>
      <point x="537.5263157894738" y="473.8157894736842" type="curve"/>
      <point x="485.89473684210526" y="230.6578947368421" type="line"/>
      <point x="460.3684210526316" y="139.57894736842104"/>
      <point x="442.92105263157896" y="75.65789473684211"/>
    </contour>
    <contour>
      <point x="-6.815789473684209" y="0.0" type="curve"/>
      <point x="231.68421052631575" y="0.0" type="line"/>
      <point x="241.9736842105263" y="73.6578947368421"/>
      <point x="250.89473684210523" y="138.21052631578948"/>
      <point x="263.99999999999994" y="230.6578947368421" type="curve"/>
      <point x="315.6315789473684" y="473.8157894736842" type="line"/>
      <point x="342.1578947368421" y="570.3421052631579"/>
      <point x="360.4210526315789" y="635.2631578947369"/>
      <point x="381.6842105263158" y="713.0" type="curve"/>
      <point x="143.18421052631578" y="713.0" type="line"/>
      <point x="132.07894736842107" y="635.6315789473684"/>
      <point x="122.97368421052629" y="570.9736842105262"/>
      <point x="109.05263157894737" y="473.8157894736842" type="curve"/>
      <point x="57.42105263157895" y="230.6578947368421" type="line"/>
      <point x="31.89473684210527" y="139.57894736842104"/>
      <point x="14.447368421052634" y="75.65789473684211"/>
    </contour>
    <contour>
      <point x="219.5" y="272.7631578947369" type="line"/>
      <point x="550.0263157894738" y="272.7631578947369" type="line"/>
      <point x="586.3947368421053" y="443.2631578947368" type="line"/>
      <point x="255.8684210526316" y="443.2631578947368" type="line"/>
    </contour>
  </outline>
</glyph>
<glyph name="I" format="2">
  <advance width="342.7368421052632"/>
  <unicode hex="0049"/>
  <anchor x="114.78947368421055" y="0.0" name="bottom"/>
  <anchor x="235.76315789473682" y="0.0" name="ogonek"/>
  <anchor x="264.7894736842105" y="713.0" name="top"/>
  <anchor x="129.28947368421052" y="713.0" name="topleft"/>
  <outline>
    <contour>
      <point x="-2.736842105263154" y="0.0" type="curve"/>
      <point x="239.84210526315786" y="0.0" type="line"/>
      <point x="250.13157894736838" y="73.6578947368421"/>
      <point x="259.05263157894734" y="138.21052631578948"/>
      <point x="272.157894736842" y="230.6578947368421" type="curve"/>
      <point x="323.78947368421046" y="473.8157894736842" type="line"/>
      <point x="350.31578947368416" y="570.3421052631579"/>
      <point x="368.578947368421" y="635.2631578947369"/>
      <point x="389.84210526315786" y="713.0" type="curve"/>
      <point x="147.26315789473685" y="713.0" type="line"/>
      <point x="136.15789473684214" y="635.6315789473684"/>
      <point x="127.05263157894736" y="570.9736842105262"/>
      <point x="113.13157894736844" y="473.8157894736842" type="curve"/>
      <point x="61.50000000000001" y="230.6578947368421" type="line"/>
      <point x="35.97368421052632" y="139.57894736842104"/>
      <point x="18.52631578947369" y="75.65789473684211"/>
    </contour>
  </outline>
</glyph>
<glyph name="J" format="2">
  <advance width="341.1578947368421"/>
  <unicode hex="004A"/>
  <anchor x="116.28947368421052" y="0.0" name="bottom"/>
  <anchor x="266.2894736842105" y="713.0" name="top"/>
  <outline>
    <contour>
      <point x="-78.39473684210526" y="-153.47368421052633" type="curve"/>
      <point x="111.63157894736841" y="-153.47368421052633" type="line"/>
      <point x="151.89473684210523" y="-105.55263157894737"/>
      <point x="235.36842105263162" y="5.947368421052632"/>
      <point x="248.9736842105263" y="70.89473684210527" type="curve" smooth="yes"/>
      <point x="267.6052631578948" y="159.31578947368422"/>
      <point x="275.2631578947368" y="253.0"/>
      <point x="295.5263157894737" y="349.31578947368416" type="curve"/>
      <point x="322.2105263157895" y="473.8157894736842" type="line"/>
      <point x="348.7368421052632" y="570.3421052631579"/>
      <point x="367.0" y="635.2631578947369"/>
      <point x="388.2631578947368" y="713.0" type="curve"/>
      <point x="149.76315789473685" y="713.0" type="line"/>
      <point x="138.65789473684214" y="635.6315789473684"/>
      <point x="129.5526315789474" y="570.9736842105262"/>
      <point x="115.63157894736842" y="473.8157894736842" type="curve"/>
      <point x="87.6578947368421" y="343.2368421052631" type="line"/>
      <point x="26.78947368421053" y="71.97368421052632" type="line"/>
      <point x="-11.078947368421058" y="-9.105263157894738"/>
      <point x="-44.368421052631575" y="-81.23684210526316"/>
    </contour>
  </outline>
</glyph>
<glyph name="K" format="2">
  <advance width="718.3421052631579"/>
  <unicode hex="004B"/>
  <anchor x="315.07894736842104" y="0.0" name="bottom"/>
  <anchor x="465.07894736842104" y="713.0" name="top"/>
  <outline>
    <contour>
      <point x="403.68421052631584" y="0.0" type="curve"/>
      <point x="667.6052631578948" y="0.0" type="line"/>
      <point x="632.1842105263156" y="66.3421052631579"/>
      <point x="575.3684210526316" y="173.21052631578948"/>
      <point x="534.0263157894736" y="250.5526315789474" type="curve"/>
      <point x="451.5" y="424.57894736842104" type="line"/>
      <point x="450.2368421052632" y="333.15789473684214" type="line"/>
      <point x="582.5526315789474" y="480.7631578947369" type="line"/>
      <point x="655.5263157894739" y="557.4736842105264"/>
      <point x="727.8684210526317" y="632.7368421052632"/>
      <point x="804.7631578947369" y="713.0" type="curve"/>
      <point x="526.1315789473684" y="713.0" type="line"/>
      <point x="483.3157894736843" y="650.9473684210526"/>
      <point x="452.4736842105263" y="604.921052631579"/>
      <point x="418.1578947368421" y="554.3421052631579" type="curve"/>
      <point x="334.7105263157894" y="451.5263157894737" type="line"/>
      <point x="295.1578947368421" y="451.5263157894737" type="line"/>
      <point x="262.0526315789474" y="291.63157894736844" type="line"/>
      <point x="304.6842105263158" y="291.63157894736844" type="line"/>
      <point x="354.3157894736842" y="163.3684210526316" type="line"/>
      <point x="369.7894736842105" y="113.1578947368421"/>
      <point x="385.0" y="61.76315789473685"/>
    </contour>
    <contour>
      <point x="-6.815789473684209" y="0.0" type="curve"/>
      <point x="230.86842105263162" y="0.0" type="line"/>
      <point x="241.15789473684214" y="73.6578947368421"/>
      <point x="250.07894736842107" y="138.21052631578948"/>
      <point x="263.1842105263158" y="230.6578947368421" type="curve"/>
      <point x="314.8157894736842" y="473.8157894736842" type="line"/>
      <point x="341.3421052631579" y="570.3421052631579"/>
      <point x="359.60526315789474" y="635.2631578947369"/>
      <point x="380.8684210526316" y="713.0" type="curve"/>
      <point x="143.18421052631578" y="713.0" type="line"/>
      <point x="132.07894736842107" y="635.6315789473684"/>
      <point x="122.97368421052629" y="570.9736842105262"/>
      <point x="109.05263157894737" y="473.8157894736842" type="curve"/>
      <point x="57.42105263157895" y="230.6578947368421" type="line"/>
      <point x="31.89473684210527" y="139.57894736842104"/>
      <point x="14.447368421052634" y="75.65789473684211"/>
    </contour>
  </outline>
</glyph>
<glyph name="L" format="2">
  <advance width="576.6052631578948"/>
  <unicode hex="004C"/>
  <anchor x="249.05263157894734" y="0.0" name="bottom"/>
  <anchor x="470.07894736842104" y="359.44736842105266" name="center"/>
  <anchor x="340.36842105263156" y="713.0" name="top"/>
  <anchor x="368.13157894736844" y="500.5263157894737" name="topright"/>
  <outline>
    <contour>
      <point x="-6.815789473684209" y="0.0" type="curve"/>
      <point x="231.68421052631578" y="0.0" type="line"/>
      <point x="239.21052631578945" y="33.368421052631575" type="line"/>
      <point x="243.78947368421052" y="108.65789473684211"/>
      <point x="252.71052631578948" y="173.57894736842107"/>
      <point x="271.52631578947364" y="264.0263157894737" type="curve"/>
      <point x="315.6315789473684" y="473.8157894736842" type="line"/>
      <point x="342.1578947368421" y="570.3421052631579"/>
      <point x="360.4210526315789" y="635.2631578947369"/>
      <point x="381.6842105263158" y="713.0" type="curve"/>
      <point x="143.18421052631578" y="713.0" type="line"/>
      <point x="132.07894736842107" y="635.6315789473684"/>
      <point x="122.97368421052629" y="570.9736842105262"/>
      <point x="109.05263157894737" y="473.8157894736842" type="curve"/>
      <point x="57.42105263157895" y="230.6578947368421" type="line"/>
      <point x="31.89473684210527" y="139.57894736842104"/>
      <point x="14.447368421052634" y="75.65789473684211"/>
    </contour>
    <contour>
      <point x="188.42105263157896" y="0.0" type="line"/>
      <point x="497.2105263157894" y="0.0" type="line"/>
      <point x="539.2894736842105" y="199.78947368421052" type="line"/>
      <point x="470.7894736842105" y="193.07894736842107"/>
      <point x="413.6578947368421" y="188.0"/>
      <point x="315.9473684210526" y="178.6578947368421" type="curve"/>
      <point x="226.42105263157896" y="178.6578947368421" type="line"/>
    </contour>
  </outline>
</glyph>
<glyph name="M" format="2">
  <advance width="967.3157894736843"/>
  <unicode hex="004D"/>
  <anchor x="430.3421052631579" y="0.0" name="bottom"/>
  <anchor x="580.342105263158" y="713.0" name="top"/>
  <outline>
    <contour>
      <point x="-26.578947368421048" y="0.0" type="curve"/>
      <point x="200.05263157894734" y="0.0" type="line"/>
      <point x="219.31578947368425" y="82.63157894736841"/>
      <point x="238.21052631578948" y="160.26315789473685"/>
      <point x="254.18421052631578" y="228.76315789473685" type="curve"/>
      <point x="302.5526315789474" y="373.15789473684214" type="line"/>
      <point x="316.1578947368421" y="373.15789473684214" type="line"/>
      <point x="338.89473684210526" y="218.18421052631578" type="line"/>
      <point x="343.5" y="146.02631578947364"/>
      <point x="347.8421052631579" y="66.65789473684211"/>
      <point x="351.7105263157895" y="0.0" type="curve"/>
      <point x="518.1315789473684" y="0.0" type="line"/>
      <point x="548.7894736842106" y="66.76315789473684"/>
      <point x="583.2105263157896" y="144.02631578947364"/>
      <point x="617.7105263157895" y="218.55263157894737" type="curve"/>
      <point x="696.1578947368421" y="373.15789473684214" type="line"/>
      <point x="709.7631578947369" y="373.15789473684214" type="line"/>
      <point x="696.7368421052631" y="228.76315789473685" type="line"/>
      <point x="683.921052631579" y="160.71052631578948"/>
      <point x="670.1052631578947" y="84.1842105263158"/>
      <point x="655.1052631578948" y="0.0" type="curve"/>
      <point x="888.078947368421" y="0.0" type="line"/>
      <point x="889.3684210526316" y="74.47368421052632"/>
      <point x="890.4736842105264" y="143.8421052631579"/>
      <point x="891.7631578947368" y="230.6578947368421" type="curve"/>
      <point x="911.3157894736843" y="472.1842105263158" type="line"/>
      <point x="923.578947368421" y="558.5526315789474"/>
      <point x="933.8421052631579" y="634.2631578947369"/>
      <point x="944.2894736842106" y="713.0" type="curve"/>
      <point x="704.2368421052631" y="713.0" type="line"/>
      <point x="668.7631578947368" y="638.421052631579"/>
      <point x="639.4736842105264" y="576.2894736842105"/>
      <point x="608.0" y="510.1578947368421" type="curve"/>
      <point x="503.52631578947364" y="317.6842105263158" type="line"/>
      <point x="490.55263157894734" y="317.6842105263158" type="line"/>
      <point x="461.2631578947368" y="510.1578947368421" type="line"/>
      <point x="455.7631578947368" y="576.1052631578948"/>
      <point x="451.07894736842104" y="640.8684210526317"/>
      <point x="445.39473684210526" y="713.0" type="curve"/>
      <point x="212.8684210526316" y="713.0" type="line"/>
      <point x="190.94736842105263" y="634.2631578947369"/>
      <point x="169.57894736842104" y="558.0"/>
      <point x="145.8421052631579" y="472.1842105263158" type="curve"/>
      <point x="65.39473684210526" y="230.6578947368421" type="line"/>
      <point x="31.315789473684216" y="145.28947368421055"/>
      <point x="2.2368421052631597" y="72.84210526315789"/>
    </contour>
  </outline>
</glyph>
<glyph name="O" format="2">
  <advance width="812.4736842105264"/>
  <unicode hex="004F"/>
  <anchor x="353.9210526315789" y="0.0" name="bottom"/>
  <anchor x="428.9210526315789" y="357.0" name="center"/>
  <anchor x="508.0526315789474" y="0.0" name="ogonek"/>
  <anchor x="503.9210526315789" y="713.0" name="top"/>
  <anchor x="121.92105263157895" y="713.0" name="topleft"/>
  <anchor x="792.6315789473684" y="713.0" name="topright"/>
  <outline>
    <contour>
      <point x="400.5526315789474" y="-14.710526315789473" type="curve" smooth="yes"/>
      <point x="617.1052631578947" y="-14.710526315789473"/>
      <point x="754.3947368421053" y="119.36842105263158"/>
      <point x="796.0263157894738" y="313.89473684210526" type="curve" smooth="yes"/>
      <point x="843.8421052631579" y="536.3421052631579"/>
      <point x="721.2894736842105" y="728.2631578947369"/>
      <point x="458.39473684210526" y="728.2631578947369" type="curve" smooth="yes"/>
      <point x="241.10526315789474" y="728.2631578947369"/>
      <point x="103.44736842105263" y="601.8947368421052"/>
      <point x="61.078947368421055" y="401.1578947368421" type="curve" smooth="yes"/>
      <point x="15.078947368421053" y="183.3421052631579"/>
      <point x="128.76315789473685" y="-14.710526315789473"/>
    </contour>
    <contour>
      <point x="403.8157894736842" y="152.89473684210526" type="curve"/>
      <point x="300.60526315789474" y="163.42105263157896"/>
      <point x="244.05263157894737" y="254.5"/>
      <point x="270.10526315789474" y="375.57894736842104" type="curve" smooth="yes"/>
      <point x="293.60526315789474" y="484.4210526315789"/>
      <point x="358.84210526315786" y="551.7631578947368"/>
      <point x="455.94736842105266" y="560.6578947368421" type="curve"/>
      <point x="563.5" y="550.1315789473683"/>
      <point x="610.7894736842105" y="453.9473684210526"/>
      <point x="585.3684210526316" y="335.57894736842104" type="curve" smooth="yes"/>
      <point x="562.1578947368421" y="224.97368421052627"/>
      <point x="496.92105263157896" y="160.1578947368421"/>
    </contour>
  </outline>
</glyph>
<glyph name="P" format="2">
  <advance width="665.4271844660193"/>
  <unicode hex="0050"/>
  <outline>
    <contour>
      <point x="393.06796116504853" y="228.3495145631068" type="curve"/>
      <point x="571.1844660194174" y="228.3495145631068"/>
      <point x="653.0679611650485" y="305.99029126213594"/>
      <point x="683.7087378640775" y="453.55339805825247" type="curve" smooth="yes"/>
      <point x="721.6504854368932" y="634.3009708737865"/>
      <point x="633.7475728155338" y="718.9805825242718"/>
      <point x="454.5242718446602" y="718.9805825242718" type="curve"/>
      <point x="321.0194174757282" y="716.3203883495145"/>
      <point x="217.85436893203885" y="714.6601941747573"/>
      <point x="143.27184466019415" y="713.0" type="curve"/>
      <point x="314.6116504854369" y="555.1844660194174" type="line"/>
      <point x="412.3592233009708" y="555.1844660194174" type="line" smooth="yes"/>
      <point x="455.2135922330097" y="555.1844660194174"/>
      <point x="489.2038834951456" y="526.2038834951456"/>
      <point x="475.4660194174757" y="461.5339805825243" type="curve" smooth="yes"/>
      <point x="462.74757281553394" y="401.30097087378647"/>
      <point x="436.25242718446606" y="380.24271844660194"/>
      <point x="374.504854368932" y="380.24271844660194" type="curve" smooth="yes"/>
      <point x="267.21359223300965" y="380.24271844660194" type="line"/>
      <point x="235.97087378640776" y="231.00970873786406" type="line"/>
      <point x="275.31067961165047" y="230.34951456310677"/>
      <point x="343.72815533980577" y="229.3495145631068"/>
    </contour>
    <contour>
      <point x="-6.728155339805823" y="0.0" type="curve"/>
      <point x="227.75728155339806" y="0.0" type="line"/>
      <point x="239.1165048543689" y="75.35922330097087"/>
      <point x="247.13592233009706" y="140.37864077669906"/>
      <point x="260.15533980582524" y="230.6990291262136" type="curve"/>
      <point x="304.51456310679606" y="441.13592233009706" type="line"/>
      <point x="330.1553398058252" y="534.7766990291261"/>
      <point x="350.1359223300971" y="602.1165048543689"/>
      <point x="371.45631067961165" y="679.7961165048544" type="curve"/>
      <point x="143.27184466019415" y="713.0" type="line"/>
      <point x="131.91262135922332" y="635.6601941747573"/>
      <point x="122.89320388349515" y="570.9611650485436"/>
      <point x="109.21359223300972" y="473.6601941747573" type="curve"/>
      <point x="57.55339805825243" y="230.6990291262136" type="line"/>
      <point x="31.912621359223298" y="139.71844660194174"/>
      <point x="14.592233009708744" y="75.69902912621359"/>
    </contour>
  </outline>
</glyph>
<glyph name="R" format="2">
  <advance width="709.1067961165048"/>
  <unicode hex="0052"/>
  <anchor x="302.2233009708738" y="0.0" name="bottom"/>
  <anchor x="435.7184466019417" y="713.0" name="top"/>
  <outline>
    <contour>
      <point x="398.8640776699029" y="0.0" type="curve"/>
      <point x="656.9514563106796" y="0.0" type="line"/>
      <point x="630.8932038834952" y="55.33980582524272"/>
      <point x="590.1553398058252" y="142.64077669902912"/>
      <point x="558.757281553398" y="209.3009708737864" type="curve"/>
      <point x="500.2621359223301" y="353.9417475728156" type="line"/>
      <point x="404.9902912621359" y="286.41747572815535" type="line"/>
      <point x="576.4466019417474" y="286.0776699029126"/>
      <point x="659.6699029126212" y="344.53398058252424"/>
      <point x="686.9902912621359" y="473.15533980582524" type="curve" smooth="yes"/>
      <point x="721.6116504854368" y="635.6213592233009"/>
      <point x="629.7281553398058" y="718.9805825242718"/>
      <point x="448.84466019417476" y="718.9805825242718" type="curve"/>
      <point x="345.2038834951456" y="717.3203883495145"/>
      <point x="226.15533980582526" y="714.6601941747573"/>
      <point x="143.27184466019418" y="713.0" type="curve"/>
      <point x="264.50485436893194" y="555.8446601941747" type="line"/>
      <point x="407.6796116504854" y="555.8446601941747" type="line" smooth="yes"/>
      <point x="451.19417475728153" y="555.8446601941747"/>
      <point x="484.84466019417476" y="530.2038834951456"/>
      <point x="472.1067961165049" y="470.19417475728164" type="curve" smooth="yes"/>
      <point x="458.04854368932035" y="404.9223300970874"/>
      <point x="424.9126213592233" y="389.50485436893206"/>
      <point x="371.12621359223306" y="389.50485436893206" type="curve" smooth="yes"/>
      <point x="255.91262135922327" y="389.50485436893206" type="line"/>
      <point x="227.97087378640776" y="256.77669902912623" type="line"/>
      <point x="402.93203883495147" y="256.77669902912623" type="line"/>
      <point x="298.32038834951453" y="344.94174757281553" type="line"/>
      <point x="363.1941747572816" y="148.1359223300971" type="line"/>
      <point x="373.97087378640776" y="103.73786407766991"/>
      <point x="385.74757281553406" y="57.019417475728154"/>
    </contour>
    <contour>
      <point x="-6.728155339805823" y="0.0" type="curve"/>
      <point x="228.0970873786408" y="0.0" type="line"/>
      <point x="239.11650485436894" y="75.35922330097087"/>
      <point x="247.13592233009703" y="139.69902912621362"/>
      <point x="260.15533980582524" y="230.6990291262136" type="curve"/>
      <point x="304.5145631067961" y="441.13592233009706" type="line"/>
      <point x="330.15533980582524" y="534.7766990291261"/>
      <point x="350.1359223300971" y="602.1165048543689"/>
      <point x="371.45631067961165" y="679.7961165048544" type="curve"/>
      <point x="143.27184466019415" y="713.0" type="line"/>
      <point x="131.91262135922332" y="635.6601941747573"/>
      <point x="122.89320388349515" y="570.9611650485436"/>
      <point x="109.21359223300972" y="473.6601941747573" type="curve"/>
      <point x="57.55339805825243" y="230.6990291262136" type="line"/>
      <point x="31.912621359223298" y="139.71844660194174"/>
      <point x="14.592233009708744" y="75.69902912621359"/>
    </contour>
  </outline>
</glyph>
<glyph name="S" format="2">
  <advance width="608.5242718446602"/>
  <unicode hex="0053"/>
  <anchor x="252.2815533980583" y="0.0" name="bottom"/>
  <anchor x="402.2815533980583" y="713.0" name="top"/>
  <outline>
    <contour>
      <point x="277.621359223301" y="-14.640776699029125" type="curve" smooth="yes"/>
      <point x="459.4660194174757" y="-14.640776699029125"/>
      <point x="541.7669902912621" y="42.71844660194175"/>
      <point x="571.0679611650485" y="182.56310679611653" type="curve" smooth="yes"/>
      <point x="594.0485436893204" y="291.80582524271847"/>
      <point x="551.7281553398058" y="357.84466019417476"/>
      <point x="401.68932038834953" y="418.54368932038835" type="curve" smooth="yes"/>
      <point x="323.75728155339806" y="450.6601941747573"/>
      <point x="297.0194174757281" y="478.71844660194176"/>
      <point x="304.7378640776699" y="515.9514563106796" type="curve" smooth="yes"/>
      <point x="312.1165048543689" y="551.1650485436894"/>
      <point x="348.02912621359224" y="561.2038834951456"/>
      <point x="384.92233009708735" y="563.2038834951456" type="curve"/>
      <point x="402.94174757281564" y="563.2038834951456"/>
      <point x="495.9223300970873" y="533.2038834951455"/>
      <point x="584.2233009708737" y="498.54368932038835" type="curve"/>
      <point x="636.0485436893205" y="678.6019417475728" type="line"/>
      <point x="555.1650485436893" y="697.601941747573"/>
      <point x="428.24271844660194" y="728.3203883495146"/>
      <point x="365.33980582524276" y="728.3203883495146" type="curve" smooth="yes"/>
      <point x="197.49514563106794" y="728.3203883495146"/>
      <point x="117.81553398058253" y="664.3592233009709"/>
      <point x="92.1747572815534" y="540.1553398058253" type="curve" smooth="yes"/>
      <point x="64.873786407767" y="408.33009708737865"/>
      <point x="129.15533980582526" y="344.2718446601942"/>
      <point x="246.6116504854369" y="296.873786407767" type="curve" smooth="yes"/>
      <point x="322.8058252427184" y="266.1165048543689"/>
      <point x="366.22330097087377" y="239.37864077669906"/>
      <point x="357.8446601941747" y="199.48543689320388" type="curve" smooth="yes"/>
      <point x="349.78640776699024" y="160.5145631067961"/>
      <point x="317.85436893203877" y="149.49514563106797"/>
      <point x="275.32038834951453" y="147.49514563106794" type="curve"/>
      <point x="251.2038834951456" y="147.49514563106794"/>
      <point x="149.30097087378638" y="181.1553398058252"/>
      <point x="49.99999999999999" y="220.83495145631068" type="curve"/>
      <point x="0.47572815533980495" y="45.077669902912625" type="line"/>
      <point x="100.07766990291262" y="15.718446601941753"/>
      <point x="223.3009708737864" y="-14.640776699029125"/>
    </contour>
  </outline>
</glyph>
<glyph name="T" format="2">
  <advance width="648.421052631579"/>
  <unicode hex="0054"/>
  <anchor x="272.89473684210526" y="0.0" name="bottom"/>
  <anchor x="337.2894736842105" y="309.6842105263158" name="center"/>
  <anchor x="422.89473684210526" y="713.0" name="top"/>
  <outline>
    <contour>
      <point x="152.92105263157896" y="0.0" type="curve"/>
      <point x="390.6052631578947" y="0.0" type="line"/>
      <point x="400.89473684210526" y="73.6578947368421"/>
      <point x="409.8157894736842" y="138.21052631578948"/>
      <point x="422.92105263157896" y="230.6578947368421" type="curve"/>
      <point x="468.0263157894737" y="441.0" type="line"/>
      <point x="488.02631578947364" y="535.078947368421"/>
      <point x="507.92105263157896" y="602.078947368421"/>
      <point x="534.8947368421053" y="679.8157894736842" type="curve"/>
      <point x="541.421052631579" y="713.0" type="line"/>
      <point x="303.7368421052632" y="713.0" type="line"/>
      <point x="297.0263157894737" y="679.8157894736842" type="line"/>
      <point x="291.63157894736844" y="602.078947368421"/>
      <point x="281.89473684210526" y="534.8947368421052"/>
      <point x="262.2631578947369" y="441.0" type="curve"/>
      <point x="217.1578947368421" y="230.6578947368421" type="line"/>
      <point x="191.63157894736844" y="139.57894736842104"/>
      <point x="174.1842105263158" y="75.65789473684211"/>
    </contour>
    <contour>
      <point x="78.86842105263159" y="513.2105263157895" type="line"/>
      <point x="130.5263157894737" y="519.1052631578947"/>
      <point x="187.63157894736844" y="526.0"/>
      <point x="259.57894736842104" y="534.3421052631579" type="curve"/>
      <point x="316.7894736842105" y="534.3421052631579" type="line"/>
      <point x="353.9736842105263" y="713.0" type="line"/>
      <point x="120.94736842105264" y="713.0" type="line"/>
    </contour>
    <contour>
      <point x="453.63157894736844" y="534.3421052631579" type="line"/>
      <point x="510.8421052631579" y="534.3421052631579" type="line"/>
      <point x="583.6052631578947" y="525.1842105263158"/>
      <point x="635.0000000000001" y="519.1052631578948"/>
      <point x="681.7631578947369" y="513.2105263157895" type="curve"/>
      <point x="723.8421052631579" y="713.0" type="line"/>
      <point x="490.8157894736842" y="713.0" type="line"/>
    </contour>
  </outline>
</glyph>
<glyph name="V" format="2">
  <advance width="726.7368421052632"/>
  <unicode hex="0056"/>
  <anchor x="311.5526315789474" y="0.0" name="bottom"/>
  <anchor x="461.5526315789474" y="713.0" name="top"/>
  <outline>
    <contour>
      <point x="158.65789473684208" y="0.0" type="curve"/>
      <point x="461.4736842105263" y="0.0" type="line"/>
      <point x="492.05263157894746" y="69.55263157894737"/>
      <point x="530.184210526316" y="156.28947368421052"/>
      <point x="560.8421052631579" y="226.1842105263158" type="curve"/>
      <point x="672.6315789473684" y="450.0" type="line"/>
      <point x="717.1842105263158" y="527.0"/>
      <point x="773.921052631579" y="625.1842105263157"/>
      <point x="824.4736842105264" y="713.0" type="curve"/>
      <point x="551.2368421052631" y="713.0" type="line"/>
      <point x="521.1315789473684" y="628.5526315789473"/>
      <point x="487.5526315789474" y="533.0"/>
      <point x="457.44736842105266" y="447.7368421052632" type="curve"/>
      <point x="356.8157894736842" y="208.1315789473684" type="line"/>
      <point x="342.65789473684214" y="208.1315789473684" type="line"/>
      <point x="339.13157894736844" y="446.5526315789474" type="line"/>
      <point x="341.1578947368421" y="530.1842105263158"/>
      <point x="342.6315789473684" y="628.5526315789474"/>
      <point x="344.6578947368421" y="713.0" type="curve"/>
      <point x="97.63157894736842" y="713.0" type="line"/>
      <point x="111.36842105263158" y="627.0000000000001"/>
      <point x="127.28947368421052" y="526.4473684210526"/>
      <point x="139.02631578947367" y="449.8157894736842" type="curve"/>
      <point x="155.55263157894737" y="226.18421052631578" type="line"/>
      <point x="156.94736842105263" y="158.18421052631578"/>
      <point x="158.07894736842107" y="72.63157894736841"/>
    </contour>
  </outline>
</glyph>
<glyph name="W" format="2">
  <advance width="1057.7368421052631"/>
  <unicode hex="0057"/>
  <anchor x="473.10526315789474" y="0.0" name="bottom"/>
  <anchor x="623.1052631578948" y="713.0" name="top"/>
  <outline>
    <contour>
      <point x="132.18421052631578" y="0.0" type="curve"/>
      <point x="395.9473684210526" y="0.0" type="line"/>
      <point x="418.94736842105266" y="69.21052631578948"/>
      <point x="446.2368421052632" y="152.4473684210526"/>
      <point x="468.42105263157896" y="218.39473684210526" type="curve"/>
      <point x="547.4736842105264" y="415.8421052631579" type="line"/>
      <point x="561.6315789473684" y="415.8421052631579" type="line"/>
      <point x="560.078947368421" y="218.39473684210526" type="line"/>
      <point x="555.8421052631579" y="149.18421052631578"/>
      <point x="551.1578947368421" y="69.21052631578947"/>
      <point x="547.1052631578948" y="0.0" type="curve"/>
      <point x="820.8421052631578" y="0.0" type="line"/>
      <point x="848.9473684210526" y="66.99999999999999"/>
      <point x="884.421052631579" y="152.18421052631578"/>
      <point x="914.7105263157895" y="225.18421052631578" type="curve"/>
      <point x="1019.1052631578948" y="450.0" type="line"/>
      <point x="1059.6578947368423" y="525.921052631579"/>
      <point x="1113.1052631578946" y="627.0"/>
      <point x="1159.1052631578948" y="713.0" type="curve"/>
      <point x="889.9473684210527" y="713.0" type="line"/>
      <point x="865.578947368421" y="636.078947368421"/>
      <point x="837.7368421052631" y="546.1315789473684"/>
      <point x="812.7368421052632" y="467.13157894736844" type="curve"/>
      <point x="731.1315789473684" y="245.02631578947367" type="line"/>
      <point x="716.9736842105264" y="245.02631578947367" type="line"/>
      <point x="723.421052631579" y="465.5" type="line"/>
      <point x="729.1052631578947" y="544.6052631578947"/>
      <point x="736.2368421052632" y="634.8947368421052"/>
      <point x="741.921052631579" y="713.0" type="curve"/>
      <point x="503.3684210526316" y="713.0" type="line"/>
      <point x="476.92105263157896" y="634.6315789473686"/>
      <point x="446.0" y="542.8684210526316"/>
      <point x="420.7368421052631" y="467.3157894736842" type="curve"/>
      <point x="335.7894736842105" y="245.02631578947367" type="line"/>
      <point x="321.6315789473684" y="245.02631578947367" type="line"/>
      <point x="332.4210526315789" y="464.2105263157895" type="line"/>
      <point x="340.3684210526316" y="543.1315789473684"/>
      <point x="349.7631578947368" y="634.8947368421052"/>
      <point x="357.71052631578954" y="713.0" type="curve"/>
      <point x="95.0" y="713.0" type="line"/>
      <point x="104.81578947368419" y="628.1842105263158"/>
      <point x="117.63157894736842" y="527.6315789473684"/>
      <point x="126.63157894736842" y="449.0789473684211" type="curve"/>
      <point x="135.3947368421053" y="225.0" type="line"/>
      <point x="134.8684210526316" y="154.0"/>
      <point x="133.71052631578948" y="71.81578947368422"/>
    </contour>
  </outline>
</glyph>
<glyph name="X" format="2">
  <advance width="739.7631578947369"/>
  <unicode hex="0058"/>
  <outline>
    <contour>
      <point x="-45.078947368421055" y="0.0" type="curve"/>
      <point x="234.3421052631579" y="0.0" type="line"/>
      <point x="257.0" y="45.3421052631579"/>
      <point x="278.4473684210526" y="89.92105263157893"/>
      <point x="299.5526315789473" y="131.26315789473685" type="curve"/>
      <point x="359.39473684210526" y="230.57894736842104" type="line"/>
      <point x="373.55263157894734" y="230.57894736842104" type="line"/>
      <point x="397.52631578947364" y="131.44736842105263" type="line"/>
      <point x="404.0526315789474" y="92.84210526315789"/>
      <point x="410.7631578947369" y="48.78947368421053"/>
      <point x="417.39473684210526" y="0.0" type="curve"/>
      <point x="681.6578947368421" y="0.0" type="line"/>
      <point x="647.8157894736844" y="76.0"/>
      <point x="617.1578947368422" y="143.81578947368422"/>
      <point x="583.3157894736843" y="219.81578947368422" type="curve"/>
      <point x="529.0526315789475" y="376.44736842105266" type="line"/>
      <point x="518.5263157894738" y="324.36842105263156" type="line"/>
      <point x="640.6842105263157" y="497.86842105263156" type="line"/>
      <point x="688.7894736842105" y="556.5"/>
      <point x="747.8947368421053" y="629.3947368421052"/>
      <point x="815.8947368421054" y="713.0" type="curve"/>
      <point x="535.4736842105262" y="713.0" type="line"/>
      <point x="509.73684210526324" y="661.3157894736842"/>
      <point x="485.07894736842104" y="610.7105263157894"/>
      <point x="462.7105263157895" y="567.6578947368421" type="curve"/>
      <point x="411.81578947368416" y="482.10526315789474" type="line"/>
      <point x="397.6578947368421" y="482.10526315789474" type="line"/>
      <point x="377.63157894736844" y="567.2894736842105" type="line"/>
      <point x="371.2894736842105" y="608.7105263157895"/>
      <point x="365.02631578947376" y="659.9473684210527"/>
      <point x="357.9473684210526" y="713.0" type="curve"/>
      <point x="102.65789473684211" y="713.0" type="line"/>
      <point x="136.68421052631578" y="629.7368421052632"/>
      <point x="163.34210526315792" y="562.7368421052631"/>
      <point x="191.0" y="495.10526315789474" type="curve"/>
      <point x="238.07894736842107" y="346.8421052631579" type="line"/>
      <point x="249.23684210526318" y="394.8421052631579" type="line"/>
      <point x="121.78947368421052" y="212.05263157894737" type="line"/>
      <point x="63.13157894736843" y="137.78947368421055"/>
      <point x="11.473684210526317" y="72.15789473684212"/>
    </contour>
  </outline>
</glyph>
<glyph name="Y" format="2">
  <advance width="697.5263157894736"/>
  <unicode hex="0059"/>
  <anchor x="298.89473684210526" y="0.0" name="bottom"/>
  <anchor x="450.5263157894737" y="713.0" name="top"/>
  <anchor x="117.1842105263158" y="713.0" name="topleft"/>
  <outline>
    <contour>
      <point x="262.05263157894734" y="236.3684210526316" type="line"/>
      <point x="442.97368421052636" y="236.3684210526316" type="line"/>
      <point x="648.3684210526316" y="525.7105263157895" type="line"/>
      <point x="695.1842105263157" y="583.421052631579"/>
      <point x="744.8157894736843" y="644.9473684210527"/>
      <point x="799.3421052631579" y="713.0" type="curve"/>
      <point x="519.4736842105264" y="713.0" type="line"/>
      <point x="487.13157894736844" y="639.1842105263157"/>
      <point x="470.5" y="602.3157894736842"/>
      <point x="443.3684210526316" y="540.7894736842105" type="curve"/>
      <point x="393.5526315789474" y="449.13157894736844" type="line"/>
      <point x="380.2105263157895" y="449.13157894736844" type="line"/>
      <point x="364.63157894736844" y="542.5263157894736" type="line"/>
      <point x="360.0" y="601.5000000000001"/>
      <point x="357.57894736842104" y="638.1842105263158"/>
      <point x="351.9210526315789" y="713.0" type="curve"/>
      <point x="95.55263157894738" y="713.0" type="line"/>
      <point x="127.0" y="638.3947368421052"/>
      <point x="149.44736842105263" y="586.0526315789474"/>
      <point x="175.07894736842104" y="525.7105263157895" type="curve"/>
    </contour>
    <contour>
      <point x="180.5526315789474" y="0.0" type="curve"/>
      <point x="419.86842105263156" y="0.0" type="line"/>
      <point x="430.1578947368421" y="73.6578947368421"/>
      <point x="439.0789473684211" y="138.21052631578948"/>
      <point x="452.1842105263158" y="230.6578947368421" type="curve"/>
      <point x="489.94736842105266" y="410.0263157894737" type="line"/>
      <point x="282.5526315789474" y="410.0263157894737" type="line"/>
      <point x="244.78947368421052" y="230.6578947368421" type="line"/>
      <point x="219.26315789473685" y="139.57894736842104"/>
      <point x="201.81578947368425" y="75.65789473684211"/>
    </contour>
  </outline>
</glyph>
<glyph name="Z" format="2">
  <advance width="695.7105263157895"/>
  <unicode hex="005A"/>
  <anchor x="295.1315789473684" y="0.0" name="bottom"/>
  <anchor x="370.1315789473684" y="357.0" name="center"/>
  <anchor x="445.1315789473684" y="713.0" name="top"/>
  <outline>
    <contour>
      <point x="-18.21052631578947" y="0.0" type="line"/>
      <point x="607.3684210526317" y="0.0" type="line"/>
      <point x="648.0" y="191.8157894736842" type="line"/>
      <point x="580.2105263157896" y="185.92105263157893"/>
      <point x="475.5526315789474" y="176.57894736842104"/>
      <point x="401.2105263157895" y="169.68421052631578" type="curve"/>
      <point x="251.05263157894737" y="169.68421052631578" type="line"/>
      <point x="267.9473684210526" y="107.78947368421052" type="line"/>
      <point x="546.578947368421" y="393.89473684210526" type="line"/>
      <point x="606.921052631579" y="451.34210526315786"/>
      <point x="666.4473684210527" y="508.9736842105264"/>
      <point x="718.8157894736843" y="559.2631578947368" type="curve"/>
      <point x="751.1052631578948" y="713.0" type="line"/>
      <point x="143.5" y="713.0" type="line"/>
      <point x="103.05263157894738" y="518.1052631578947" type="line"/>
      <point x="187.94736842105263" y="527.2631578947368"/>
      <point x="266.6578947368421" y="535.7894736842105"/>
      <point x="336.63157894736844" y="543.3157894736842" type="curve"/>
      <point x="502.52631578947364" y="543.3157894736842" type="line"/>
      <point x="479.5263157894737" y="603.7368421052631" type="line"/>
      <point x="205.68421052631578" y="317.5263157894737" type="line"/>
      <point x="142.07894736842104" y="256.8157894736842"/>
      <point x="54.815789473684205" y="173.07894736842104"/>
      <point x="9.184210526315791" y="129.5263157894737" type="curve"/>
    </contour>
  </outline>
</glyph>
<glyph name="bracketleft" format="2">
  <advance width="426.57894736842104"/>
  <unicode hex="005B"/>
  <outline>
    <contour>
      <point x="-27.18421052631578" y="-126.6842105263158" type="curve"/>
      <point x="171.1578947368421" y="-126.6842105263158" type="line"/>
      <point x="177.68421052631578" y="-93.5" type="line"/>
      <point x="188.7894736842105" y="-18.210526315789476"/>
      <point x="197.07894736842104" y="47.078947368421055"/>
      <point x="210.0" y="137.3421052631579" type="curve"/>
      <point x="287.92105263157896" y="506.7631578947368" type="line"/>
      <point x="313.4473684210526" y="600.2894736842105"/>
      <point x="332.7105263157894" y="667.8421052631579"/>
      <point x="353.9736842105263" y="745.578947368421" type="curve"/>
      <point x="361.49999999999994" y="778.7631578947369" type="line"/>
      <point x="163.1578947368421" y="778.7631578947369" type="line"/>
      <point x="150.42105263157893" y="699.3947368421052"/>
      <point x="140.31578947368422" y="635.921052631579"/>
      <point x="126.57894736842105" y="539.9473684210526" type="curve"/>
      <point x="34.60526315789475" y="103.97368421052632" type="line"/>
      <point x="10.526315789473694" y="13.710526315789473"/>
      <point x="-7.552631578947359" y="-53.02631578947368"/>
    </contour>
    <contour>
      <point x="132.78947368421052" y="-126.6842105263158" type="line"/>
      <point x="321.0" y="-126.6842105263158" type="line"/>
      <point x="353.92105263157896" y="30.763157894736842" type="line"/>
      <point x="308.1842105263158" y="27.499999999999996"/>
      <point x="262.5263157894737" y="24.052631578947366"/>
      <point x="205.15789473684208" y="19.973684210526315" type="curve"/>
      <point x="163.26315789473682" y="19.973684210526315" type="line"/>
    </contour>
    <contour>
      <point x="278.7894736842105" y="632.1052631578948" type="line"/>
      <point x="323.39473684210526" y="632.1052631578948" type="line"/>
      <point x="387.6842105263157" y="628.0263157894738"/>
      <point x="432.6052631578947" y="624.578947368421"/>
      <point x="474.34210526315786" y="621.3157894736843" type="curve"/>
      <point x="507.4473684210526" y="778.7631578947369" type="line"/>
      <point x="310.07894736842104" y="778.7631578947369" type="line"/>
    </contour>
  </outline>
</glyph>
<glyph name="backslash" format="2">
  <advance width="476.3421052631579"/>
  <unicode hex="005C"/>
  <outline>
    <contour>
      <point x="227.3421052631579" y="0.0" type="curve"/>
      <point x="425.5" y="0.0" type="line"/>
      <point x="406.5" y="76.26315789473684"/>
      <point x="390.49999999999994" y="138.44736842105263"/>
      <point x="368.13157894736844" y="228.0" type="curve"/>
      <point x="324.2631578947368" y="475.8157894736842" type="line"/>
      <point x="313.5" y="570.184210526316"/>
      <point x="306.47368421052636" y="635.5526315789475"/>
      <point x="297.4473684210526" y="713.0" type="curve"/>
      <point x="100.92105263157896" y="713.0" type="line"/>
      <point x="120.10526315789473" y="632.5526315789474"/>
      <point x="135.4736842105263" y="567.9999999999999"/>
      <point x="157.8421052631579" y="474.1842105263158" type="curve"/>
      <point x="200.89473684210523" y="228.0" type="line"/>
      <point x="211.47368421052633" y="136.0"/>
      <point x="219.13157894736844" y="74.0"/>
    </contour>
  </outline>
</glyph>
<glyph name="asciicircum" format="2">
  <advance width="645.4736842105264"/>
  <unicode hex="005E"/>
  <outline>
    <contour>
      <point x="475.5789473684211" y="349.13157894736844" type="curve"/>
      <point x="625.6052631578947" y="350.9473684210526" type="line"/>
      <point x="591.4736842105262" y="463.4473684210526"/>
      <point x="557.5263157894736" y="576.3947368421053"/>
      <point x="523.3947368421052" y="688.8947368421053" type="curve"/>
      <point x="273.15789473684214" y="688.8947368421053" type="line"/>
      <point x="203.47368421052633" y="577.3947368421052"/>
      <point x="132.9736842105263" y="464.4473684210526"/>
      <point x="63.28947368421052" y="352.9473684210526" type="curve"/>
      <point x="232.36842105263162" y="352.9473684210526" type="line"/>
      <point x="281.1842105263157" y="413.65789473684214"/>
      <point x="326.9210526315789" y="470.4736842105263"/>
      <point x="375.7368421052631" y="531.1842105263158" type="curve"/>
      <point x="389.07894736842104" y="531.1842105263158" type="line"/>
      <point x="417.5789473684211" y="471.10526315789474"/>
      <point x="447.0789473684211" y="409.2105263157895"/>
    </contour>
  </outline>
</glyph>
<glyph name="underscore" format="2">
  <advance width="445.2631578947368"/>
  <unicode hex="005F"/>
  <outline>
    <contour>
      <point x="-103.84210526315789" y="-192.78947368421052" type="line"/>
      <point x="-31.973684210526326" y="-190.15789473684208"/>
      <point x="43.36842105263159" y="-187.52631578947367"/>
      <point x="97.13157894736842" y="-185.89473684210526" type="curve"/>
      <point x="164.07894736842104" y="-185.89473684210526" type="line"/>
      <point x="216.21052631578948" y="-187.52631578947367"/>
      <point x="289.55263157894734" y="-190.15789473684208"/>
      <point x="361.4210526315789" y="-192.78947368421052" type="curve"/>
      <point x="396.1578947368421" y="-28.63157894736842" type="line"/>
      <point x="323.4736842105263" y="-31.263157894736842"/>
      <point x="248.13157894736844" y="-33.89473684210527"/>
      <point x="195.18421052631578" y="-35.526315789473685" type="curve"/>
      <point x="128.23684210526315" y="-35.526315789473685" type="line"/>
      <point x="75.28947368421053" y="-33.89473684210527"/>
      <point x="1.9473684210526274" y="-31.263157894736842"/>
      <point x="-69.10526315789474" y="-28.63157894736842" type="curve"/>
    </contour>
  </outline>
</glyph>
<glyph name="a" format="2">
  <advance width="533.0"/>
  <unicode hex="0061"/>
  <anchor x="211.3203883495145" y="0.0" name="bottom"/>
  <anchor x="431.1456310679612" y="0.0" name="ogonek"/>
  <anchor x="317.32038834951453" y="500.6407766990291" name="top"/>
  <outline>
    <contour>
      <point x="126.93203883495146" y="-12.980582524271846" type="curve" smooth="yes"/>
      <point x="152.34951456310677" y="-12.980582524271846"/>
      <point x="214.3495145631068" y="20.941747572815537"/>
      <point x="271.3883495145631" y="62.28155339805826" type="curve"/>
      <point x="284.0291262135923" y="62.28155339805826" type="line"/>
      <point x="287.72815533980577" y="0.0" type="line"/>
      <point x="462.1456310679612" y="0.0" type="line"/>
      <point x="463.46601941747576" y="64.92233009708741"/>
      <point x="465.4466019417476" y="123.14563106796115"/>
      <point x="467.76699029126206" y="175.76699029126215" type="curve"/>
      <point x="476.1456310679611" y="211.6601941747573" type="line" smooth="yes"/>
      <point x="483.8252427184466" y="246.37864077669903"/>
      <point x="494.80582524271847" y="278.7184466019417"/>
      <point x="501.80582524271847" y="314.0194174757282" type="curve" smooth="yes"/>
      <point x="526.4854368932039" y="438.94174757281553"/>
      <point x="449.9223300970874" y="515.2815533980582"/>
      <point x="299.0" y="515.2815533980582" type="curve" smooth="yes"/>
      <point x="269.6407766990291" y="515.2815533980582"/>
      <point x="149.79611650485433" y="496.621359223301"/>
      <point x="98.15533980582525" y="488.6213592233009" type="curve"/>
      <point x="69.25242718446603" y="323.10679611650477" type="line"/>
      <point x="134.31067961165047" y="340.14563106796123"/>
      <point x="230.85436893203885" y="363.80582524271847"/>
      <point x="243.89320388349515" y="363.80582524271847" type="curve" smooth="yes"/>
      <point x="307.6699029126213" y="363.80582524271847"/>
      <point x="333.7864077669903" y="338.3883495145631"/>
      <point x="326.7281553398058" y="309.11650485436894" type="curve"/>
      <point x="180.2135922330097" y="287.3980582524272" type="line" smooth="yes"/>
      <point x="98.19417475728154" y="275.378640776699"/>
      <point x="25.174757281553397" y="246.39805825242718"/>
      <point x="5.174757281553399" y="153.39805825242718" type="curve" smooth="yes"/>
      <point x="-14.16504854368932" y="63.05825242718446"/>
      <point x="34.21359223300971" y="-12.980582524271846"/>
    </contour>
    <contour>
      <point x="223.44660194174753" y="128.87378640776697" type="curve" smooth="yes"/>
      <point x="198.95145631067962" y="128.87378640776697"/>
      <point x="179.23300970873782" y="145.29126213592232"/>
      <point x="184.5922330097087" y="175.08737864077668" type="curve" smooth="yes"/>
      <point x="189.9514563106796" y="204.20388349514565"/>
      <point x="215.36893203883494" y="213.58252427184468"/>
      <point x="242.58252427184468" y="220.28155339805824" type="curve" smooth="yes"/>
      <point x="284.25242718446594" y="230.33980582524273"/>
      <point x="297.33009708737865" y="235.6990291262136"/>
      <point x="310.0291262135922" y="247.01941747572815" type="curve"/>
      <point x="293.6699029126213" y="171.1844660194175" type="line"/>
      <point x="262.69902912621365" y="144.95145631067956"/>
      <point x="232.1844660194175" y="128.87378640776697"/>
    </contour>
  </outline>
</glyph>
<glyph name="e" format="2">
  <advance width="526.3398058252427"/>
  <unicode hex="0065"/>
  <anchor x="224.0582524271844" y="0.0" name="bottom"/>
  <anchor x="381.02912621359224" y="0.0" name="ogonek"/>
  <anchor x="327.67961165048547" y="500.6407766990291" name="top"/>
  <outline>
    <contour>
      <point x="283.28155339805824" y="-14.640776699029125" type="curve" smooth="yes"/>
      <point x="323.9223300970874" y="-14.640776699029125"/>
      <point x="393.9029126213593" y="-1.3009708737864076"/>
      <point x="443.5631067961165" y="13.378640776699031" type="curve"/>
      <point x="468.1456310679611" y="171.53398058252426" type="line"/>
      <point x="404.8058252427185" y="150.51456310679615"/>
      <point x="346.44660194174753" y="137.1747572815534"/>
      <point x="325.7669902912621" y="137.1747572815534" type="curve" smooth="yes"/>
      <point x="239.9126213592233" y="137.1747572815534"/>
      <point x="186.85436893203882" y="169.10679611650488"/>
      <point x="202.9126213592233" y="252.67961165048544" type="curve"/>
      <point x="209.5533980582524" y="282.5631067961165" type="line"/>
      <point x="227.27184466019415" y="353.4757281553398"/>
      <point x="265.4854368932039" y="387.2718446601942"/>
      <point x="304.05825242718447" y="390.93203883495147" type="curve"/>
      <point x="343.97087378640776" y="387.2718446601942"/>
      <point x="359.1067961165048" y="346.495145631068"/>
      <point x="346.747572815534" y="297.9805825242718" type="curve" smooth="yes"/>
      <point x="344.747572815534" y="290.3009708737864"/>
      <point x="341.747572815534" y="280.30097087378635"/>
      <point x="338.747572815534" y="271.30097087378647" type="curve"/>
      <point x="487.9029126213592" y="221.39805825242718" type="line"/>
      <point x="494.56310679611653" y="239.71844660194176"/>
      <point x="499.9029126213592" y="258.3980582524272"/>
      <point x="505.56310679611653" y="282.3592233009709" type="curve" smooth="yes"/>
      <point x="539.8834951456311" y="427.88349514563106"/>
      <point x="464.6019417475728" y="515.2815533980582"/>
      <point x="300.07766990291265" y="515.2815533980582" type="curve" smooth="yes"/>
      <point x="154.51456310679612" y="515.2815533980582"/>
      <point x="59.15533980582525" y="418.6407766990292"/>
      <point x="29.81553398058253" y="273.32038834951453" type="curve" smooth="yes"/>
      <point x="-6.1844660194174725" y="94.37864077669902"/>
      <point x="96.7378640776699" y="-14.640776699029125"/>
    </contour>
    <contour>
      <point x="89.26213592233009" y="221.39805825242718" type="line"/>
      <point x="487.9029126213592" y="221.39805825242718" type="line"/>
      <point x="502.8640776699029" y="292.56310679611653" type="line"/>
      <point x="397.2330097087379" y="311.3592233009709" type="line"/>
      <point x="104.22330097087378" y="303.05825242718447" type="line"/>
    </contour>
  </outline>
</glyph>
<glyph name="g" format="2">
  <advance width="557.242718446602"/>
  <unicode hex="0067"/>
  <anchor x="222.126213592233" y="-192.0" name="bottom"/>
  <anchor x="308.37864077669906" y="500.6407766990291" name="top"/>
  <outline>
    <contour>
      <point x="186.26213592233012" y="-204.98058252427185" type="curve" smooth="yes"/>
      <point x="313.1844660194175" y="-204.98058252427185"/>
      <point x="445.7669902912621" y="-163.3009708737864"/>
      <point x="473.38834951456306" y="-34.49514563106796" type="curve" smooth="yes"/>
      <point x="496.34951456310677" y="73.66990291262135"/>
      <point x="419.1844660194175" y="129.3495145631068"/>
      <point x="306.0291262135923" y="129.3495145631068" type="curve" smooth="yes"/>
      <point x="264.33009708737865" y="129.3495145631068" type="line" smooth="yes"/>
      <point x="239.2330097087378" y="129.3495145631068"/>
      <point x="217.8155339805825" y="135.0291262135922"/>
      <point x="221.15533980582524" y="152.06796116504853" type="curve" smooth="yes"/>
      <point x="224.1553398058252" y="166.4271844660194"/>
      <point x="249.27184466019415" y="172.48543689320388"/>
      <point x="293.78640776699035" y="178.50485436893206" type="curve" smooth="yes"/>
      <point x="378.18446601941747" y="190.50485436893203"/>
      <point x="468.14563106796123" y="223.54368932038835"/>
      <point x="488.14563106796123" y="317.67961165048536" type="curve" smooth="yes"/>
      <point x="498.80582524271847" y="367.71844660194176"/>
      <point x="487.4271844660194" y="408.7766990291262"/>
      <point x="451.97087378640776" y="445.79611650485435" type="curve"/>
      <point x="402.80582524271847" y="391.6699029126213" type="line"/>
      <point x="455.8640776699029" y="383.0679611650485"/>
      <point x="506.60194174757277" y="373.10679611650477"/>
      <point x="563.6407766990293" y="358.44660194174753" type="curve"/>
      <point x="594.2038834951458" y="503.62135922330094" type="line"/>
      <point x="441.4271844660194" y="503.62135922330094" type="line" smooth="yes"/>
      <point x="374.1844660194174" y="503.62135922330094"/>
      <point x="347.22330097087377" y="515.2815533980582"/>
      <point x="261.3980582524272" y="515.2815533980582" type="curve" smooth="yes"/>
      <point x="133.21359223300973" y="515.2815533980582"/>
      <point x="67.15533980582524" y="451.03883495145635"/>
      <point x="50.475728155339816" y="368.9805825242718" type="curve" smooth="yes"/>
      <point x="36.79611650485437" y="302.5825242718447"/>
      <point x="77.53398058252425" y="254.20388349514565"/>
      <point x="138.11650485436894" y="195.01941747572812" type="curve"/>
      <point x="138.11650485436894" y="183.37864077669903" type="line"/>
      <point x="94.77669902912623" y="171.6990291262136"/>
      <point x="50.8349514563107" y="153.01941747572812"/>
      <point x="41.8349514563107" y="107.71844660194174" type="curve" smooth="yes"/>
      <point x="31.83495145631069" y="58.737864077669904"/>
      <point x="65.49514563106797" y="31.417475728155345"/>
      <point x="86.07766990291262" y="22.097087378640776" type="curve"/>
      <point x="86.07766990291262" y="10.79611650485437" type="line"/>
      <point x="26.45631067961166" y="-10.922330097087377"/>
      <point x="-21.223300970873794" y="-38.922330097087375"/>
      <point x="-27.90291262135923" y="-69.64077669902912" type="curve" smooth="yes"/>
      <point x="-49.88349514563108" y="-171.24271844660194"/>
      <point x="72.3009708737864" y="-204.98058252427185"/>
    </contour>
    <contour>
      <point x="207.86407766990288" y="-87.25242718446603" type="curve"/>
      <point x="162.1067961165048" y="-85.25242718446603"/>
      <point x="122.59223300970872" y="-65.93203883495147"/>
      <point x="126.63106796116503" y="-47.09708737864077" type="curve" smooth="yes"/>
      <point x="128.97087378640774" y="-35.398058252427184"/>
      <point x="160.70873786407765" y="-20.999999999999996"/>
      <point x="189.22330097087385" y="-8.5631067961165" type="curve"/>
      <point x="214.13592233009715" y="-8.5631067961165" type="line" smooth="yes"/>
      <point x="271.8640776699029" y="-8.5631067961165"/>
      <point x="304.68932038834964" y="-28.320388349514566"/>
      <point x="298.6893203883496" y="-50.71844660194175" type="curve" smooth="yes"/>
      <point x="295.0097087378642" y="-65.4757281553398"/>
      <point x="261.91262135922324" y="-82.23300970873787"/>
    </contour>
    <contour>
      <point x="248.86407766990288" y="269.12621359223294" type="curve"/>
      <point x="227.70873786407765" y="286.88349514563106"/>
      <point x="208.57281553398056" y="309.3592233009709"/>
      <point x="212.59223300970874" y="329.15533980582524" type="curve" smooth="yes"/>
      <point x="217.63106796116503" y="354.36893203883494"/>
      <point x="242.44660194174762" y="367.7864077669903"/>
      <point x="272.3398058252427" y="369.1067961165049" type="curve"/>
      <point x="313.19417475728153" y="366.46601941747576"/>
      <point x="338.6699029126214" y="342.63106796116506"/>
      <point x="331.95145631067965" y="314.05825242718447" type="curve" smooth="yes"/>
      <point x="324.5728155339806" y="282.50485436893206"/>
      <point x="283.09708737864077" y="271.4854368932039"/>
    </contour>
  </outline>
</glyph>
<glyph name="h" format="2">
  <advance width="592.4736842105262"/>
  <unicode hex="0068"/>
  <guideline x="142.78947368421052" y="740.7894736842105" angle="4.470799999999997"/>
  <anchor x="246.78947368421055" y="0.0" name="bottom"/>
  <anchor x="332.7894736842105" y="409.0" name="center"/>
  <anchor x="373.63157894736844" y="731.1578947368421" name="top"/>
  <outline>
    <contour>
      <point x="-16.447368421052627" y="0.0" type="curve"/>
      <point x="200.47368421052633" y="0.0" type="line"/>
      <point x="210.57894736842104" y="70.10526315789474"/>
      <point x="217.8684210526316" y="131.0263157894737"/>
      <point x="228.34210526315792" y="203.8684210526316" type="curve"/>
      <point x="249.18421052631578" y="302.6052631578947" type="line"/>
      <point x="272.2368421052632" y="324.7368421052632"/>
      <point x="312.3684210526315" y="346.36842105263156"/>
      <point x="325.10526315789474" y="346.36842105263156" type="curve" smooth="yes"/>
      <point x="362.55263157894734" y="346.36842105263156"/>
      <point x="370.6052631578948" y="312.39473684210526"/>
      <point x="356.7631578947369" y="251.81578947368425" type="curve"/>
      <point x="347.5526315789474" y="203.8684210526316" type="line"/>
      <point x="327.7368421052632" y="131.02631578947367"/>
      <point x="311.2894736842105" y="70.10526315789474"/>
      <point x="291.8421052631579" y="0.0" type="curve"/>
      <point x="507.1315789473685" y="0.0" type="line"/>
      <point x="517.2368421052631" y="70.10526315789474"/>
      <point x="524.5263157894739" y="131.02631578947367"/>
      <point x="536.6315789473686" y="214.47368421052633" type="curve"/>
      <point x="544.6315789473686" y="253.28947368421055"/>
      <point x="557.9736842105264" y="294.60526315789474"/>
      <point x="563.9736842105264" y="323.2368421052631" type="curve" smooth="yes"/>
      <point x="588.5263157894738" y="438.7105263157895"/>
      <point x="541.7105263157896" y="515.421052631579"/>
      <point x="435.60526315789474" y="515.421052631579" type="curve" smooth="yes"/>
      <point x="400.89473684210526" y="515.421052631579"/>
      <point x="340.5526315789474" y="479.2631578947369"/>
      <point x="292.92105263157896" y="439.44736842105266" type="curve"/>
      <point x="278.13157894736844" y="439.44736842105266" type="line"/>
      <point x="289.60526315789474" y="493.1842105263158" type="line"/>
      <point x="316.7631578947369" y="587.1578947368421"/>
      <point x="340.4736842105263" y="671.8684210526316"/>
      <point x="363.7368421052632" y="749.7894736842105" type="curve"/>
      <point x="123.49999999999999" y="731.4473684210526" type="line"/>
      <point x="117.65789473684208" y="650.4736842105264"/>
      <point x="110.8157894736842" y="573.2894736842105"/>
      <point x="102.97368421052632" y="493.1842105263158" type="curve"/>
      <point x="44.15789473684211" y="214.47368421052633" type="line"/>
      <point x="20.263157894736846" y="131.0263157894737"/>
      <point x="3.8157894736842146" y="70.10526315789474"/>
    </contour>
  </outline>
</glyph>
<glyph name="k" format="2">
  <advance width="598.3947368421053"/>
  <unicode hex="006B"/>
  <anchor x="244.55263157894734" y="0.0" name="bottom"/>
  <anchor x="398.1842105263158" y="731.1578947368421" name="top"/>
  <outline>
    <contour>
      <point x="311.6842105263158" y="0.0" type="curve"/>
      <point x="551.3157894736843" y="0.0" type="line"/>
      <point x="514.1578947368421" y="61.89473684210526"/>
      <point x="476.18421052631584" y="124.42105263157895"/>
      <point x="439.0263157894737" y="186.31578947368422" type="curve"/>
      <point x="375.39473684210526" y="309.57894736842104" type="line"/>
      <point x="402.42105263157896" y="228.57894736842104" type="line"/>
      <point x="478.7105263157895" y="318.10526315789474" type="line"/>
      <point x="534.0526315789474" y="379.1842105263158"/>
      <point x="588.7631578947368" y="439.44736842105266"/>
      <point x="644.4736842105261" y="500.5263157894737" type="curve"/>
      <point x="399.6578947368421" y="500.5263157894737" type="line"/>
      <point x="373.63157894736844" y="458.86842105263156"/>
      <point x="347.42105263157896" y="417.8421052631579"/>
      <point x="321.39473684210526" y="376.1842105263158" type="curve"/>
      <point x="272.7631578947369" y="308.42105263157896" type="line"/>
      <point x="236.23684210526315" y="308.42105263157896" type="line"/>
      <point x="210.65789473684208" y="187.42105263157896" type="line"/>
      <point x="247.7105263157895" y="187.42105263157896" type="line"/>
      <point x="276.6315789473684" y="115.1842105263158" type="line"/>
      <point x="288.92105263157896" y="76.78947368421052"/>
      <point x="300.3947368421053" y="38.39473684210526"/>
    </contour>
    <contour>
      <point x="-16.447368421052627" y="0.0" type="curve"/>
      <point x="200.47368421052633" y="0.0" type="line"/>
      <point x="207.31578947368422" y="60.31578947368421"/>
      <point x="213.78947368421052" y="113.07894736842105"/>
      <point x="222.63157894736844" y="176.13157894736844" type="curve"/>
      <point x="289.60526315789474" y="493.1842105263158" type="line"/>
      <point x="316.7631578947369" y="587.1578947368421"/>
      <point x="340.4736842105263" y="671.8684210526316"/>
      <point x="363.7368421052632" y="749.7894736842105" type="curve"/>
      <point x="123.49999999999999" y="731.4473684210526" type="line"/>
      <point x="117.65789473684208" y="650.4736842105264"/>
      <point x="110.8157894736842" y="573.2894736842105"/>
      <point x="102.97368421052632" y="493.1842105263158" type="curve"/>
      <point x="44.15789473684211" y="214.47368421052633" type="line"/>
      <point x="20.263157894736846" y="131.0263157894737"/>
      <point x="3.8157894736842146" y="70.10526315789474"/>
    </contour>
  </outline>
</glyph>
<glyph name="l" format="2">
  <advance width="290.2105263157895"/>
  <unicode hex="006C"/>
  <anchor x="92.10526315789474" y="0.0" name="bottom"/>
  <anchor x="183.18421052631578" y="409.0" name="center"/>
  <anchor x="239.57894736842107" y="731.1578947368421" name="top"/>
  <anchor x="313.7105263157895" y="500.5263157894737" name="topright"/>
  <outline>
    <contour>
      <point x="-16.447368421052627" y="0.0" type="curve"/>
      <point x="200.47368421052633" y="0.0" type="line"/>
      <point x="210.57894736842104" y="70.10526315789474"/>
      <point x="218.8684210526316" y="131.0263157894737"/>
      <point x="230.78947368421055" y="214.47368421052633" type="curve"/>
      <point x="289.60526315789474" y="493.1842105263158" type="line"/>
      <point x="316.7631578947369" y="587.1578947368421"/>
      <point x="340.4736842105263" y="671.8684210526316"/>
      <point x="363.7368421052632" y="749.7894736842105" type="curve"/>
      <point x="123.49999999999999" y="731.4473684210526" type="line"/>
      <point x="117.65789473684208" y="650.4736842105264"/>
      <point x="110.8157894736842" y="573.2894736842105"/>
      <point x="102.97368421052632" y="493.1842105263158" type="curve"/>
      <point x="44.15789473684211" y="214.47368421052633" type="line"/>
      <point x="20.263157894736846" y="131.0263157894737"/>
      <point x="3.8157894736842146" y="70.10526315789474"/>
    </contour>
  </outline>
</glyph>
<glyph name="m" format="2">
  <advance width="888.4210526315788"/>
  <unicode hex="006D"/>
  <anchor x="395.7368421052631" y="0.0" name="bottom"/>
  <anchor x="501.36842105263156" y="500.5263157894737" name="top"/>
  <outline>
    <contour>
      <point x="-12.078947368421048" y="0.0" type="curve"/>
      <point x="204.84210526315792" y="0.0" type="line"/>
      <point x="214.94736842105263" y="70.10526315789474"/>
      <point x="223.05263157894737" y="131.0263157894737"/>
      <point x="232.7105263157895" y="203.8684210526316" type="curve"/>
      <point x="253.55263157894737" y="302.6052631578947" type="line"/>
      <point x="276.60526315789474" y="324.7368421052631"/>
      <point x="314.1842105263158" y="346.36842105263156"/>
      <point x="326.7368421052632" y="346.36842105263156" type="curve" smooth="yes"/>
      <point x="360.34210526315786" y="346.36842105263156"/>
      <point x="368.39473684210526" y="312.39473684210526"/>
      <point x="354.55263157894734" y="251.81578947368425" type="curve"/>
      <point x="345.34210526315786" y="203.8684210526316" type="line"/>
      <point x="325.52631578947364" y="131.02631578947367"/>
      <point x="309.078947368421" y="70.10526315789474"/>
      <point x="289.6315789473684" y="0.0" type="curve"/>
      <point x="504.921052631579" y="0.0" type="line"/>
      <point x="515.0263157894738" y="70.10526315789474"/>
      <point x="522.3157894736844" y="131.02631578947367"/>
      <point x="534.4210526315791" y="214.47368421052633" type="curve"/>
      <point x="542.4210526315791" y="253.28947368421055"/>
      <point x="555.7631578947369" y="294.60526315789474"/>
      <point x="561.7631578947369" y="323.2368421052631" type="curve" smooth="yes"/>
      <point x="568.3947368421053" y="353.7631578947368"/>
      <point x="569.7631578947369" y="381.4736842105263"/>
      <point x="566.5" y="405.3684210526316" type="curve"/>
      <point x="558.9736842105264" y="406.10526315789474" type="line"/>
      <point x="553.7105263157896" y="475.3157894736843"/>
      <point x="510.52631578947364" y="515.421052631579"/>
      <point x="437.05263157894734" y="515.421052631579" type="curve" smooth="yes"/>
      <point x="396.99999999999994" y="515.421052631579"/>
      <point x="329.6842105263157" y="476.63157894736844"/>
      <point x="273.8947368421052" y="434.36842105263156" type="curve"/>
      <point x="259.1052631578947" y="434.36842105263156" type="line"/>
      <point x="263.5" y="509.2368421052632" type="line"/>
      <point x="83.6578947368421" y="500.5263157894737" type="line"/>
      <point x="75.65789473684208" y="423.42105263157896"/>
      <point x="69.4736842105263" y="350.8421052631579"/>
      <point x="62.28947368421054" y="277.55263157894734" type="curve"/>
      <point x="48.52631578947369" y="214.47368421052633" type="line"/>
      <point x="24.631578947368425" y="131.0263157894737"/>
      <point x="8.184210526315793" y="70.10526315789474"/>
    </contour>
    <contour>
      <point x="587.7894736842105" y="0.0" type="curve"/>
      <point x="803.078947368421" y="0.0" type="line"/>
      <point x="813.1842105263158" y="70.10526315789474"/>
      <point x="820.4736842105265" y="131.02631578947367"/>
      <point x="832.5789473684212" y="214.47368421052633" type="curve"/>
      <point x="840.5789473684212" y="253.28947368421055"/>
      <point x="853.921052631579" y="294.60526315789474"/>
      <point x="859.921052631579" y="323.2368421052631" type="curve" smooth="yes"/>
      <point x="884.4736842105264" y="438.71052631578954"/>
      <point x="837.6578947368421" y="515.421052631579"/>
      <point x="735.2105263157895" y="515.421052631579" type="curve" smooth="yes"/>
      <point x="695.1578947368421" y="515.421052631579"/>
      <point x="626.2894736842104" y="476.2631578947368"/>
      <point x="567.0526315789475" y="431.1842105263158" type="curve"/>
      <point x="552.7105263157895" y="431.1842105263158" type="line"/>
      <point x="551.7105263157896" y="302.6052631578947" type="line"/>
      <point x="574.7631578947369" y="324.7368421052632"/>
      <point x="612.3421052631578" y="346.36842105263156"/>
      <point x="624.8947368421053" y="346.36842105263156" type="curve" smooth="yes"/>
      <point x="658.4999999999999" y="346.36842105263156"/>
      <point x="666.5526315789474" y="312.39473684210526"/>
      <point x="652.7105263157895" y="251.81578947368425" type="curve"/>
      <point x="643.5" y="203.8684210526316" type="line"/>
      <point x="623.6842105263158" y="131.02631578947367"/>
      <point x="607.2368421052631" y="70.10526315789474"/>
    </contour>
  </outline>
</glyph>
<glyph name="n" format="2">
  <advance width="596.8421052631578"/>
  <unicode hex="006E"/>
  <anchor x="245.26315789473685" y="0.0" name="bottom"/>
  <anchor x="350.89473684210526" y="500.5263157894737" name="top"/>
  <outline>
    <contour>
      <point x="-12.078947368421048" y="0.0" type="curve"/>
      <point x="204.84210526315792" y="0.0" type="line"/>
      <point x="214.94736842105263" y="70.10526315789474"/>
      <point x="223.05263157894737" y="131.0263157894737"/>
      <point x="232.7105263157895" y="203.8684210526316" type="curve"/>
      <point x="253.55263157894737" y="302.6052631578947" type="line"/>
      <point x="276.60526315789474" y="324.7368421052632"/>
      <point x="316.7368421052631" y="346.36842105263156"/>
      <point x="329.4736842105263" y="346.36842105263156" type="curve" smooth="yes"/>
      <point x="366.9210526315789" y="346.36842105263156"/>
      <point x="374.97368421052636" y="312.39473684210526"/>
      <point x="361.13157894736844" y="251.81578947368425" type="curve"/>
      <point x="351.92105263157896" y="203.8684210526316" type="line"/>
      <point x="332.10526315789474" y="131.02631578947367"/>
      <point x="315.6578947368421" y="70.10526315789474"/>
      <point x="296.2105263157895" y="0.0" type="curve"/>
      <point x="511.50000000000006" y="0.0" type="line"/>
      <point x="521.6052631578948" y="70.10526315789474"/>
      <point x="528.8947368421054" y="131.02631578947367"/>
      <point x="541.0000000000001" y="214.47368421052633" type="curve"/>
      <point x="549.0000000000001" y="253.28947368421055"/>
      <point x="562.3421052631579" y="294.60526315789474"/>
      <point x="568.3421052631579" y="323.2368421052631" type="curve" smooth="yes"/>
      <point x="592.8947368421053" y="438.7105263157895"/>
      <point x="546.0789473684212" y="515.421052631579"/>
      <point x="439.9736842105263" y="515.421052631579" type="curve" smooth="yes"/>
      <point x="399.55263157894734" y="515.421052631579"/>
      <point x="328.86842105263156" y="476.63157894736844"/>
      <point x="273.078947368421" y="434.36842105263156" type="curve"/>
      <point x="258.28947368421046" y="434.36842105263156" type="line"/>
      <point x="263.6842105263158" y="509.2368421052632" type="line"/>
      <point x="83.6578947368421" y="500.5263157894737" type="line"/>
      <point x="75.65789473684208" y="423.42105263157896"/>
      <point x="69.4736842105263" y="350.8421052631579"/>
      <point x="62.28947368421054" y="277.55263157894734" type="curve"/>
      <point x="48.52631578947369" y="214.47368421052633" type="line"/>
      <point x="24.631578947368425" y="131.0263157894737"/>
      <point x="8.184210526315793" y="70.10526315789474"/>
    </contour>
  </outline>
</glyph>
<glyph name="p" format="2">
  <advance width="600.8947368421053"/>
  <unicode hex="0070"/>
  <outline>
    <contour>
      <point x="-53.263157894736835" y="-197.26315789473685" type="curve"/>
      <point x="168.73684210526315" y="-192.0" type="line"/>
      <point x="177.21052631578948" y="-121.89473684210526"/>
      <point x="183.6842105263158" y="-60.973684210526315"/>
      <point x="192.52631578947373" y="11.868421052631579" type="curve"/>
      <point x="200.44736842105266" y="48.736842105263165" type="line"/>
      <point x="210.5263157894737" y="48.736842105263165" type="line"/>
      <point x="255.44736842105266" y="11.526315789473685"/>
      <point x="307.2368421052631" y="-14.710526315789473"/>
      <point x="343.92105263157896" y="-14.710526315789473" type="curve" smooth="yes"/>
      <point x="461.02631578947364" y="-14.710526315789473"/>
      <point x="539.6052631578947" y="88.23684210526316"/>
      <point x="569.6052631578947" y="229.78947368421052" type="curve" smooth="yes"/>
      <point x="601.421052631579" y="381.4210526315789"/>
      <point x="555.7368421052631" y="515.421052631579"/>
      <point x="421.5" y="515.421052631579" type="curve" smooth="yes"/>
      <point x="386.4736842105263" y="515.421052631579"/>
      <point x="328.5" y="485.10526315789474"/>
      <point x="280.7105263157895" y="441.2368421052631" type="curve"/>
      <point x="264.92105263157896" y="441.2368421052631" type="line"/>
      <point x="270.4736842105263" y="509.2368421052632" type="line"/>
      <point x="83.6578947368421" y="500.5263157894737" type="line"/>
      <point x="75.65789473684208" y="423.42105263157896"/>
      <point x="69.4736842105263" y="350.8421052631579"/>
      <point x="62.28947368421054" y="277.55263157894734" type="curve"/>
      <point x="8.3421052631579" y="22.473684210526315" type="line"/>
      <point x="-14.552631578947365" y="-60.973684210526315"/>
      <point x="-33.815789473684205" y="-127.15789473684211"/>
    </contour>
    <contour>
      <point x="287.6315789473684" y="144.55263157894737" type="curve"/>
      <point x="267.1052631578946" y="147.3684210526316"/>
      <point x="242.76315789473688" y="160.44736842105263"/>
      <point x="228.02631578947373" y="177.65789473684208" type="curve"/>
      <point x="257.7368421052632" y="319.0" type="line"/>
      <point x="276.842105263158" y="340.44736842105266"/>
      <point x="305.2894736842106" y="355.1578947368421"/>
      <point x="324.2368421052631" y="358.60526315789474" type="curve"/>
      <point x="374.3947368421052" y="355.60526315789474"/>
      <point x="392.84210526315786" y="298.8157894736842"/>
      <point x="381.1578947368421" y="243.57894736842104" type="curve" smooth="yes"/>
      <point x="369.39473684210526" y="187.3157894736842"/>
      <point x="337.6578947368421" y="148.3684210526316"/>
    </contour>
  </outline>
</glyph>
<glyph name="q" format="2">
  <advance width="589.2631578947369"/>
  <unicode hex="0071"/>
  <outline>
    <contour>
      <point x="248.8684210526316" y="-197.26315789473685" type="curve"/>
      <point x="465.9736842105263" y="-192.0" type="line"/>
      <point x="476.078947368421" y="-121.89473684210526"/>
      <point x="484.1842105263157" y="-60.973684210526315"/>
      <point x="496.28947368421046" y="22.473684210526315" type="curve"/>
      <point x="550.8684210526316" y="277.55263157894734" type="line"/>
      <point x="572.6578947368422" y="353.4736842105263"/>
      <point x="596.8157894736842" y="429.5"/>
      <point x="622.236842105263" y="509.2368421052632" type="curve"/>
      <point x="436.6842105263158" y="500.5263157894737" type="line"/>
      <point x="415.2368421052632" y="439.9473684210526" type="line"/>
      <point x="401.0789473684211" y="439.9473684210526" type="line"/>
      <point x="354.0" y="484.10526315789474"/>
      <point x="296.6578947368421" y="515.421052631579"/>
      <point x="257.7894736842105" y="515.421052631579" type="curve" smooth="yes"/>
      <point x="140.68421052631578" y="515.421052631579"/>
      <point x="62.10526315789474" y="412.4736842105263"/>
      <point x="32.10526315789474" y="270.92105263157896" type="curve" smooth="yes"/>
      <point x="0.289473684210526" y="119.28947368421053"/>
      <point x="45.973684210526315" y="-14.710526315789473"/>
      <point x="180.21052631578948" y="-14.710526315789473" type="curve" smooth="yes"/>
      <point x="211.15789473684208" y="-14.710526315789473"/>
      <point x="258.68421052631584" y="10.05263157894737"/>
      <point x="301.42105263157896" y="45.63157894736842" type="curve"/>
      <point x="314.7631578947368" y="45.63157894736842" type="line"/>
      <point x="307.2105263157895" y="11.868421052631579" type="line"/>
      <point x="287.57894736842104" y="-60.973684210526315"/>
      <point x="268.31578947368416" y="-127.15789473684211"/>
    </contour>
    <contour>
      <point x="277.4736842105263" y="142.10526315789474" type="curve"/>
      <point x="227.3157894736842" y="144.92105263157896"/>
      <point x="208.6842105263158" y="202.078947368421"/>
      <point x="220.5526315789474" y="257.13157894736844" type="curve" smooth="yes"/>
      <point x="232.5" y="313.7631578947368"/>
      <point x="264.0526315789474" y="352.34210526315786"/>
      <point x="314.07894736842104" y="356.1578947368421" type="curve"/>
      <point x="335.1578947368421" y="353.52631578947364"/>
      <point x="358.94736842105266" y="340.4473684210526"/>
      <point x="374.2368421052632" y="325.8157894736842" type="curve"/>
      <point x="344.7105263157895" y="185.76315789473682" type="line"/>
      <point x="326.52631578947364" y="162.4736842105263"/>
      <point x="300.2894736842106" y="145.73684210526315"/>
    </contour>
  </outline>
</glyph>
<glyph name="r" format="2">
  <advance width="429.89473684210526"/>
  <unicode hex="0072"/>
  <anchor x="88.39473684210527" y="0.0" name="bottom"/>
  <anchor x="288.89473684210526" y="500.5263157894737" name="top"/>
  <outline>
    <contour>
      <point x="-12.078947368421048" y="0.0" type="curve"/>
      <point x="204.84210526315792" y="0.0" type="line"/>
      <point x="214.94736842105263" y="70.10526315789474"/>
      <point x="223.05263157894737" y="131.0263157894737"/>
      <point x="232.7105263157895" y="203.8684210526316" type="curve"/>
      <point x="248.92105263157896" y="276.00000000000006" type="line"/>
      <point x="281.2631578947368" y="306.89473684210526"/>
      <point x="329.3157894736842" y="327.60526315789474"/>
      <point x="343.36842105263156" y="327.60526315789474" type="curve" smooth="yes"/>
      <point x="352.18421052631584" y="327.60526315789474"/>
      <point x="379.36842105263156" y="320.60526315789474"/>
      <point x="412.5263157894737" y="311.3421052631579" type="curve"/>
      <point x="469.84210526315786" y="505.2368421052632" type="line"/>
      <point x="448.1052631578947" y="511.42105263157885"/>
      <point x="419.1842105263157" y="515.421052631579"/>
      <point x="411.44736842105266" y="515.421052631579" type="curve" smooth="yes"/>
      <point x="369.1842105263157" y="515.421052631579"/>
      <point x="332.6578947368421" y="490.10526315789474"/>
      <point x="272.5263157894737" y="431.78947368421046" type="curve"/>
      <point x="257.7368421052632" y="431.78947368421046" type="line"/>
      <point x="263.5" y="509.2368421052632" type="line"/>
      <point x="83.6578947368421" y="500.5263157894737" type="line"/>
      <point x="75.65789473684208" y="423.42105263157896"/>
      <point x="69.4736842105263" y="350.8421052631579"/>
      <point x="62.28947368421054" y="277.55263157894734" type="curve"/>
      <point x="48.52631578947369" y="214.47368421052633" type="line"/>
      <point x="24.631578947368425" y="131.0263157894737"/>
      <point x="8.184210526315793" y="70.10526315789474"/>
    </contour>
  </outline>
</glyph>
<glyph name="u" format="2">
  <advance width="586.5263157894738"/>
  <unicode hex="0075"/>
  <anchor x="239.31578947368425" y="0.0" name="bottom"/>
  <anchor x="493.02631578947364" y="0.0" name="ogonek"/>
  <anchor x="344.13157894736844" y="500.5263157894737" name="top"/>
  <anchor x="617.3157894736842" y="500.5263157894737" name="topright"/>
  <outline>
    <contour>
      <point x="152.15789473684208" y="-14.710526315789473" type="curve" smooth="yes"/>
      <point x="191.47368421052633" y="-14.710526315789473"/>
      <point x="262.15789473684214" y="24.078947368421055"/>
      <point x="317.9473684210526" y="66.34210526315789" type="curve"/>
      <point x="332.7368421052632" y="66.34210526315789" type="line"/>
      <point x="326.60526315789474" y="0.0" type="line"/>
      <point x="497.9210526315789" y="0.0" type="line"/>
      <point x="508.0263157894737" y="70.10526315789474"/>
      <point x="515.3157894736843" y="131.0263157894737"/>
      <point x="527.2368421052631" y="214.47368421052633" type="curve"/>
      <point x="539.8684210526316" y="272.63157894736844" type="line"/>
      <point x="566.0263157894738" y="369.13157894736844"/>
      <point x="582.8421052631579" y="430.42105263157896"/>
      <point x="602.2894736842105" y="500.5263157894737" type="curve"/>
      <point x="387.63157894736844" y="500.5263157894737" type="line"/>
      <point x="378.34210526315786" y="430.42105263157896"/>
      <point x="369.2368421052632" y="369.13157894736844"/>
      <point x="358.13157894736844" y="296.2894736842105" type="curve"/>
      <point x="336.65789473684214" y="194.02631578947367" type="line"/>
      <point x="313.60526315789474" y="171.89473684210526"/>
      <point x="273.47368421052636" y="150.26315789473682"/>
      <point x="261.84210526315786" y="150.26315789473682" type="curve" smooth="yes"/>
      <point x="224.39473684210523" y="150.26315789473682"/>
      <point x="215.52631578947367" y="184.23684210526315"/>
      <point x="229.36842105263156" y="244.8157894736842" type="curve"/>
      <point x="240.02631578947367" y="296.2894736842105" type="line"/>
      <point x="259.6578947368421" y="369.13157894736844"/>
      <point x="278.2894736842106" y="435.6842105263158"/>
      <point x="297.7368421052632" y="505.7894736842105" type="curve"/>
      <point x="79.63157894736842" y="500.5263157894737" type="line"/>
      <point x="70.34210526315789" y="430.42105263157896"/>
      <point x="61.23684210526316" y="369.13157894736844"/>
      <point x="48.5" y="272.63157894736844" type="curve"/>
      <point x="40.49999999999999" y="234.3684210526316"/>
      <point x="32.23684210526316" y="206.10526315789474"/>
      <point x="26.23684210526316" y="177.47368421052633" type="curve" smooth="yes"/>
      <point x="1.684210526315791" y="62.00000000000001"/>
      <point x="46.05263157894737" y="-14.710526315789473"/>
    </contour>
  </outline>
</glyph>
<glyph name="v" format="2">
  <advance width="566.9736842105264"/>
  <unicode hex="0076"/>
  <outline>
    <contour>
      <point x="124.42105263157893" y="0.0" type="curve"/>
      <point x="339.7368421052631" y="0.0" type="line"/>
      <point x="371.84210526315786" y="62.81578947368421"/>
      <point x="402.94736842105266" y="124.63157894736842"/>
      <point x="434.86842105263156" y="187.44736842105263" type="curve"/>
      <point x="484.60526315789474" y="277.07894736842104" type="line"/>
      <point x="529.4210526315788" y="351.7105263157895"/>
      <point x="573.7894736842104" y="426.7105263157895"/>
      <point x="617.9736842105262" y="500.5263157894737" type="curve"/>
      <point x="388.5263157894737" y="500.5263157894737" type="line"/>
      <point x="368.6052631578947" y="444.8684210526316"/>
      <point x="346.78947368421046" y="382.7894736842105"/>
      <point x="324.2368421052632" y="318.60526315789474" type="curve"/>
      <point x="275.9736842105263" y="200.60526315789474" type="line"/>
      <point x="261.8157894736842" y="200.60526315789474" type="line"/>
      <point x="260.1842105263158" y="318.60526315789474" type="line"/>
      <point x="262.94736842105266" y="381.7894736842105"/>
      <point x="265.89473684210526" y="445.8684210526316"/>
      <point x="267.8421052631579" y="505.7894736842105" type="curve"/>
      <point x="55.0" y="500.5263157894737" type="line"/>
      <point x="68.1842105263158" y="429.3421052631579"/>
      <point x="82.1842105263158" y="351.89473684210526"/>
      <point x="95.36842105263159" y="278.2631578947368" type="curve"/>
      <point x="107.92105263157895" y="189.44736842105263" type="line"/>
      <point x="113.02631578947367" y="127.1842105263158"/>
      <point x="119.31578947368423" y="62.44736842105264"/>
    </contour>
  </outline>
</glyph>
<glyph name="x" format="2">
  <advance width="594.0263157894736"/>
  <unicode hex="0078"/>
  <outline>
    <contour>
      <point x="-46.36842105263158" y="0.0" type="curve"/>
      <point x="194.9736842105263" y="0.0" type="line"/>
      <point x="210.7894736842105" y="35.13157894736842"/>
      <point x="221.94736842105263" y="59.71052631578947"/>
      <point x="237.57894736842104" y="96.28947368421053" type="curve"/>
      <point x="273.7368421052631" y="161.73684210526318" type="line"/>
      <point x="285.2631578947368" y="161.73684210526318" type="line"/>
      <point x="298.84210526315786" y="91.8421052631579" type="line"/>
      <point x="303.0" y="57.71052631578947"/>
      <point x="305.68421052631584" y="32.5"/>
      <point x="309.8421052631579" y="0.0" type="curve"/>
      <point x="537.6578947368421" y="0.0" type="line"/>
      <point x="506.3684210526316" y="66.71052631578948"/>
      <point x="486.44736842105266" y="109.97368421052632"/>
      <point x="463.15789473684214" y="158.78947368421052" type="curve"/>
      <point x="414.4736842105263" y="279.57894736842104" type="line"/>
      <point x="416.55263157894734" y="241.92105263157896" type="line"/>
      <point x="506.13157894736844" y="351.0" type="line"/>
      <point x="549.2368421052631" y="400.8157894736842"/>
      <point x="578.2368421052631" y="434.07894736842104"/>
      <point x="635.5263157894738" y="500.5263157894737" type="curve"/>
      <point x="393.36842105263156" y="500.5263157894737" type="line"/>
      <point x="375.9210526315789" y="465.39473684210526"/>
      <point x="363.3157894736842" y="439.1842105263158"/>
      <point x="346.60526315789474" y="403.15789473684214" type="curve"/>
      <point x="309.92105263157896" y="338.8157894736842" type="line"/>
      <point x="296.94736842105266" y="338.8157894736842" type="line"/>
      <point x="283.2105263157895" y="403.9736842105263" type="line"/>
      <point x="279.15789473684214" y="439.44736842105266"/>
      <point x="275.2894736842105" y="469.84210526315786"/>
      <point x="270.5" y="505.7894736842105" type="curve"/>
      <point x="56.921052631578945" y="500.5263157894737" type="line"/>
      <point x="83.57894736842107" y="438.07894736842104"/>
      <point x="100.31578947368422" y="399.63157894736844"/>
      <point x="121.97368421052632" y="349.44736842105266" type="curve"/>
      <point x="161.8421052631579" y="241.18421052631578" type="line"/>
      <point x="169.55263157894737" y="279.2105263157895" type="line"/>
      <point x="83.3157894736842" y="161.23684210526315" type="line"/>
      <point x="40.026315789473685" y="107.15789473684211"/>
      <point x="9.473684210526317" y="69.07894736842105"/>
    </contour>
  </outline>
</glyph>
<glyph name="y" format="2">
  <advance width="567.7105263157895"/>
  <unicode hex="0079"/>
  <anchor x="428.7105263157895" y="0.0" name="bottom"/>
  <anchor x="336.44736842105266" y="500.5263157894737" name="top"/>
  <outline>
    <contour>
      <point x="-10.526315789473673" y="-197.26315789473685" type="curve"/>
      <point x="220.55263157894737" y="-192.0" type="line"/>
      <point x="258.6578947368421" y="-120.1842105263158"/>
      <point x="304.39473684210526" y="-35.73684210526316"/>
      <point x="372.42105263157896" y="91.26315789473684" type="curve"/>
      <point x="454.97368421052636" y="231.89473684210526" type="line"/>
      <point x="529.5263157894736" y="356.89473684210526"/>
      <point x="567.3421052631578" y="419.3421052631579"/>
      <point x="615.8947368421051" y="500.5263157894737" type="curve"/>
      <point x="388.89473684210526" y="500.5263157894737" type="line"/>
      <point x="366.5263157894737" y="437.7105263157895"/>
      <point x="345.1578947368421" y="377.89473684210526"/>
      <point x="322.42105263157896" y="314.5263157894737" type="curve"/>
      <point x="271.97368421052636" y="194.07894736842104" type="line"/>
      <point x="257.8157894736842" y="194.07894736842104" type="line"/>
      <point x="256.5526315789474" y="315.1578947368421" type="line"/>
      <point x="259.50000000000006" y="380.1578947368421"/>
      <point x="262.4473684210526" y="440.7894736842105"/>
      <point x="265.39473684210526" y="505.7894736842105" type="curve"/>
      <point x="52.55263157894737" y="500.5263157894737" type="line"/>
      <point x="65.55263157894737" y="428.7105263157895"/>
      <point x="78.73684210526316" y="352.7105263157895"/>
      <point x="91.73684210526316" y="280.89473684210526" type="curve"/>
      <point x="103.47368421052632" y="190.89473684210526" type="line"/>
      <point x="108.76315789473685" y="122.07894736842104"/>
      <point x="114.86842105263156" y="53.078947368421055"/>
      <point x="120.15789473684211" y="-15.736842105263158" type="curve"/>
      <point x="135.21052631578945" y="23.736842105263158" type="line"/>
      <point x="88.05263157894737" y="-47.42105263157895"/>
      <point x="36.63157894736841" y="-126.10526315789474"/>
    </contour>
  </outline>
</glyph>
<glyph name="z" format="2">
  <advance width="526.0526315789474"/>
  <unicode hex="007A"/>
  <anchor x="209.0263157894737" y="0.0" name="bottom"/>
  <anchor x="261.8421052631579" y="250.26315789473685" name="center"/>
  <anchor x="314.65789473684214" y="500.5263157894737" name="top"/>
  <outline>
    <contour>
      <point x="-25.131578947368418" y="0.0" type="line"/>
      <point x="446.2894736842105" y="0.0" type="line"/>
      <point x="479.39473684210526" y="156.6315789473684" type="line"/>
      <point x="420.71052631578954" y="149.10526315789474"/>
      <point x="349.2631578947368" y="140.76315789473682"/>
      <point x="305.5789473684211" y="135.68421052631578" type="curve"/>
      <point x="209.28947368421052" y="135.68421052631578" type="line"/>
      <point x="228.15789473684208" y="98.13157894736842" type="line"/>
      <point x="368.2368421052631" y="242.76315789473685" type="line"/>
      <point x="415.2105263157895" y="286.02631578947364"/>
      <point x="472.8421052631579" y="339.1315789473684"/>
      <point x="511.9736842105263" y="375.1842105263158" type="curve"/>
      <point x="538.1842105263157" y="500.5263157894737" type="line"/>
      <point x="86.21052631578947" y="500.5263157894737" type="line"/>
      <point x="52.28947368421052" y="339.8157894736842" type="line"/>
      <point x="113.52631578947367" y="348.1578947368421"/>
      <point x="189.42105263157893" y="358.13157894736844"/>
      <point x="234.55263157894734" y="364.0263157894737" type="curve"/>
      <point x="323.55263157894734" y="364.0263157894737" type="line"/>
      <point x="297.3421052631579" y="412.2105263157895" type="line"/>
      <point x="149.28947368421052" y="253.07894736842107" type="line"/>
      <point x="104.68421052631578" y="210.55263157894734"/>
      <point x="52.3421052631579" y="160.28947368421055"/>
      <point x="-2.1842105263157885" y="108.65789473684211" type="curve"/>
    </contour>
  </outline>
</glyph>
<glyph name="braceleft" format="2">
  <advance width="468.2631578947368"/>
  <unicode hex="007B"/>
  <outline>
    <contour>
      <point x="263.9473684210526" y="-126.6842105263158" type="curve" smooth="yes"/>
      <point x="362.86842105263156" y="-126.6842105263158" type="line"/>
      <point x="394.1578947368421" y="24.236842105263158" type="line"/>
      <point x="360.3421052631579" y="22.42105263157894"/>
      <point x="332.5263157894737" y="20.789473684210524"/>
      <point x="315.5263157894737" y="19.973684210526315" type="curve"/>
      <point x="275.7894736842105" y="23.236842105263158"/>
      <point x="264.28947368421046" y="52.368421052631575"/>
      <point x="271.39473684210526" y="93.97368421052632" type="curve" smooth="yes"/>
      <point x="295.1842105263158" y="235.57894736842107" type="line" smooth="yes"/>
      <point x="297.8157894736842" y="250.55263157894734"/>
      <point x="255.21052631578942" y="290.8421052631579"/>
      <point x="216.89473684210526" y="318.8157894736842" type="curve"/>
      <point x="219.5263157894737" y="332.15789473684214" type="line"/>
      <point x="266.47368421052636" y="360.7631578947369"/>
      <point x="330.44736842105266" y="407.42105263157896"/>
      <point x="334.7105263157895" y="424.8421052631579" type="curve" smooth="yes"/>
      <point x="371.2105263157895" y="569.2105263157895" type="line" smooth="yes"/>
      <point x="381.9473684210526" y="611.3684210526316"/>
      <point x="402.8157894736842" y="628.842105263158"/>
      <point x="442.44736842105266" y="632.1052631578948" type="curve"/>
      <point x="460.0" y="631.2894736842106"/>
      <point x="488.57894736842104" y="629.4736842105265"/>
      <point x="516.8421052631579" y="627.8421052631579" type="curve"/>
      <point x="549.1315789473684" y="778.7631578947369" type="line"/>
      <point x="434.4736842105263" y="778.7631578947369" type="line" smooth="yes"/>
      <point x="309.49999999999994" y="778.7631578947369"/>
      <point x="222.8684210526316" y="731.5263157894736"/>
      <point x="203.60526315789477" y="618.0789473684212" type="curve"/>
      <point x="202.42105263157896" y="611.342105263158"/>
      <point x="180.28947368421052" y="479.6578947368421"/>
      <point x="179.10526315789474" y="473.7368421052632" type="curve"/>
      <point x="168.3684210526316" y="420.05263157894734"/>
      <point x="131.44736842105263" y="391.0263157894737"/>
      <point x="92.28947368421052" y="391.0263157894737" type="curve" smooth="yes"/>
      <point x="47.763157894736835" y="391.0263157894737" type="line"/>
      <point x="20.552631578947366" y="260.86842105263156" type="line"/>
      <point x="65.07894736842104" y="260.86842105263156" type="line" smooth="yes"/>
      <point x="104.23684210526315" y="260.86842105263156"/>
      <point x="128.60526315789474" y="233.68421052631578"/>
      <point x="117.31578947368422" y="178.1578947368421" type="curve"/>
      <point x="116.13157894736844" y="172.23684210526315"/>
      <point x="90.4736842105263" y="73.89473684210526"/>
      <point x="89.28947368421052" y="67.97368421052632" type="curve"/>
      <point x="66.76315789473684" y="-44.10526315789474"/>
      <point x="137.3157894736842" y="-126.6842105263158"/>
    </contour>
  </outline>
</glyph>
<glyph name="asciitilde" format="2">
  <advance width="584.4736842105264"/>
  <unicode hex="007E"/>
  <outline>
    <contour>
      <point x="413.60526315789474" y="197.10526315789474" type="curve" smooth="yes"/>
      <point x="493.89473684210526" y="197.10526315789474"/>
      <point x="544.1315789473684" y="273.44736842105266"/>
      <point x="570.5526315789473" y="397.8421052631579" type="curve"/>
      <point x="463.2368421052632" y="397.8421052631579" type="line"/>
      <point x="450.3157894736842" y="372.8421052631579"/>
      <point x="439.4736842105263" y="359.0"/>
      <point x="416.86842105263156" y="356.1842105263158" type="curve"/>
      <point x="361.00000000000006" y="362.2631578947369"/>
      <point x="278.7631578947368" y="418.1842105263158"/>
      <point x="202.0263157894737" y="418.1842105263158" type="curve" smooth="yes"/>
      <point x="116.84210526315789" y="418.1842105263158"/>
      <point x="64.78947368421052" y="340.8421052631579"/>
      <point x="38.18421052631579" y="217.44736842105263" type="curve"/>
      <point x="145.5" y="217.44736842105263" type="line"/>
      <point x="158.42105263157893" y="242.44736842105263"/>
      <point x="172.07894736842107" y="256.2894736842105"/>
      <point x="196.1315789473684" y="259.10526315789474" type="curve"/>
      <point x="248.10526315789474" y="253.0263157894737"/>
      <point x="333.60526315789474" y="197.10526315789474"/>
    </contour>
  </outline>
</glyph>
<glyph name="sterling" format="2">
  <advance width="614.8947368421052"/>
  <unicode hex="00A3"/>
  <outline>
    <contour>
      <point x="-10.447368421052628" y="0.0" type="line"/>
      <point x="531.1578947368422" y="0.0" type="line"/>
      <point x="570.7894736842106" y="186.36842105263156" type="line"/>
      <point x="495.6842105263158" y="181.28947368421052"/>
      <point x="387.5263157894737" y="174.57894736842104"/>
      <point x="299.1578947368421" y="168.68421052631578" type="curve"/>
      <point x="168.28947368421052" y="168.68421052631578" type="line"/>
      <point x="217.52631578947367" y="140.71052631578948" type="line"/>
      <point x="296.6578947368421" y="239.15789473684208"/>
      <point x="315.39473684210526" y="268.8157894736842"/>
      <point x="321.7631578947369" y="299.65789473684214" type="curve" smooth="yes"/>
      <point x="349.2105263157895" y="433.2105263157895" type="line" smooth="yes"/>
      <point x="364.15789473684214" y="504.47368421052636"/>
      <point x="404.39473684210526" y="537.3684210526316"/>
      <point x="464.07894736842104" y="540.8157894736842" type="curve"/>
      <point x="475.7368421052632" y="540.8157894736842"/>
      <point x="539.0263157894738" y="522.2631578947369"/>
      <point x="596.0526315789474" y="499.342105263158" type="curve"/>
      <point x="649.6578947368421" y="669.578947368421" type="line"/>
      <point x="579.1052631578948" y="686.2105263157895"/>
      <point x="476.23684210526324" y="704.1578947368421"/>
      <point x="442.2368421052631" y="704.1578947368421" type="curve" smooth="yes"/>
      <point x="280.8421052631579" y="704.1578947368421"/>
      <point x="182.78947368421055" y="616.7631578947368"/>
      <point x="150.1578947368421" y="458.15789473684214" type="curve" smooth="yes"/>
      <point x="137.05263157894737" y="395.92105263157896"/>
      <point x="125.84210526315789" y="308.2368421052631"/>
      <point x="110.47368421052632" y="234.57894736842104" type="curve"/>
      <point x="105.28947368421053" y="213.73684210526318"/>
      <point x="87.1842105263158" y="185.9736842105263"/>
      <point x="11.052631578947372" y="102.86842105263158" type="curve"/>
    </contour>
    <contour>
      <point x="55.92105263157894" y="291.13157894736844" type="line"/>
      <point x="128.60526315789474" y="293.7631578947368"/>
      <point x="203.1315789473684" y="296.39473684210526"/>
      <point x="256.89473684210526" y="298.0263157894737" type="curve"/>
      <point x="298.3157894736842" y="298.0263157894737" type="line"/>
      <point x="350.44736842105266" y="296.39473684210526"/>
      <point x="424.60526315789474" y="293.7631578947368"/>
      <point x="495.657894736842" y="291.13157894736844" type="curve"/>
      <point x="525.5" y="432.4473684210526" type="line"/>
      <point x="453.63157894736844" y="429.8157894736842"/>
      <point x="378.47368421052636" y="427.1842105263158"/>
      <point x="324.7105263157895" y="425.55263157894734" type="curve"/>
      <point x="283.2894736842105" y="425.55263157894734" type="line"/>
      <point x="231.1578947368421" y="427.1842105263158"/>
      <point x="157.63157894736844" y="429.8157894736842"/>
      <point x="85.76315789473684" y="432.4473684210526" type="curve"/>
    </contour>
  </outline>
</glyph>
<glyph name="currency" format="2">
  <advance width="668.5263157894736"/>
  <unicode hex="00A4"/>
  <outline>
    <contour>
      <point x="331.1842105263158" y="85.13157894736842" type="curve" smooth="yes"/>
      <point x="468.63157894736844" y="85.13157894736842"/>
      <point x="559.2105263157895" y="145.02631578947367"/>
      <point x="588.5526315789474" y="284.13157894736844" type="curve" smooth="yes"/>
      <point x="618.078947368421" y="425.42105263157896"/>
      <point x="519.5000000000001" y="553.421052631579"/>
      <point x="363.2631578947368" y="553.421052631579" type="curve" smooth="yes"/>
      <point x="227.10526315789474" y="553.421052631579"/>
      <point x="135.68421052631578" y="493.7105263157895"/>
      <point x="106.34210526315789" y="354.60526315789474" type="curve" smooth="yes"/>
      <point x="76.8157894736842" y="213.13157894736844"/>
      <point x="174.21052631578948" y="85.13157894736842"/>
    </contour>
    <contour>
      <point x="142.07894736842104" y="4.657894736842105" type="line"/>
      <point x="193.05263157894737" y="55.26315789473684"/>
      <point x="245.13157894736838" y="107.78947368421052"/>
      <point x="283.1842105263158" y="145.6578947368421" type="curve"/>
      <point x="170.18421052631578" y="265.55263157894734" type="line"/>
      <point x="130.31578947368422" y="231.13157894736844"/>
      <point x="73.78947368421052" y="182.8684210526316"/>
      <point x="20.36842105263158" y="135.71052631578948" type="curve"/>
    </contour>
    <contour>
      <point x="342.9736842105263" y="236.23684210526315" type="curve"/>
      <point x="290.8421052631579" y="241.5"/>
      <point x="257.0263157894737" y="282.9736842105263"/>
      <point x="267.05263157894734" y="332.65789473684214" type="curve" smooth="yes"/>
      <point x="275.2631578947368" y="374.44736842105266"/>
      <point x="308.00000000000006" y="400.3157894736843"/>
      <point x="354.7368421052631" y="404.7631578947369" type="curve"/>
      <point x="407.9473684210526" y="398.68421052631584"/>
      <point x="439.5" y="355.5789473684211"/>
      <point x="430.2894736842105" y="309.3421052631579" type="curve" smooth="yes"/>
      <point x="421.07894736842104" y="261.6578947368421"/>
      <point x="390.0" y="238.23684210526315"/>
    </contour>
    <contour>
      <point x="191.47368421052633" y="372.15789473684214" type="curve"/>
      <point x="308.7368421052632" y="481.07894736842104" type="line"/>
      <point x="273.50000000000006" y="520.9473684210526"/>
      <point x="225.23684210526315" y="577.4736842105264"/>
      <point x="178.07894736842104" y="631.7105263157895" type="curve"/>
      <point x="50.473684210526315" y="512.4473684210526" type="line"/>
      <point x="100.89473684210527" y="461.6578947368421"/>
      <point x="154.23684210526318" y="409.39473684210526"/>
    </contour>
    <contour>
      <point x="520.8157894736842" y="8.65789473684211" type="curve"/>
      <point x="648.421052631579" y="127.92105263157893" type="line"/>
      <point x="598.0" y="178.71052631578945"/>
      <point x="544.6578947368421" y="230.97368421052633"/>
      <point x="507.42105263157896" y="268.2105263157895" type="curve"/>
      <point x="390.15789473684214" y="159.28947368421052" type="line"/>
      <point x="425.39473684210526" y="119.42105263157896"/>
      <point x="473.6578947368421" y="62.89473684210529"/>
    </contour>
    <contour>
      <point x="528.7105263157895" y="374.8157894736842" type="line"/>
      <point x="568.5789473684212" y="409.2368421052631"/>
      <point x="625.1052631578948" y="457.49999999999994"/>
      <point x="678.5263157894738" y="504.6578947368421" type="curve"/>
      <point x="556.815789473684" y="635.7105263157894" type="line"/>
      <point x="505.84210526315786" y="585.1052631578947"/>
      <point x="453.76315789473676" y="532.578947368421"/>
      <point x="415.7105263157895" y="494.7105263157894" type="curve"/>
    </contour>
  </outline>
</glyph>
<glyph name="yen" format="2">
  <advance width="668.2631578947369"/>
  <unicode hex="00A5"/>
  <outline>
    <contour>
      <point x="246.86842105263156" y="232.5263157894737" type="line"/>
      <point x="419.44736842105266" y="232.5263157894737" type="line"/>
      <point x="613.6578947368422" y="508.2368421052632" type="line"/>
      <point x="663.2894736842107" y="571.3947368421053"/>
      <point x="710.9210526315788" y="631.921052631579"/>
      <point x="755.3684210526316" y="688.8947368421053" type="curve"/>
      <point x="494.8157894736842" y="688.8947368421053" type="line"/>
      <point x="463.0263157894737" y="618.2631578947368"/>
      <point x="447.8684210526316" y="584.5"/>
      <point x="422.4736842105263" y="528.1578947368422" type="curve"/>
      <point x="372.47368421052636" y="435.3157894736842" type="line"/>
      <point x="359.9473684210526" y="435.3157894736842" type="line"/>
      <point x="345.92105263157896" y="522.5263157894738" type="line"/>
      <point x="342.2894736842105" y="577.421052631579"/>
      <point x="340.2368421052632" y="617.8947368421053"/>
      <point x="335.7631578947368" y="688.8947368421053" type="curve"/>
      <point x="96.89473684210526" y="688.8947368421053" type="line"/>
      <point x="132.078947368421" y="595.8421052631579"/>
      <point x="145.8947368421053" y="559.3157894736843"/>
      <point x="166.07894736842104" y="505.7894736842105" type="curve"/>
    </contour>
    <contour>
      <point x="169.8157894736842" y="0.0" type="curve"/>
      <point x="396.7105263157895" y="0.0" type="line"/>
      <point x="407.00000000000006" y="72.4736842105263"/>
      <point x="415.92105263157896" y="133.39473684210526"/>
      <point x="428.0263157894737" y="219.0263157894737" type="curve"/>
      <point x="464.7894736842106" y="392.9473684210526" type="line"/>
      <point x="268.1842105263158" y="392.9473684210526" type="line"/>
      <point x="231.42105263157893" y="219.84210526315792" type="line"/>
      <point x="207.52631578947367" y="134.21052631578948"/>
      <point x="190.26315789473685" y="72.6578947368421"/>
    </contour>
    <contour>
      <point x="36.18421052631578" y="101.34210526315789" type="line"/>
      <point x="108.05263157894738" y="103.97368421052632"/>
      <point x="183.21052631578945" y="106.60526315789473"/>
      <point x="236.15789473684205" y="108.23684210526315" type="curve"/>
      <point x="373.89473684210526" y="108.23684210526315" type="line"/>
      <point x="426.8421052631579" y="106.60526315789473"/>
      <point x="500.3684210526316" y="103.97368421052632"/>
      <point x="572.2368421052632" y="101.34210526315789" type="curve"/>
      <point x="597.8157894736842" y="222.26315789473685" type="line"/>
      <point x="525.1315789473684" y="221.26315789473685"/>
      <point x="450.7894736842106" y="220.26315789473685"/>
      <point x="397.8421052631579" y="219.44736842105263" type="curve"/>
      <point x="260.10526315789474" y="219.44736842105263" type="line"/>
      <point x="207.15789473684208" y="220.26315789473685"/>
      <point x="132.8157894736842" y="221.26315789473685"/>
      <point x="61.763157894736835" y="222.26315789473685" type="curve"/>
    </contour>
    <contour>
      <point x="72.97368421052632" y="275.39473684210526" type="line"/>
      <point x="145.02631578947367" y="276.39473684210526"/>
      <point x="219.36842105263156" y="277.39473684210526"/>
      <point x="272.3157894736842" y="278.2105263157895" type="curve"/>
      <point x="410.0526315789474" y="278.2105263157895" type="line"/>
      <point x="463.00000000000006" y="277.39473684210526"/>
      <point x="537.3421052631579" y="276.39473684210526"/>
      <point x="609.0263157894736" y="275.39473684210526" type="curve"/>
      <point x="634.7894736842106" y="396.3157894736842" type="line"/>
      <point x="562.1052631578948" y="393.68421052631584"/>
      <point x="486.94736842105266" y="391.0526315789474"/>
      <point x="434.0" y="389.42105263157896" type="curve"/>
      <point x="296.2631578947368" y="389.42105263157896" type="line"/>
      <point x="243.3157894736842" y="391.0526315789474"/>
      <point x="169.78947368421052" y="393.68421052631584"/>
      <point x="98.73684210526316" y="396.3157894736842" type="curve"/>
    </contour>
  </outline>
</glyph>
<glyph name="brokenbar" format="2">
  <advance width="292.42105263157896"/>
  <unicode hex="00A6"/>
  <outline>
    <contour>
      <point x="88.6842105263158" y="357.8421052631579" type="line"/>
      <point x="249.21052631578945" y="357.8421052631579" type="line"/>
      <point x="269.02631578947364" y="448.8421052631579" type="line"/>
      <point x="278.6578947368421" y="488.47368421052636"/>
      <point x="315.9210526315789" y="640.4736842105264"/>
      <point x="349.1842105263157" y="777.8421052631579" type="curve"/>
      <point x="168.3421052631579" y="777.8421052631579" type="line"/>
      <point x="143.42105263157896" y="640.4736842105264"/>
      <point x="115.6842105263158" y="487.65789473684214"/>
      <point x="108.5" y="448.8421052631579" type="curve"/>
    </contour>
    <contour>
      <point x="-31.657894736842103" y="-162.1578947368421" type="curve"/>
      <point x="149.18421052631578" y="-162.1578947368421" type="line"/>
      <point x="174.1052631578947" y="-25.78947368421052"/>
      <point x="201.8421052631579" y="128.02631578947367"/>
      <point x="209.02631578947367" y="166.8421052631579" type="curve"/>
      <point x="228.02631578947367" y="257.8421052631579" type="line"/>
      <point x="67.5" y="257.8421052631579" type="line"/>
      <point x="48.5" y="166.8421052631579" type="line"/>
      <point x="39.68421052631579" y="129.6578947368421"/>
      <point x="1.6052631578947354" y="-24.97368421052631"/>
    </contour>
  </outline>
</glyph>
<glyph name="section" format="2">
  <advance width="598.990291262136"/>
  <unicode hex="00A7"/>
  <outline>
    <contour>
      <point x="208.88349514563106" y="-133.28155339805824" type="curve" smooth="yes"/>
      <point x="363.3883495145631" y="-133.28155339805824"/>
      <point x="439.68932038834953" y="-70.67961165048544"/>
      <point x="459.3495145631068" y="21.621359223300963" type="curve" smooth="yes"/>
      <point x="482.66990291262135" y="130.58252427184465"/>
      <point x="431.5728155339806" y="181.60194174757282"/>
      <point x="310.99029126213594" y="231.58252427184468" type="curve" smooth="yes"/>
      <point x="235.4757281553398" y="262.99999999999994"/>
      <point x="224.11650485436894" y="284.05825242718447"/>
      <point x="230.81553398058253" y="313.5339805825243" type="curve" smooth="yes"/>
      <point x="238.51456310679612" y="348.00970873786406"/>
      <point x="276.66990291262135" y="366.0485436893204"/>
      <point x="309.06796116504853" y="370.04854368932035" type="curve"/>
      <point x="251.8446601941747" y="482.6796116504854" type="line"/>
      <point x="159.35922330097085" y="472.3592233009709"/>
      <point x="63.796116504854375" y="425.0194174757282"/>
      <point x="43.15533980582524" y="328.81553398058253" type="curve" smooth="yes"/>
      <point x="26.475728155339812" y="251.07766990291265"/>
      <point x="55.19417475728156" y="187.49514563106794"/>
      <point x="171.1553398058252" y="137.15533980582524" type="curve" smooth="yes"/>
      <point x="258.29126213592235" y="99.07766990291263"/>
      <point x="283.3689320388349" y="82.03883495145631"/>
      <point x="274.66990291262135" y="46.18446601941747" type="curve" smooth="yes"/>
      <point x="266.631067961165" y="13.31067961165048"/>
      <point x="231.13592233009712" y="7.2912621359223255"/>
      <point x="188.3203883495146" y="4.631067961165044" type="curve"/>
      <point x="163.24271844660194" y="4.631067961165044"/>
      <point x="79.98058252427185" y="38.27184466019416"/>
      <point x="2.3203883495145576" y="74.93203883495146" type="curve"/>
      <point x="-38.883495145631066" y="-78.58252427184468" type="line"/>
      <point x="50.69902912621361" y="-105.60194174757282"/>
      <point x="155.92233009708735" y="-133.28155339805824"/>
    </contour>
    <contour>
      <point x="387.4854368932039" y="112.37864077669902" type="line"/>
      <point x="487.388349514563" y="127.35922330097087"/>
      <point x="560.9320388349515" y="176.01941747572815"/>
      <point x="579.5728155339806" y="267.2427184466019" type="curve" smooth="yes"/>
      <point x="598.5728155339807" y="358.28155339805824"/>
      <point x="549.1553398058252" y="409.3009708737864"/>
      <point x="430.2330097087379" y="458.62135922330094" type="curve" smooth="yes"/>
      <point x="358.0388349514563" y="488.7184466019417"/>
      <point x="342.3592233009708" y="510.7572815533981"/>
      <point x="349.0582524271844" y="540.9126213592233" type="curve" smooth="yes"/>
      <point x="356.43689320388347" y="572.7864077669902"/>
      <point x="396.6310679611651" y="581.4660194174758"/>
      <point x="422.36893203883494" y="584.4660194174758" type="curve"/>
      <point x="438.3883495145631" y="584.4660194174758"/>
      <point x="517.0485436893206" y="555.4854368932039"/>
      <point x="584.7281553398058" y="524.5048543689319" type="curve"/>
      <point x="627.5922330097088" y="678.6601941747572" type="line"/>
      <point x="560.0097087378641" y="697.9805825242718"/>
      <point x="448.4077669902913" y="728.3203883495146"/>
      <point x="396.48543689320394" y="728.3203883495146" type="curve" smooth="yes"/>
      <point x="264.0194174757281" y="728.3203883495146"/>
      <point x="184.6990291262136" y="671.6990291262136"/>
      <point x="162.71844660194176" y="568.7961165048544" type="curve" smooth="yes"/>
      <point x="142.05825242718447" y="472.4757281553398"/>
      <point x="182.11650485436894" y="410.53398058252424"/>
      <point x="290.7378640776699" y="364.5339805825243" type="curve" smooth="yes"/>
      <point x="377.21359223300976" y="327.4563106796117"/>
      <point x="402.2718446601942" y="308.73786407766994"/>
      <point x="393.9126213592233" y="271.5631067961165" type="curve" smooth="yes"/>
      <point x="387.2330097087379" y="242.4466019417476"/>
      <point x="352.757281553398" y="220.70873786407765"/>
      <point x="312.3592233009708" y="216.36893203883497" type="curve"/>
    </contour>
  </outline>
</glyph>
<glyph name="ordfeminine" format="2">
  <advance width="409.24271844660194"/>
  <unicode hex="00AA"/>
  <outline>
    <contour>
      <point x="164.11650485436894" y="327.6990291262136" type="curve" smooth="yes"/>
      <point x="184.19417475728156" y="327.6990291262136"/>
      <point x="232.57281553398056" y="356.39805825242706"/>
      <point x="275.8932038834952" y="389.73786407766994" type="curve"/>
      <point x="285.53398058252435" y="389.73786407766994" type="line"/>
      <point x="286.873786407767" y="337.0194174757281" type="line"/>
      <point x="414.126213592233" y="337.0194174757281" type="line"/>
      <point x="415.44660194174753" y="383.64077669902906"/>
      <point x="416.7669902912621" y="422.2427184466019"/>
      <point x="419.08737864077665" y="468.86407766990294" type="curve"/>
      <point x="424.7864077669903" y="496.0194174757282" type="line" smooth="yes"/>
      <point x="430.7864077669903" y="523.3592233009707"/>
      <point x="438.4660194174757" y="546.0970873786408"/>
      <point x="444.44660194174764" y="576.3592233009708" type="curve" smooth="yes"/>
      <point x="464.1067961165049" y="670.3203883495146"/>
      <point x="404.5436893203883" y="728.3203883495146"/>
      <point x="294.9611650485437" y="728.3203883495146" type="curve" smooth="yes"/>
      <point x="272.6019417475728" y="728.3203883495146"/>
      <point x="183.6990291262136" y="713.6407766990291"/>
      <point x="142.39805825242718" y="706.3009708737865" type="curve"/>
      <point x="122.13592233009712" y="584.9708737864079" type="line"/>
      <point x="189.0970873786408" y="602.990291262136"/>
      <point x="245.41747572815535" y="616.6699029126213"/>
      <point x="254.11650485436886" y="616.6699029126213" type="curve" smooth="yes"/>
      <point x="302.19417475728153" y="616.6699029126213"/>
      <point x="323.5922330097087" y="596.9514563106796"/>
      <point x="317.5533980582524" y="573.4563106796115" type="curve"/>
      <point x="206.11650485436894" y="556.4174757281554" type="line" smooth="yes"/>
      <point x="146.35922330097088" y="547.0582524271845"/>
      <point x="87.73786407766991" y="525.0000000000001"/>
      <point x="71.73786407766991" y="450.6796116504854" type="curve" smooth="yes"/>
      <point x="56.398058252427184" y="379.3592233009709"/>
      <point x="96.75728155339807" y="327.6990291262136"/>
    </contour>
    <contour>
      <point x="236.82524271844662" y="431.36893203883494" type="curve" smooth="yes"/>
      <point x="214.6893203883495" y="431.36893203883494"/>
      <point x="196.27184466019415" y="445.7669902912622"/>
      <point x="201.63106796116503" y="471.88349514563106" type="curve" smooth="yes"/>
      <point x="206.99029126213588" y="496.0"/>
      <point x="229.10679611650485" y="503.0194174757282"/>
      <point x="251.24271844660194" y="508.37864077669894" type="curve" smooth="yes"/>
      <point x="285.4757281553398" y="516.757281553398"/>
      <point x="296.8349514563107" y="521.7572815533981"/>
      <point x="306.55339805825236" y="529.7572815533981" type="curve"/>
      <point x="292.5145631067961" y="466.92233009708735" type="line"/>
      <point x="273.03883495145624" y="446.4271844660194"/>
      <point x="246.90291262135926" y="431.36893203883494"/>
    </contour>
  </outline>
</glyph>
<glyph name="logicalnot" format="2">
  <advance width="584.4736842105264"/>
  <unicode hex="00AC"/>
  <outline>
    <contour>
      <point x="323.5526315789474" y="47.868421052631575" type="curve"/>
      <point x="502.7631578947368" y="47.868421052631575" type="line"/>
      <point x="515.578947368421" y="120.10526315789474"/>
      <point x="528.5789473684212" y="193.26315789473682"/>
      <point x="538.0263157894736" y="245.3947368421053" type="curve"/>
      <point x="569.2631578947368" y="393.57894736842104" type="line"/>
      <point x="497.39473684210526" y="390.94736842105266"/>
      <point x="422.0526315789474" y="388.3157894736842"/>
      <point x="369.10526315789474" y="386.6842105263158" type="curve"/>
      <point x="274.0" y="386.6842105263158" type="line"/>
      <point x="221.05263157894737" y="388.3157894736842"/>
      <point x="147.71052631578948" y="390.94736842105266"/>
      <point x="75.84210526315789" y="393.57894736842104" type="curve"/>
      <point x="38.65789473684211" y="219.26315789473685" type="line"/>
      <point x="111.3421052631579" y="221.89473684210526"/>
      <point x="186.5" y="224.5263157894737"/>
      <point x="239.44736842105263" y="226.1578947368421" type="curve"/>
      <point x="334.55263157894734" y="226.1578947368421" type="line"/>
      <point x="380.60526315789474" y="224.5263157894737"/>
      <point x="444.4210526315789" y="221.89473684210526"/>
      <point x="505.7631578947368" y="219.26315789473685" type="curve"/>
      <point x="392.6842105263158" y="340.7894736842105" type="line"/>
      <point x="372.60526315789474" y="246.21052631578948" type="line"/>
      <point x="359.7105263157895" y="193.89473684210523"/>
      <point x="341.4473684210526" y="120.55263157894738"/>
    </contour>
  </outline>
</glyph>
<glyph name="degree" format="2">
  <advance width="526.6052631578948"/>
  <unicode hex="00B0"/>
  <outline>
    <contour>
      <point x="302.8157894736842" y="289.6578947368421" type="curve" smooth="yes"/>
      <point x="429.0" y="289.6578947368421"/>
      <point x="514.7894736842105" y="345.92105263157896"/>
      <point x="541.8684210526316" y="472.86842105263156" type="curve" smooth="yes"/>
      <point x="567.1315789473684" y="594.3684210526317"/>
      <point x="479.07894736842104" y="704.1578947368421"/>
      <point x="327.36842105263156" y="704.1578947368421" type="curve" smooth="yes"/>
      <point x="198.0" y="704.1578947368421"/>
      <point x="114.84210526315789" y="641.7105263157895"/>
      <point x="91.02631578947368" y="527.5526315789474" type="curve" smooth="yes"/>
      <point x="62.13157894736842" y="393.2631578947369"/>
      <point x="148.36842105263156" y="289.6578947368421"/>
    </contour>
    <contour>
      <point x="310.3421052631579" y="416.92105263157896" type="curve"/>
      <point x="254.73684210526312" y="420.55263157894734"/>
      <point x="228.47368421052633" y="460.55263157894746"/>
      <point x="237.6842105263158" y="504.78947368421063" type="curve" smooth="yes"/>
      <point x="246.71052631578948" y="548.4736842105262"/>
      <point x="275.89473684210526" y="571.6315789473683"/>
      <point x="320.6578947368421" y="576.8947368421052" type="curve"/>
      <point x="371.89473684210526" y="571.6315789473683"/>
      <point x="398.7105263157895" y="528.078947368421"/>
      <point x="390.3157894736842" y="488.47368421052636" type="curve" smooth="yes"/>
      <point x="380.10526315789474" y="440.15789473684214"/>
      <point x="349.3947368421053" y="421.36842105263156"/>
    </contour>
  </outline>
</glyph>
<glyph name="plusminus" format="2">
  <advance width="584.4736842105264"/>
  <unicode hex="00B1"/>
  <outline>
    <contour>
      <point x="-9.105263157894736" y="-6.894736842105263" type="line"/>
      <point x="63.57894736842105" y="-4.2631578947368425"/>
      <point x="137.92105263157896" y="-1.631578947368421"/>
      <point x="191.68421052631578" y="0.0" type="curve"/>
      <point x="286.7894736842105" y="0.0" type="line"/>
      <point x="338.92105263157896" y="-1.631578947368421"/>
      <point x="413.2631578947368" y="-4.2631578947368425"/>
      <point x="484.31578947368416" y="-6.894736842105263" type="curve"/>
      <point x="521.4999999999999" y="167.42105263157893" type="line"/>
      <point x="448.8157894736842" y="164.78947368421052"/>
      <point x="373.65789473684214" y="162.15789473684208"/>
      <point x="320.7105263157895" y="160.52631578947367" type="curve"/>
      <point x="225.6052631578947" y="160.52631578947367" type="line"/>
      <point x="172.65789473684208" y="162.15789473684208"/>
      <point x="99.13157894736841" y="164.78947368421052"/>
      <point x="28.07894736842105" y="167.42105263157893" type="curve"/>
    </contour>
    <contour>
      <point x="69.15789473684211" y="363.2368421052632" type="line"/>
      <point x="141.8421052631579" y="365.86842105263156"/>
      <point x="217.18421052631578" y="368.5"/>
      <point x="270.13157894736844" y="370.13157894736844" type="curve"/>
      <point x="365.2368421052632" y="370.13157894736844" type="line"/>
      <point x="418.18421052631584" y="368.5"/>
      <point x="491.5263157894737" y="365.86842105263156"/>
      <point x="562.578947368421" y="363.2368421052632" type="curve"/>
      <point x="599.7631578947368" y="537.5526315789474" type="line"/>
      <point x="527.8947368421052" y="534.9210526315788"/>
      <point x="452.7368421052632" y="532.2894736842105"/>
      <point x="399.7894736842105" y="530.6578947368421" type="curve"/>
      <point x="304.6842105263158" y="530.6578947368421" type="line"/>
      <point x="251.73684210526312" y="532.2894736842105"/>
      <point x="178.21052631578948" y="534.9210526315788"/>
      <point x="106.34210526315789" y="537.5526315789474" type="curve"/>
    </contour>
    <contour>
      <point x="192.50000000000003" y="208.1578947368421" type="curve"/>
      <point x="372.7105263157894" y="208.1578947368421" type="line"/>
      <point x="385.5263157894737" y="280.39473684210526"/>
      <point x="398.52631578947364" y="354.36842105263156"/>
      <point x="407.9736842105263" y="407.3157894736842" type="curve"/>
      <point x="426.55263157894734" y="493.4736842105263" type="line"/>
      <point x="439.4473684210526" y="546.421052631579"/>
      <point x="457.7105263157895" y="620.7631578947369"/>
      <point x="475.6052631578947" y="692.6315789473684" type="curve"/>
      <point x="295.39473684210526" y="692.6315789473684" type="line"/>
      <point x="282.7631578947368" y="620.9473684210527"/>
      <point x="269.57894736842104" y="546.2368421052632"/>
      <point x="260.13157894736844" y="493.4736842105263" type="curve"/>
      <point x="241.5526315789474" y="407.3157894736842" type="line"/>
      <point x="228.8421052631579" y="354.55263157894734"/>
      <point x="210.57894736842104" y="280.2105263157895"/>
    </contour>
  </outline>
</glyph>
<glyph name="micro" format="2">
  <advance width="583.2631578947369"/>
  <unicode hex="00B5"/>
  <outline>
    <contour>
      <point x="-66.73684210526315" y="-197.26315789473685" type="curve"/>
      <point x="155.26315789473685" y="-192.0" type="line"/>
      <point x="163.73684210526315" y="-121.89473684210526"/>
      <point x="170.21052631578942" y="-60.973684210526315"/>
      <point x="179.05263157894734" y="11.868421052631579" type="curve" smooth="yes"/>
      <point x="182.71052631578945" y="30.236842105263158" type="line"/>
      <point x="93.13157894736841" y="30.236842105263158" type="line"/>
      <point x="109.39473684210527" y="1.7894736842105265"/>
      <point x="138.5263157894737" y="-14.710526315789473"/>
      <point x="179.07894736842104" y="-14.710526315789473" type="curve" smooth="yes"/>
      <point x="213.49999999999997" y="-14.710526315789473"/>
      <point x="274.5" y="24.81578947368421"/>
      <point x="321.9473684210526" y="67.26315789473685" type="curve"/>
      <point x="336.7368421052631" y="67.26315789473685" type="line"/>
      <point x="339.10526315789474" y="0.0" type="line"/>
      <point x="512.2368421052632" y="0.0" type="line"/>
      <point x="514.1315789473686" y="64.76315789473685"/>
      <point x="516.2105263157895" y="123.86842105263156"/>
      <point x="518.4736842105264" y="176.4736842105263" type="curve"/>
      <point x="539.0526315789474" y="274.2631578947369" type="line"/>
      <point x="561.1315789473684" y="369.94736842105266"/>
      <point x="575.315789473684" y="430.42105263157896"/>
      <point x="591.5" y="500.5263157894737" type="curve"/>
      <point x="386.8157894736842" y="500.5263157894737" type="line"/>
      <point x="376.7105263157895" y="430.42105263157896"/>
      <point x="367.6052631578947" y="367.3157894736842"/>
      <point x="357.31578947368416" y="296.2894736842105" type="curve"/>
      <point x="335.84210526315786" y="194.0263157894737" type="line"/>
      <point x="312.7894736842105" y="171.89473684210526"/>
      <point x="272.65789473684214" y="150.26315789473682"/>
      <point x="261.0263157894737" y="150.26315789473682" type="curve" smooth="yes"/>
      <point x="223.57894736842107" y="150.26315789473682"/>
      <point x="215.52631578947367" y="184.23684210526315"/>
      <point x="228.55263157894734" y="244.8157894736842" type="curve"/>
      <point x="239.21052631578945" y="296.2894736842105" type="line"/>
      <point x="256.3947368421052" y="368.94736842105266"/>
      <point x="272.39473684210526" y="435.6842105263158"/>
      <point x="289.39473684210526" y="505.7894736842105" type="curve"/>
      <point x="78.81578947368422" y="500.5263157894737" type="line"/>
      <point x="69.52631578947368" y="432.0526315789474"/>
      <point x="60.42105263157895" y="368.9473684210527"/>
      <point x="47.684210526315795" y="272.63157894736844" type="curve"/>
      <point x="-5.131578947368418" y="22.473684210526315" type="line"/>
      <point x="-28.02631578947368" y="-60.973684210526315"/>
      <point x="-47.28947368421051" y="-127.15789473684211"/>
    </contour>
  </outline>
</glyph>
<glyph name="paragraph" format="2">
  <advance width="597.0526315789474"/>
  <unicode hex="00B6"/>
  <outline>
    <contour>
      <point x="256.36842105263156" y="273.0263157894737" type="curve" smooth="yes"/>
      <point x="273.6842105263158" y="273.0263157894737" type="line"/>
      <point x="334.2105263157895" y="713.0" type="line"/>
      <point x="308.07894736842104" y="713.0" type="line"/>
      <point x="182.81578947368422" y="713.0"/>
      <point x="100.52631578947368" y="639.8421052631578"/>
      <point x="74.89473684210526" y="515.8684210526316" type="curve" smooth="yes"/>
      <point x="49.26315789473684" y="391.44736842105266"/>
      <point x="116.23684210526316" y="273.0263157894737"/>
    </contour>
    <contour>
      <point x="120.94736842105263" y="-176.44736842105263" type="curve"/>
      <point x="250.3947368421053" y="-176.44736842105263" type="line"/>
      <point x="272.7631578947369" y="-58.63157894736841"/>
      <point x="292.3157894736842" y="44.921052631578945"/>
      <point x="312.6842105263158" y="153.55263157894737" type="curve"/>
      <point x="361.5" y="383.0" type="line"/>
      <point x="387.94736842105266" y="492.1842105263158"/>
      <point x="413.2105263157895" y="595.6315789473684"/>
      <point x="441.6578947368421" y="713.0" type="curve"/>
      <point x="319.9210526315789" y="713.0" type="line"/>
      <point x="294.9210526315789" y="595.1842105263158"/>
      <point x="272.9210526315789" y="491.8157894736842"/>
      <point x="249.92105263157893" y="383.0" type="curve"/>
      <point x="201.10526315789474" y="153.55263157894737" type="line"/>
      <point x="174.6578947368421" y="44.368421052631575"/>
      <point x="149.39473684210526" y="-59.07894736842104"/>
    </contour>
    <contour>
      <point x="302.34210526315786" y="-176.44736842105263" type="curve"/>
      <point x="431.7894736842105" y="-176.44736842105263" type="line"/>
      <point x="453.3421052631579" y="-58.63157894736841"/>
      <point x="472.0789473684211" y="44.921052631578945"/>
      <point x="491.63157894736844" y="153.55263157894737" type="curve"/>
      <point x="540.4473684210527" y="383.0" type="line"/>
      <point x="566.8947368421053" y="492.1842105263158"/>
      <point x="592.3421052631579" y="596.5526315789474"/>
      <point x="620.6052631578948" y="713.0" type="curve"/>
      <point x="488.7105263157895" y="713.0" type="line"/>
      <point x="467.1578947368421" y="595.1842105263158"/>
      <point x="448.4210526315789" y="491.63157894736844"/>
      <point x="428.86842105263156" y="383.0" type="curve"/>
      <point x="380.05263157894734" y="153.55263157894737" type="line"/>
      <point x="354.4210526315789" y="44.368421052631575"/>
      <point x="329.97368421052624" y="-59.07894736842104"/>
    </contour>
    <contour>
      <point x="357.6315789473684" y="609.578947368421" type="line"/>
      <point x="452.7368421052632" y="609.578947368421" type="line"/>
      <point x="504.86842105263156" y="607.9473684210526"/>
      <point x="579.0263157894738" y="605.3157894736843"/>
      <point x="650.0789473684212" y="602.6842105263157" type="curve"/>
      <point x="673.3947368421053" y="713.0" type="line"/>
      <point x="601.5263157894738" y="713.0"/>
      <point x="527.1842105263158" y="713.0"/>
      <point x="474.2368421052632" y="713.0" type="curve"/>
      <point x="379.1315789473684" y="713.0" type="line"/>
    </contour>
  </outline>
</glyph>
